<svg xmlns="http://www.w3.org/2000/svg" width="17.453" height="17.602" viewBox="0 0 17.453 17.602">
  <g id="Layer_2" data-name="Layer 2" transform="translate(0 0)">
    <g id="Layer_1" data-name="Layer 1" transform="translate(0 0)">
      <path id="Trazado_201" data-name="Trazado 201" d="M1.661,3.56H.8a.75.75,0,1,1-.007-1.5H4.975V1.281A1.184,1.184,0,0,1,6.152,0h5.1a1.169,1.169,0,0,1,1.184,1.3v.745h4.23a.753.753,0,1,1,.037,1.5h-.924c-.045.5-.089.983-.127,1.49-.164,2.033-.335,4.059-.5,6.092-.112,1.385-.231,2.771-.328,4.163A2.48,2.48,0,0,1,12.52,17.6H5.191a2.443,2.443,0,0,1-2.443-1.735,8.357,8.357,0,0,1-.194-1.43c-.186-2.279-.357-4.551-.536-6.822-.1-1.288-.2-2.584-.305-3.873C1.676,3.724,1.668,3.642,1.661,3.56Zm1.49,0c0,.462.082.9.112,1.348.119,1.49.231,3.031.35,4.543.149,1.877.305,3.761.454,5.645a1,1,0,0,0,1.05,1h7.135a1.005,1.005,0,0,0,1.087-1.005l.045-.626c.134-1.668.261-3.337.395-5l.41-4.99c0-.283.037-.573.06-.879Zm7.79-2.071H6.472v.559h4.469Z" transform="translate(0 0)" fill="#d53e27"/>
      <path id="Trazado_202" data-name="Trazado 202" d="M7.816,11.908c-.045-.983-.089-1.974-.127-2.979A.738.738,0,0,1,9.157,8.78c.06.506.067,1.02.089,1.527l.194,4.469a.745.745,0,1,1-1.475.216,7.134,7.134,0,0,1-.045-1c0-.685-.067-1.378-.1-2.071Z" transform="translate(-1.962 -2.077)" fill="#d53e27"/>
      <path id="Trazado_203" data-name="Trazado 203" d="M13.468,11.9,13.6,8.916a.747.747,0,1,1,1.49-.074,15.475,15.475,0,0,1-.067,1.758c-.06,1.385-.127,2.763-.186,4.148a.842.842,0,0,1-.357.745.745.745,0,0,1-1.125-.514,3.784,3.784,0,0,1,0-.581l.112-2.562Z" transform="translate(-3.406 -2.064)" fill="#d53e27"/>
    </g>
  </g>
</svg>
