<svg id="Layer_1" data-name="Layer 1" xmlns="http://www.w3.org/2000/svg" width="18.623" height="17.435" viewBox="0 0 18.623 17.435">
  <path id="Trazado_553" data-name="Trazado 553" d="M1.184,7.382H17.432a.509.509,0,0,0,0-.1V4.107a.942.942,0,0,0-.729-.936,1.7,1.7,0,0,0-.308,0H15.317a.592.592,0,0,1-.592-.462.592.592,0,0,1,.29-.592.438.438,0,0,1,.249-.13,12.953,12.953,0,0,1,1.439,0,2.121,2.121,0,0,1,1.919,2.073V16.054a2.138,2.138,0,0,1-1.445,2.073,2.369,2.369,0,0,1-.592.118H2.2A2.1,2.1,0,0,1,.124,16.794,2.464,2.464,0,0,1,0,16.054Q0,10.131,0,4.166a2.144,2.144,0,0,1,2.209-2.18H3.3a.551.551,0,0,1,.539.379.551.551,0,0,1-.118.592.592.592,0,0,1-.474.19H2.191a.948.948,0,0,0-1.007.977V7.382Zm0,1.185v7.457a1.279,1.279,0,0,0,0,.338.96.96,0,0,0,1.048.729H16.383a1.451,1.451,0,0,0,.355-.036.983.983,0,0,0,.717-1.019V8.573Z" transform="translate(0.001 -0.812)" fill="#868686"/>
  <path id="Trazado_554" data-name="Trazado 554" d="M21.468,2.825V.669a.592.592,0,0,1,.261-.551.592.592,0,0,1,.888.361,1.09,1.09,0,0,1,0,.243V2.683a.184.184,0,0,0,.13.207,1.738,1.738,0,1,1-1.439.012Zm.592,1.066a.592.592,0,1,0,.592.592A.592.592,0,0,0,22.06,3.891Z" transform="translate(-8.277 -0.022)" fill="#868686"/>
  <path id="Trazado_555" data-name="Trazado 555" d="M7.576,1.648V2.7a.16.16,0,0,0,.113.178,1.741,1.741,0,1,1-1.4,0A.172.172,0,0,0,6.4,2.69V.659A.628.628,0,0,1,6.628.138.592.592,0,0,1,7.22.066.545.545,0,0,1,7.576.6V1.678ZM6.421,4.467a.592.592,0,1,0,.592-.592.592.592,0,0,0-.592.592Z" transform="translate(-2.138 -0.018)" fill="#868686"/>
  <path id="Trazado_556" data-name="Trazado 556" d="M13.33,2h2.861a.585.585,0,0,1,.089,1.167H10.534a.652.652,0,0,1-.527-.207A.592.592,0,0,1,10.273,2a1.256,1.256,0,0,1,.261,0Z" transform="translate(-4.018 -0.821)" fill="#868686"/>
</svg>
