<svg xmlns="http://www.w3.org/2000/svg" width="15.859" height="18.558" viewBox="0 0 15.859 18.558">
  <g id="Layer_2" data-name="Layer 2" transform="translate(0.008 0.003)">
    <g id="Layer_1" data-name="Layer 1" transform="translate(-0.008 -0.003)">
      <path id="Trazado_139" data-name="Trazado 139" d="M2.318,17.587a1.669,1.669,0,0,1-1.03-.068c-.3-.155-.552-.4-.85-.565A.819.819,0,0,1,0,16.135Q0,11.816,0,7.5v-5.9C0,.5.506,0,1.611,0H9.219a1.154,1.154,0,0,1,.863.323c.956.919,1.936,1.769,2.948,2.638a.943.943,0,0,1,.31.763v8.3a10.985,10.985,0,0,1,1.241.7,3.209,3.209,0,0,1,1.142,3.451,3.277,3.277,0,0,1-2.693,2.346,3.159,3.159,0,0,1-2.346-.571.385.385,0,0,0-.5,0,1.862,1.862,0,0,1-.906.391c-.292,0-.559-.341-.869-.552-.118.087-.273.2-.416.329-.484.41-.77.354-1.074-.211a1.241,1.241,0,0,0-.062-.112l-.726.453a.528.528,0,0,1-.825-.143l-.285-.354-.8.5a.521.521,0,0,1-.8-.143l-.037-.05C3.181,17.513,2.8,17.476,2.318,17.587ZM9.548,3.574V1.389C9.548,1.116,9.43,1,9.157,1h-7.7C1.114,1,1,1.11,1,1.47V15.837a.459.459,0,0,0,.18.416,1.421,1.421,0,0,0,1.409.292c.583-.161,1.061-.093,1.334.521a.36.36,0,0,0,.081.087h.037l.788-.49a.484.484,0,0,1,.664.093c.13.143.248.292.379.447l.621-.385c.621-.366.708-.348,1.086.223a.115.115,0,0,1,.074.037c.143-.118.292-.242.447-.36a.528.528,0,0,1,.751.037c.093.087.174.18.267.261.285.273.3.267.621-.031a3.2,3.2,0,0,1-.112-3.19A3.264,3.264,0,0,1,12.329,12V4.027c0-.428,0-.453-.459-.453Zm4.146,12.487a.856.856,0,0,0-.379-.77c-.223-.137-.472-.248-.708-.366a1.123,1.123,0,0,1-.354-.186.621.621,0,0,1-.186-.4c0-.081.2-.211.317-.211a3.519,3.519,0,0,1,.757.13c.217.056.416.05.5-.174s-.068-.372-.285-.434a1.731,1.731,0,0,0-.242-.062c-.18,0-.279-.093-.254-.3a.292.292,0,0,0-.317-.366c-.217,0-.279.155-.31.348a.366.366,0,0,1-.168.261.869.869,0,0,0-.621.788.925.925,0,0,0,.528.993c.261.137.528.236.788.366s.385.2.3.49a.428.428,0,0,1-.528.36,3.19,3.19,0,0,1-.621-.155.3.3,0,0,0-.428.161.521.521,0,0,0,.168.4.794.794,0,0,0,.372.143c.174.037.261.112.254.31s.106.372.329.354.273-.168.292-.372a.379.379,0,0,1,.161-.273,1.167,1.167,0,0,0,.639-1.036Z" transform="translate(0.008 0.003)" fill="#878787"/>
      <path id="Trazado_140" data-name="Trazado 140" d="M9.2,15.963H6.35a.681.681,0,0,1-.279-.035A.582.582,0,0,1,5.85,15.6c0-.111.14-.239.25-.3a.7.7,0,0,1,.337-.035h5.586a.751.751,0,0,1,.367.047.471.471,0,0,1,.2.332c0,.1-.145.227-.256.291a.623.623,0,0,1-.314,0Z" transform="translate(-2.026 -5.762)" fill="#878787"/>
      <path id="Trazado_141" data-name="Trazado 141" d="M9.249,10.51h2.909c.3,0,.477.14.471.349s-.163.343-.477.343H6.392a1.565,1.565,0,0,1-.233,0,.337.337,0,0,1,.035-.669H9.249Z" transform="translate(-2.036 -3.969)" fill="#878787"/>
      <path id="Trazado_142" data-name="Trazado 142" d="M9.2,8.812H6.434a1.594,1.594,0,0,1-.291,0,.314.314,0,0,1-.314-.343.332.332,0,0,1,.337-.332,1.967,1.967,0,0,1,.262,0H12.27a.629.629,0,0,1,.32.3.3.3,0,0,1-.256.349,1.46,1.46,0,0,1-.32.035Z" transform="translate(-2.017 -3.071)" fill="#878787"/>
      <path id="Trazado_143" data-name="Trazado 143" d="M9.187,13.581H6.278c-.244,0-.431-.052-.46-.32S6,12.9,6.284,12.9h5.987a.326.326,0,0,1,.326.337.314.314,0,0,1-.332.332h-.582Z" transform="translate(-2.012 -4.872)" fill="#878787"/>
      <path id="Trazado_144" data-name="Trazado 144" d="M14.533,18h.815a.343.343,0,0,1,.39.337.32.32,0,0,1-.349.349H13.643a.314.314,0,0,1-.314-.349.308.308,0,0,1,.332-.326h.867Z" transform="translate(-4.951 -6.796)" fill="#878787"/>
      <path id="Trazado_145" data-name="Trazado 145" d="M6.467,18a1.263,1.263,0,0,1,.355.029.535.535,0,0,1,.268.314.419.419,0,0,1-.244.326,2.129,2.129,0,0,1-.768,0,.384.384,0,0,1-.227-.308.518.518,0,0,1,.262-.32A.809.809,0,0,1,6.467,18Z" transform="translate(-2.194 -6.795)" fill="#878787"/>
      <path id="Trazado_146" data-name="Trazado 146" d="M9.9,17.987a1.2,1.2,0,0,1,.337.029.582.582,0,0,1,.256.326.384.384,0,0,1-.221.308,2.444,2.444,0,0,1-.8,0,.384.384,0,0,1-.221-.308.582.582,0,0,1,.273-.355A.96.96,0,0,1,9.9,17.987Z" transform="translate(-3.472 -6.786)" fill="#878787"/>
      <path id="Trazado_147" data-name="Trazado 147" d="M6.483,20.389a.947.947,0,0,1,.314,0,.646.646,0,0,1,.308.291.273.273,0,0,1-.239.361,2.287,2.287,0,0,1-.745,0A.465.465,0,0,1,5.86,20.7a.285.285,0,0,1,.308-.3h.32Z" transform="translate(-2.197 -7.695)" fill="#878787"/>
      <path id="Trazado_148" data-name="Trazado 148" d="M9.86,21.106a1.305,1.305,0,0,1-.337,0,.663.663,0,0,1-.273-.349.285.285,0,0,1,.308-.308h.582a.308.308,0,0,1,.343.308.32.32,0,0,1-.3.361A1.937,1.937,0,0,0,9.86,21.106Z" transform="translate(-3.471 -7.724)" fill="#878787"/>
      <path id="Trazado_149" data-name="Trazado 149" d="M4.3,15.23c.308.052.4.192.367.384s-.18.332-.367.262a.442.442,0,0,1-.244-.343C4.072,15.41,4.24,15.306,4.3,15.23Z" transform="translate(-1.528 -5.753)" fill="#878787"/>
      <path id="Trazado_150" data-name="Trazado 150" d="M4.7,13.188c-.128.081-.262.233-.384.221A.454.454,0,0,1,4,13.1a.268.268,0,0,1,.314-.314c.134,0,.25.169.372.262Z" transform="translate(-1.501 -4.829)" fill="#878787"/>
      <path id="Trazado_151" data-name="Trazado 151" d="M4.245,10.58c.3.041.407.151.4.361a.291.291,0,0,1-.326.3A.285.285,0,0,1,4,10.894,1.266,1.266,0,0,1,4.245,10.58Z" transform="translate(-1.501 -3.996)" fill="#878787"/>
      <path id="Trazado_152" data-name="Trazado 152" d="M4.7,8.511c-.116.087-.221.221-.349.25A.279.279,0,0,1,4,8.458a.291.291,0,0,1,.326-.32c.128,0,.244.157.361.239Z" transform="translate(-1.504 -3.073)" fill="#878787"/>
    </g>
  </g>
</svg>
