<svg xmlns="http://www.w3.org/2000/svg" width="102.803" height="93.416" viewBox="0 0 102.803 93.416">
  <g id="Grupo_447" data-name="Grupo 447" transform="translate(1116.392 -1035.672)">
    <path id="Trazado_528" data-name="Trazado 528" d="M-1082.628,1123.185c-1.182,0-2.365-.009-3.548-.017h-.21c-.761-.006-1.156-.433-1.208-1.308-.008-.126-.007-.252-.006-.379v-15.13q0-22.81,0-45.621c0-2.769,1.061-4.7,3.158-5.727a6.883,6.883,0,0,1,2.906-.578c7.451-.025,14.788-.028,20.983-.028l34.326,0q8.47,0,16.938-.009a5.315,5.315,0,0,1,5.352,3.425,7.209,7.209,0,0,1,.536,2.742c.028,18.412.025,37.133.023,55.237v5.743c0,1.2-.383,1.63-1.464,1.635q-1.045,0-2.091,0l-3.081,0q-.892,0-1.784,0a3.551,3.551,0,0,1-3.593-2.469,1.321,1.321,0,0,0-.756-.618.852.852,0,0,0-.34-.062c-.066,0-.135.005-.2.011-.048,0-.1.009-.143.009h-16.089q-20.611,0-41.219-.011a1.5,1.5,0,0,0-1.637,1.043,3.1,3.1,0,0,1-2.87,2.059C-1079.844,1123.17-1081.108,1123.185-1082.628,1123.185Zm-2.775-23.335v.143q0,.846,0,1.69c0,1.539-.01,3.131.022,4.7a3.153,3.153,0,0,0,.468,1.583,23.008,23.008,0,0,1,3.612,9.537c.089.639.149,1.28.213,1.959.03.318.06.643.094.975l.032.317,1.173,0c.171,0,.34,0,.508,0a1.8,1.8,0,0,0,1.337-.446,1.813,1.813,0,0,0,.333-1.43c-.147-2.083-.306-3.974-.485-5.778a22.937,22.937,0,0,0-5.412-12.926,2.407,2.407,0,0,0-.8-.547c-.111-.055-.222-.109-.325-.171l-.24-.144Zm79.044-.461c-.089.052-.186.1-.283.142a1.782,1.782,0,0,0-.744.519l-.333.454a41.166,41.166,0,0,0-2.408,3.536c-2.632,4.507-2.919,9.656-3.2,14.635l-.035.625a1.612,1.612,0,0,0,1.016,1.339,3.415,3.415,0,0,0,.87.1c.194,0,.391-.01.591-.019s.384-.019.578-.019h.34l.013-.34a23.261,23.261,0,0,1,4.051-12.641,1.348,1.348,0,0,0,.276-.73c.011-1.879.011-3.758.01-5.636v-1.559l-.5-.547Zm-78.979,21.329h1.981l.013-.339a17.949,17.949,0,0,0-1.333-6.618l-.661-1.191Zm77.412-.019h2.272v-6.863l-.935-.142Zm-72.752-20.687a29.2,29.2,0,0,1,5.11,17.133v.353h60.143v-.353a29.209,29.209,0,0,1,5.064-17.069l.379-.552h-.67c-.3,0-.579,0-.844,0-.238,0-.465,0-.685,0-.286,0-.561,0-.835-.013-.905-.032-1.392-.491-1.37-1.293.026-.956.773-1.17,1.4-1.181.238,0,.477-.006.724-.006l1.347,0h.747l-.474-.577c-4-4.867-7.041-10.619-9.562-18.1a97.547,97.547,0,0,1-4.262-20.365l-.055-.479-.44.2c-6.257,2.8-13.073,5.4-20.511,5.405-7.485,0-14.292-2.6-20.536-5.4l-.438-.2-.057.477c-2.6,21.823-8.724,32.025-13.766,38.474l-.446.571h.724c.256,0,.5,0,.726-.01.206,0,.4-.009.6-.009a7.082,7.082,0,0,1,.771.035c.537.058.805.191.877.3a1.784,1.784,0,0,1,.329,1.211,1.482,1.482,0,0,1-.853.847,5.163,5.163,0,0,1-1.033.085c-.254,0-.518-.01-.8-.019-.317-.011-.65-.023-1.008-.023h-.671Zm4.043-42.163c-.03.469-.059.931-.085,1.394a85.267,85.267,0,0,1-2.527,17.056c-1,3.761-2.247,7.683-4.634,10.877a7.753,7.753,0,0,0-1.537,5.518c.052.884.04,1.795.027,2.76-.006.469-.013.959-.013,1.476v.6l.523-.289c.182-.1.351-.18.505-.253a2.761,2.761,0,0,0,.843-.527,42.63,42.63,0,0,0,8.476-13.3,82.666,82.666,0,0,0,5.635-20.436c.189-1.224.34-2.427.5-3.7.073-.578.147-1.162.225-1.751l.052-.4h-7.933Zm54.407-.617c.008.144.013.276.018.4.01.253.019.491.047.728a91.8,91.8,0,0,0,5.124,22.066,46.7,46.7,0,0,0,9.509,15.986,2.776,2.776,0,0,0,.863.549c.15.072.311.148.48.243l.5.279.029-.569c.011-.2.02-.37.029-.512.016-.261.026-.443.027-.626,0-.449,0-.9.006-1.347.008-1.377.016-2.8-.027-4.2a3.578,3.578,0,0,0-.526-1.608c-.393-.7-.821-1.385-1.234-2.05a31.394,31.394,0,0,1-2.1-3.762c-3.023-6.833-4.005-14.182-4.567-20.469-.1-1.166-.182-2.359-.257-3.513-.035-.545-.071-1.091-.109-1.638l-.023-.328h-7.8Zm-58.608-.411c-.292,0-.577,0-.863,0-2.42.018-3.7,1.4-3.7,4q-.007,10.334,0,20.669v1.748c0,.148.015.295.03.442.006.061.012.121.018.182l.1,1.236.566-1.1c4.459-8.684,5.361-18.388,5.857-26.8l.022-.374Zm68.827.422c-.819,5.861,2.82,22.877,5.726,26.776l.586.786.049-.979c.007-.13.014-.243.02-.343.012-.195.021-.347.021-.5q0-11.085,0-22.17a7.011,7.011,0,0,0-.078-1.072,2.981,2.981,0,0,0-2.564-2.773,10.7,10.7,0,0,0-1.337-.073c-.348,0-.7.011-1.045.021s-.685.02-1.026.02h-.307Zm-47.927.3a37.659,37.659,0,0,0,14.458,3.021,37.168,37.168,0,0,0,14.394-3.022l-.137-.678H-1059.8Z" transform="translate(-18.627 -12.112)" fill="#d53e27"/>
    <path id="Trazado_529" data-name="Trazado 529" d="M-1007.429,1141.148c-.335,0-.681-.012-1.029-.035a12.628,12.628,0,0,1-9.073-4.943,1.7,1.7,0,0,0-1.194-.567h-.138c-6.419,0-11.8-4.894-12.8-11.638a14.1,14.1,0,0,1,3.565-11.95c.647-.724,1.326-1.441,1.983-2.135.917-.968,1.865-1.97,2.748-3.01a3.089,3.089,0,0,1,2.286-1.27c1.166,0,2.281.969,2.911,2.529.069.169.144.335.244.553l.4.9,2.007-2.189c1.271-1.385,2.5-2.729,3.73-4.075a4.139,4.139,0,0,1,2.855-1.547c.087,0,.173-.007.259-.007a3.711,3.711,0,0,1,3.365,1.976,1.138,1.138,0,0,0,.959.667,1.543,1.543,0,0,0,.557-.121,3.966,3.966,0,0,1,1.419-.27,3.95,3.95,0,0,1,3.606,2.568c.119.273.514.784.93.784l.048,0q.24-.023.47-.023a3.9,3.9,0,0,1,3.508,2.191,2.042,2.042,0,0,0,.222.3.811.811,0,0,0,.163.147l.143.113.2-.032a8.186,8.186,0,0,1,2.287-.39,3.154,3.154,0,0,1,2.909,1.629c1.53,2.422,1.1,4.567-1.4,6.955l-.257.246.247.255c.072.074.136.142.194.2a4.311,4.311,0,0,0,.337.338,4.884,4.884,0,0,1,1.788,3.354,4.436,4.436,0,0,1-1.231,3.28c-3.113,3.448-7.25,7.965-11.65,12.321A10.35,10.35,0,0,1-1007.429,1141.148Zm-2.279-27.3a1.17,1.17,0,0,0-.807.465c-1.526,1.695-3.065,3.337-4.236,4.578a12.391,12.391,0,0,0-3.526,8.508v.031l0,.03c.035.238.068.476.1.714.071.51.144,1.037.238,1.555a10.766,10.766,0,0,0,10.406,9.055h0a9.481,9.481,0,0,0,6.759-2.818c2.717-2.674,5.336-5.555,7.868-8.342q1.534-1.688,3.077-3.367a1.9,1.9,0,0,0,.007-2.749,1.643,1.643,0,0,0-1.2-.515,1.91,1.91,0,0,0-1.365.609c-.231.238-.454.487-.677.736a12.848,12.848,0,0,1-1.168,1.2,1.854,1.854,0,0,1-1.049.485.589.589,0,0,1-.068,0,1.479,1.479,0,0,1-.818-.744,1.2,1.2,0,0,1,.307-1.371c1.8-1.929,3.693-3.98,5.638-6.1a5.245,5.245,0,0,0,.746-.984,1.909,1.909,0,0,0,.183-1.466,1.85,1.85,0,0,0-.9-1.111,1.757,1.757,0,0,0-.846-.232,2.247,2.247,0,0,0-1.563.835c-.806.853-1.6,1.715-2.4,2.579l-1.068,1.155q-.357.385-.712.772c-.567.618-1.154,1.256-1.747,1.862a1.179,1.179,0,0,1-.819.41,1.046,1.046,0,0,1-.731-.348,1.236,1.236,0,0,1,.011-1.744c.192-.244.4-.469.628-.706.078-.083.156-.166.233-.25q.493-.534.991-1.063c.706-.754,1.435-1.535,2.132-2.327a2.149,2.149,0,0,0,.617-1.635,2.136,2.136,0,0,0-.937-1.462,1.472,1.472,0,0,0-.884-.32,2.275,2.275,0,0,0-1.591.915q-2.51,2.7-5.016,5.408c-1.194,1.289-3.631,3.918-3.631,3.918a3.856,3.856,0,0,1-.545.521,1.1,1.1,0,0,1-.634.233.969.969,0,0,1-.62-.252,1.15,1.15,0,0,1-.344-1.363,3.3,3.3,0,0,1,.381-.687l.067-.1a3.741,3.741,0,0,0,.34-3.782C-1008.953,1114.4-1009.2,1113.845-1009.708,1113.845Zm-11.785-5.583c-.612.686-1.236,1.363-1.861,2.041-1.424,1.545-2.9,3.142-4.216,4.844a10.538,10.538,0,0,0-1.922,8.052,10.939,10.939,0,0,0,6.862,9.24,9.718,9.718,0,0,0,1.758.495c.291.063.593.128.907.208l.562.143-.131-.565c-.044-.19-.079-.346-.109-.481-.055-.248-.095-.424-.143-.6-1.3-4.749-.677-8.91,1.852-12.37a64.553,64.553,0,0,1,5.673-6.455q.48-.5.958-1a2.143,2.143,0,0,1,1.576-.693,2.589,2.589,0,0,1,2.068,1.142,13.7,13.7,0,0,1,.876,1.487c.136.253.273.51.42.769l.158.278.292-.13a.4.4,0,0,1,.042-.015.647.647,0,0,0,.289-.167q.576-.618,1.156-1.233c1.095-1.166,2.227-2.371,3.306-3.6a1.914,1.914,0,0,0-.091-2.69,1.672,1.672,0,0,0-1.2-.567,2.009,2.009,0,0,0-1.4.7c-.324.328-.64.671-.946,1-.333.361-.677.734-1.026,1.083a1.07,1.07,0,0,1-.757.319.964.964,0,0,1-.64-.236,1.358,1.358,0,0,1-.251-1.6c.052-.106.114-.205.176-.306a3.54,3.54,0,0,0,.24-.43,1.966,1.966,0,0,0-.029-1.733,1.82,1.82,0,0,0-1.3-.94,1.793,1.793,0,0,0-.309-.028,2.172,2.172,0,0,0-1.589.894q-4.21,4.559-8.434,9.1l-.051.054a4.812,4.812,0,0,1-.607.586,1.157,1.157,0,0,1-.687.256,1.014,1.014,0,0,1-.727-.335,1.292,1.292,0,0,1-.137-1.6c.084-.148.177-.29.269-.432.1-.161.209-.322.3-.49a3.333,3.333,0,0,0-.7-4.053l-.261-.21Z" transform="translate(-54.708 -42.763)" fill="#d53e27"/>
    <path id="Trazado_530" data-name="Trazado 530" d="M-926.42,1090.049a.657.657,0,0,1-.492-.246.921.921,0,0,1,.091-1.27c1.234-1.351,2.521-2.731,3.657-3.949a.845.845,0,0,1,.559-.32.438.438,0,0,1,.243.079,2.252,2.252,0,0,1,.484.536c.043.057.086.116.131.174-.036.074-.069.145-.1.213a2.129,2.129,0,0,1-.284.5c-1.259,1.4-2.552,2.78-3.65,3.952A.914.914,0,0,1-926.42,1090.049Z" transform="translate(-122.458 -31.439)" fill="#d53e27"/>
    <path id="Trazado_531" data-name="Trazado 531" d="M-937.09,1086.953c-.457-.006-.743-.391-.747-1-.013-1.854-.012-3.687,0-5.446,0-.593.311-1.007.746-1.007.65,0,.731.715.735,1.021.01.632.007,1.266.005,1.9l0,.821,0,.838c0,.627,0,1.255-.006,1.882-.005.3-.085,1-.723,1Z" transform="translate(-115.522 -28.354)" fill="#d53e27"/>
    <path id="Trazado_532" data-name="Trazado 532" d="M-954.745,1090.088a.723.723,0,0,1-.5-.271q-1.121-1.205-2.24-2.414l-.69-.744c-.088-.1-.177-.189-.266-.283-.205-.216-.418-.441-.61-.669a.841.841,0,0,1-.034-1.129.755.755,0,0,1,.564-.287.565.565,0,0,1,.414.182c1.4,1.464,2.789,2.987,3.978,4.3a1.235,1.235,0,0,1,.144.345c.021.063.042.128.067.2-.038.051-.076.1-.113.155a2.149,2.149,0,0,1-.47.534A.44.44,0,0,1-954.745,1090.088Z" transform="translate(-101.653 -31.457)" fill="#d53e27"/>
    <path id="Trazado_533" data-name="Trazado 533" d="M-1079.374,1262.539a7.275,7.275,0,0,1,3.951,5.043,13.614,13.614,0,0,1,.161,2.615.93.93,0,0,1-1.059.978q-6.036.013-12.073,0c-.776,0-1.067-.355-1.107-1.181a7.456,7.456,0,0,1,4.176-7.47,4.427,4.427,0,0,1-1.156-3.848,4.1,4.1,0,0,1,1.47-2.472,4.275,4.275,0,0,1,5.474.156C-1077.845,1257.9-1077.77,1260.192-1079.374,1262.539Zm2.344,6.8a5.282,5.282,0,0,0-2.994-5.092,5.066,5.066,0,0,0-5.422.432,5.3,5.3,0,0,0-2.248,4.632h1.508c.027-.705-.055-1.484.852-1.536,1.087-.062.848.935,1.034,1.548h3.882c.124-.672-.044-1.546.939-1.548,1.011,0,.873.876.938,1.564Zm-2.921-9.842a2.4,2.4,0,0,0-2.435-2.451,2.425,2.425,0,0,0-2.4,2.411,2.443,2.443,0,0,0,2.443,2.452A2.427,2.427,0,0,0-1079.95,1259.492Z" transform="translate(-17.391 -142.095)" fill="#d53e27"/>
    <path id="Trazado_534" data-name="Trazado 534" d="M-1039.956,1262.539a7.274,7.274,0,0,1,3.951,5.043,13.575,13.575,0,0,1,.161,2.615.93.93,0,0,1-1.058.978q-6.036.013-12.073,0c-.776,0-1.067-.355-1.107-1.181a7.456,7.456,0,0,1,4.176-7.47,4.427,4.427,0,0,1-1.156-3.848,4.1,4.1,0,0,1,1.47-2.472,4.275,4.275,0,0,1,5.474.156C-1038.428,1257.9-1038.353,1260.192-1039.956,1262.539Zm2.344,6.8a5.282,5.282,0,0,0-2.994-5.092,5.066,5.066,0,0,0-5.422.432,5.3,5.3,0,0,0-2.248,4.632h1.508c.028-.705-.055-1.484.852-1.536,1.087-.062.848.935,1.034,1.548H-1041c.124-.672-.044-1.546.939-1.548,1.011,0,.873.876.938,1.564Zm-2.921-9.842a2.4,2.4,0,0,0-2.435-2.451,2.425,2.425,0,0,0-2.4,2.411,2.444,2.444,0,0,0,2.443,2.452A2.427,2.427,0,0,0-1040.533,1259.492Z" transform="translate(-42.895 -142.095)" fill="#d53e27"/>
    <path id="Trazado_535" data-name="Trazado 535" d="M-1000.54,1262.539a7.275,7.275,0,0,1,3.951,5.043,13.579,13.579,0,0,1,.161,2.615.93.93,0,0,1-1.059.978q-6.036.013-12.073,0c-.776,0-1.067-.355-1.107-1.181a7.456,7.456,0,0,1,4.176-7.47,4.427,4.427,0,0,1-1.156-3.848,4.1,4.1,0,0,1,1.47-2.472,4.275,4.275,0,0,1,5.474.156C-999.011,1257.9-998.936,1260.192-1000.54,1262.539Zm2.345,6.8a5.282,5.282,0,0,0-2.994-5.092,5.066,5.066,0,0,0-5.423.432,5.3,5.3,0,0,0-2.248,4.632h1.508c.028-.705-.055-1.484.852-1.536,1.087-.062.848.935,1.034,1.548h3.883c.124-.672-.044-1.546.939-1.548,1.011,0,.873.876.938,1.564Zm-2.921-9.842a2.4,2.4,0,0,0-2.435-2.451,2.425,2.425,0,0,0-2.4,2.411,2.444,2.444,0,0,0,2.443,2.452A2.427,2.427,0,0,0-1001.116,1259.492Z" transform="translate(-68.398 -142.095)" fill="#d53e27"/>
    <path id="Trazado_536" data-name="Trazado 536" d="M-961.123,1262.539a7.274,7.274,0,0,1,3.951,5.043,13.57,13.57,0,0,1,.161,2.615.93.93,0,0,1-1.058.978q-6.037.013-12.073,0c-.776,0-1.067-.355-1.107-1.181a7.456,7.456,0,0,1,4.176-7.47,4.427,4.427,0,0,1-1.156-3.848,4.1,4.1,0,0,1,1.47-2.472,4.275,4.275,0,0,1,5.474.156C-959.594,1257.9-959.519,1260.192-961.123,1262.539Zm2.345,6.8a5.282,5.282,0,0,0-2.994-5.092,5.066,5.066,0,0,0-5.423.432,5.3,5.3,0,0,0-2.248,4.632h1.508c.028-.705-.055-1.484.852-1.536,1.087-.062.848.935,1.034,1.548h3.883c.124-.672-.044-1.546.939-1.548,1.011,0,.873.876.938,1.564Zm-2.921-9.842a2.4,2.4,0,0,0-2.435-2.451,2.425,2.425,0,0,0-2.4,2.411,2.444,2.444,0,0,0,2.443,2.452A2.427,2.427,0,0,0-961.7,1259.492Z" transform="translate(-93.901 -142.095)" fill="#d53e27"/>
    <path id="Trazado_537" data-name="Trazado 537" d="M-920.68,1262.539a7.275,7.275,0,0,1,3.951,5.043,13.6,13.6,0,0,1,.161,2.615.93.93,0,0,1-1.059.978q-6.037.013-12.073,0c-.776,0-1.067-.355-1.108-1.181a7.457,7.457,0,0,1,4.176-7.47,4.427,4.427,0,0,1-1.156-3.848,4.1,4.1,0,0,1,1.47-2.472,4.274,4.274,0,0,1,5.474.156C-919.152,1257.9-919.077,1260.192-920.68,1262.539Zm2.345,6.8a5.283,5.283,0,0,0-2.994-5.092,5.066,5.066,0,0,0-5.423.432,5.3,5.3,0,0,0-2.248,4.632h1.508c.028-.705-.054-1.484.852-1.536,1.087-.062.848.935,1.034,1.548h3.883c.125-.672-.044-1.546.94-1.548,1.011,0,.873.876.938,1.564Zm-2.921-9.842a2.4,2.4,0,0,0-2.435-2.451,2.425,2.425,0,0,0-2.4,2.411,2.444,2.444,0,0,0,2.444,2.452A2.427,2.427,0,0,0-921.256,1259.492Z" transform="translate(-120.068 -142.095)" fill="#d53e27"/>
    <path id="Trazado_538" data-name="Trazado 538" d="M-880.237,1262.539a7.274,7.274,0,0,1,3.951,5.043,13.575,13.575,0,0,1,.162,2.615.93.93,0,0,1-1.059.978q-6.037.013-12.073,0c-.776,0-1.067-.355-1.108-1.181a7.457,7.457,0,0,1,4.176-7.47,4.425,4.425,0,0,1-1.156-3.848,4.1,4.1,0,0,1,1.47-2.472,4.274,4.274,0,0,1,5.474.156C-878.709,1257.9-878.634,1260.192-880.237,1262.539Zm2.344,6.8a5.282,5.282,0,0,0-2.994-5.092,5.066,5.066,0,0,0-5.422.432,5.3,5.3,0,0,0-2.248,4.632h1.508c.028-.705-.054-1.484.852-1.536,1.088-.062.848.935,1.034,1.548h3.882c.124-.672-.044-1.546.939-1.548,1.011,0,.873.876.938,1.564Zm-2.921-9.842a2.4,2.4,0,0,0-2.435-2.451,2.425,2.425,0,0,0-2.4,2.411,2.444,2.444,0,0,0,2.443,2.452A2.427,2.427,0,0,0-880.814,1259.492Z" transform="translate(-146.235 -142.095)" fill="#d53e27"/>
    <path id="Trazado_539" data-name="Trazado 539" d="M-1116.392,1050.592a4.628,4.628,0,0,1,4.681-4.594,4.664,4.664,0,0,1,4.677,4.7,4.751,4.751,0,0,1-4.739,4.675A4.711,4.711,0,0,1-1116.392,1050.592Zm4.645,2.857a2.782,2.782,0,0,0,2.821-2.784,2.825,2.825,0,0,0-2.815-2.813,2.872,2.872,0,0,0-2.8,2.766A2.825,2.825,0,0,0-1111.748,1053.449Z" transform="translate(0 -6.681)" fill="#d53e27"/>
    <path id="Trazado_540" data-name="Trazado 540" d="M-838.8,1220.734c0,1.448,0,2.9,0,4.345,0,.547-.095,1.054-.726,1.221-.684.182-1.168-.278-1.178-1.165-.019-1.612-.006-3.224-.006-4.836,0-1.284,0-2.568,0-3.853,0-.661.158-1.226.927-1.307.606-.064.974.461.977,1.333.005,1.421,0,2.842,0,4.263Z" transform="translate(-178.365 -116.114)" fill="#d53e27"/>
    <path id="Trazado_541" data-name="Trazado 541" d="M-1080.722,1035.672a1.4,1.4,0,0,1,1.431,1.37,1.45,1.45,0,0,1-1.389,1.433,1.409,1.409,0,0,1-1.413-1.39A1.36,1.36,0,0,1-1080.722,1035.672Z" transform="translate(-22.192)" fill="#d53e27"/>
    <path id="Trazado_542" data-name="Trazado 542" d="M-831.722,1114.672a1.4,1.4,0,0,1,1.431,1.37,1.45,1.45,0,0,1-1.389,1.433,1.409,1.409,0,0,1-1.413-1.39A1.36,1.36,0,0,1-831.722,1114.672Z" transform="translate(-183.298 -51.114)" fill="#d53e27"/>
    <path id="Trazado_543" data-name="Trazado 543" d="M-1113.722,1210.672a1.4,1.4,0,0,1,1.431,1.37,1.45,1.45,0,0,1-1.389,1.433,1.409,1.409,0,0,1-1.413-1.39A1.36,1.36,0,0,1-1113.722,1210.672Z" transform="translate(-0.84 -113.228)" fill="#d53e27"/>
  </g>
</svg>
