<svg id="Grupo_446" data-name="Grupo 446" xmlns="http://www.w3.org/2000/svg" width="89.5" height="87.647" viewBox="0 0 89.5 87.647">
  <path id="Trazado_520" data-name="Trazado 520" d="M-2354.021,297.155a6.78,6.78,0,0,1,6.207,5.512,6.656,6.656,0,0,1-5.96,7.75c-.749.053-1.5.085-2.251.085q-36.587.007-73.174.007a8.609,8.609,0,0,1-5.032-1.148,6.754,6.754,0,0,1-2.825-6.968,6.632,6.632,0,0,1,5.82-5.171c.108-.01.214-.031.348-.05-.552-.812-1.118-1.58-1.615-2.39a7.178,7.178,0,0,1-.933-3.842q-.014-21.3,0-42.6c0-4.236,2.457-7.423,6.432-8.15a28.8,28.8,0,0,1,4.829-.144c1.744-.018,1.688-.026,2.3-1.622,2.92-7.581,8.366-12.217,16.42-13.381,7.608-1.1,13.928,1.545,18.866,7.432a18.128,18.128,0,0,1,3.576,6.721c.2.715.54.863,1.216.86,6.627-.023,13.257.109,19.88-.058a8.1,8.1,0,0,1,8.423,8.26c-.032,14.256-.008,28.512-.014,42.769a7.974,7.974,0,0,1-2.38,5.78,1.119,1.119,0,0,0-.143.2C-2354.04,297.023-2354.028,297.056-2354.021,297.155ZM-2382.4,255.3a6.748,6.748,0,0,1,.546.466q5.913,5.9,11.816,11.816a9.2,9.2,0,0,1,.939,1.06,5.526,5.526,0,0,1,.54,6.055,5.589,5.589,0,0,1-5.55,3.228,5.981,5.981,0,0,1-4.092-1.962q-6.027-6.024-12.043-12.059a.884.884,0,0,0-1.2-.245,20.1,20.1,0,0,1-18.965-.377,19.164,19.164,0,0,1-9.007-10.005c-.6-1.5-1.011-3.083-1.509-4.628h-3.865v37h5.635c.011-.258.027-.449.027-.64,0-3.425,0-6.851,0-10.276,0-1.085.312-1.391,1.389-1.406.947-.013,1.894-.01,2.84,0,1.16.01,1.478.334,1.48,1.491,0,1.073,0,2.146,0,3.2h1.917c0-.37,0-.671,0-.972,0-2.089,0-4.177,0-6.266,0-.919.323-1.248,1.248-1.265s1.838-.005,2.757,0c1.48,0,1.681.2,1.682,1.69,0,1.634,0,3.268,0,4.932h1.874c.127-1.792.171-1.832,1.946-1.832.78,0,1.559,0,2.339,0,1.2.006,1.468.273,1.469,1.473q0,4.511,0,9.023v.864h38.044V263.829h-.944c-2.144,0-4.288.006-6.432-.012-.61-.005-1.131-.235-1.13-.949s.506-.931,1.132-.934c1.253-.006,2.507,0,3.76,0h3.606v-1.944h-.958c-2.757,0-5.514.006-8.271,0-.89,0-1.352-.518-1.12-1.215.2-.587.675-.656,1.209-.655,2.757.007,5.514,0,8.271,0h.87V256.2h-1.042q-5.431,0-10.861,0c-.931,0-1.4-.332-1.34-.99.068-.8.634-.918,1.319-.916,3.676.015,7.352.007,11.028.007h.9v-1.889h-2.125c-3.9,0-7.8.006-11.7-.005-.9,0-1.417-.4-1.343-1.017.094-.779.7-.915,1.35-.931.167,0,.334,0,.5,0h13.326v-1.819h-20.009Zm-38.456-13.386c-1.391,0-2.781.029-4.169-.006a6.189,6.189,0,0,0-6.5,6.523c.08,14.09.032,28.181.035,42.271a12.21,12.21,0,0,0,.049,1.251,5.8,5.8,0,0,0,5.144,5.084c2.945.14,5.9.087,8.849.094,4.957.011,9.914,0,14.87,0,1.292,0,1.523.233,1.524,1.5,0,.766,0,1.532,0,2.259h17.092a1.265,1.265,0,0,0,.072-.24q.011-1.044.015-2.088c.005-1.127.233-1.372,1.344-1.426.25-.012.5,0,.752,0,7.268,0,14.537-.079,21.8.031a6.3,6.3,0,0,0,6.574-6.54c-.084-14.09-.031-28.181-.044-42.272a7.3,7.3,0,0,0-.241-2.059,5.912,5.912,0,0,0-6.145-4.378q-9.858-.014-19.716,0h-.7c.088,1.613.171,3.15.259,4.757h20.087c1.533,0,1.712.18,1.712,1.739q0,21.22,0,42.439c0,1.338-.194,1.528-1.553,1.528h-65.413c-1.376,0-1.6-.225-1.6-1.576q0-20.885,0-41.771c0-2.36,0-2.36,2.353-2.36h3.324C-2421,245.019-2420.93,243.52-2420.854,241.911Zm-4.929,57.158c-1.75,0-3.367-.057-4.978.012a4.726,4.726,0,0,0-4.4,5.878,4.816,4.816,0,0,0,5.043,3.619q37.67,0,75.34,0c.195,0,.39,0,.584-.007a4.778,4.778,0,0,0,4.573-4.644,4.637,4.637,0,0,0-3.945-4.75c-1.81-.183-3.652-.037-5.57-.037,0,.824.009,1.652,0,2.479-.013.882-.336,1.245-1.19,1.249q-5.011.02-10.023,0c-.841,0-1.138-.341-1.151-1.185s0-1.706,0-2.577H-2382c0,.9,0,1.759,0,2.615a1,1,0,0,1-1.108,1.152q-9.313.006-18.626,0c-.932,0-1.171-.279-1.183-1.218-.011-.852,0-1.7,0-2.534h-10.5c0,.917,0,1.776,0,2.636a.99.99,0,0,1-1.065,1.116q-5.1.022-10.19,0a1.01,1.01,0,0,1-1.113-1.155C-2425.777,300.855-2425.782,300-2425.782,299.069Zm43.754-40.934c-.633-.59-1.272-1.164-1.886-1.765-.965-.945-.978-1.007-.321-2.214a18.485,18.485,0,0,0,2.244-8.436,18.7,18.7,0,0,0-12.2-17.925,18.521,18.521,0,0,0-21.177,6.262,18.182,18.182,0,0,0-2.745,17.289,17.668,17.668,0,0,0,8.244,10.076,18.2,18.2,0,0,0,9.976,2.458,17.692,17.692,0,0,0,8.328-2.331,1.327,1.327,0,0,1,1.961.311c.585.724,1.233,1.4,1.811,2.045Zm-42.83,29.527a17.891,17.891,0,0,1-.012,1.851c-.089.82.234,1.009,1.024,1.008q31.4-.032,62.808-.017h.89v-2.842Zm41.307-19.765c2.328,2.335,4.615,4.728,7.014,7a3.872,3.872,0,0,0,5.768-.279c1.4-1.585,1.243-3.812-.453-5.542-2.181-2.223-4.4-4.409-6.6-6.608a.81.81,0,0,0-.172-.124Zm-24.212,17.781V271.511h-1.766v14.167Zm-7.656,0V275.29c-.27-.017-.463-.036-.656-.04-1.152-.02-1.153-.019-1.153,1.094q0,4.212,0,8.424v.91Zm13.5-.031h1.792v-9.4h-1.792Zm-13.455,13.455h-8.466v1.8h8.466Zm54.273,1.819v-1.806h-8.451v1.806Zm-44.674-15.276h1.841v-7.477h-1.841Zm20.715-19.273,5.468-5.482-1.014-1.063-5.441,5.455Zm-26.5,19.3v-5.618h-1.808v5.618Z" transform="translate(2437.216 -222.862)" fill="#d53e27"/>
  <path id="Trazado_521" data-name="Trazado 521" d="M-2223.56,227.34a5.688,5.688,0,0,1-5.178,5.952,5.734,5.734,0,0,1-6.193-5.486,5.8,5.8,0,0,1,5.145-5.863A5.69,5.69,0,0,1-2223.56,227.34Zm-1.879.253a3.791,3.791,0,0,0-3.828-3.78A3.794,3.794,0,0,0-2233,227.6a3.791,3.791,0,0,0,3.865,3.83A3.84,3.84,0,0,0-2225.439,227.593Z" transform="translate(2302.541 -220.943)" fill="#d53e27"/>
  <path id="Trazado_522" data-name="Trazado 522" d="M-2412.51,239.936a3.82,3.82,0,0,1-3.75,3.795,3.78,3.78,0,0,1-3.828-3.867,3.854,3.854,0,0,1,3.794-3.756A3.8,3.8,0,0,1-2412.51,239.936Zm-5.68.011a1.9,1.9,0,0,0,1.847,1.87,1.9,1.9,0,0,0,1.934-1.957,1.9,1.9,0,0,0-1.9-1.809A1.826,1.826,0,0,0-2418.19,239.947Z" transform="translate(2425.813 -230.392)" fill="#d53e27"/>
  <path id="Trazado_523" data-name="Trazado 523" d="M-2430.043,261.8a1.4,1.4,0,0,1-1.459-1.379,1.428,1.428,0,0,1,1.367-1.467,1.449,1.449,0,0,1,1.473,1.376A1.45,1.45,0,0,1-2430.043,261.8Z" transform="translate(2433.413 -245.603)" fill="#d53e27"/>
  <path id="Trazado_524" data-name="Trazado 524" d="M-2190.7,247.545a1.4,1.4,0,0,1-1.385-1.448,1.386,1.386,0,0,1,1.421-1.4,1.461,1.461,0,0,1,1.418,1.437A1.486,1.486,0,0,1-2190.7,247.545Z" transform="translate(2274.008 -236.11)" fill="#d53e27"/>
  <path id="Trazado_525" data-name="Trazado 525" d="M-2256.206,238.93a1.351,1.351,0,0,1-1.444-1.365,1.467,1.467,0,0,1,1.372-1.475,1.507,1.507,0,0,1,1.474,1.409A1.389,1.389,0,0,1-2256.206,238.93Z" transform="translate(2317.66 -230.381)" fill="#d53e27"/>
  <path id="Trazado_526" data-name="Trazado 526" d="M-2387.333,221.846a1.335,1.335,0,0,1-1.414-1.394,1.43,1.43,0,0,1,1.394-1.446,1.481,1.481,0,0,1,1.436,1.428A1.392,1.392,0,0,1-2387.333,221.846Z" transform="translate(2404.946 -219.006)" fill="#d53e27"/>
  <path id="Trazado_527" data-name="Trazado 527" d="M-2375,254.794a15.811,15.811,0,0,1,15.792-15.8,15.865,15.865,0,0,1,15.792,15.818,15.877,15.877,0,0,1-15.778,15.766A15.823,15.823,0,0,1-2375,254.794Zm26.5-8.824c-.86.616-1.662,1.161-2.424,1.758a.884.884,0,0,0-.283.68q.287,2.431.667,4.85c.032.21.278.547.432.551,1.548.041,3.1.025,4.726.025A13.723,13.723,0,0,0-2348.508,245.97Zm-24.545,9.809a13.757,13.757,0,0,0,3.154,7.852,6,6,0,0,1,1.256-1.006c1.4-.591,1.534-1.518,1.168-2.876a29.558,29.558,0,0,1-.538-3.97Zm4.973-1.981c.3-1.893.6-3.669.859-5.448a.7.7,0,0,0-.2-.561c-.809-.616-1.648-1.193-2.474-1.782-1.791,1.875-3.343,5.866-3.02,7.791Zm19.583,9.8a13.684,13.684,0,0,0,3.1-7.809h-4.97c-.3,1.859-.6,3.66-.863,5.465a.709.709,0,0,0,.246.553C-2350.2,262.4-2349.379,262.965-2348.5,263.593Zm-3.839-9.791-.664-4.814-5.185,1.191V253.8Zm-13.13,6.779,5.24-1.205v-3.593h-5.864Zm5.239-6.789v-3.6l-5.238-1.2c-.207,1.594-.411,3.167-.624,4.807Zm2.015,5.586,5.238,1.2c.2-1.6.4-3.171.6-4.762h-5.843Zm-6.7,3.07c1.079,2.57,2.033,4.917,4.676,6.055v-7.2Zm11.351-15.334c-1.019-2.562-2.015-4.862-4.654-6.073v7.211Zm-6.652-6.076c-2.681,1.234-3.69,3.52-4.674,6.084l4.674,1.136Zm2.027,20.289v7.18c2.62-1.213,3.624-3.506,4.62-6.054Zm-10.4,3.666a12.009,12.009,0,0,0,3.994,2.555l-2.06-4.039Zm14.688,2.534.092.161,4.063-2.593-2.059-1.563Zm-14.842-23.049,2.091,1.554,2.068-3.976-.085-.174Zm16.926,1.57,1.95-1.485a11.368,11.368,0,0,0-3.98-2.49Z" transform="translate(2395.795 -232.315)" fill="#d53e27"/>
</svg>
