<svg xmlns="http://www.w3.org/2000/svg" width="98.024" height="61.528" viewBox="0 0 98.024 61.528">
  <g id="Layer_2" data-name="Layer 2" transform="translate(0.001)">
    <g id="Layer_1" data-name="Layer 1" transform="translate(-0.001)">
      <path id="Trazado_487" data-name="Trazado 487" d="M38.13,43.16H34.179L57.514,20.89,66.5,29.421V25.474h8.411v11.34a1.377,1.377,0,0,0,.463,1.115c1.686,1.566,3.337,3.164,5.016,4.746a3.237,3.237,0,0,0,.428.274l-.108.174H77.264v28.9h15.2V62.872a9,9,0,0,1-7.79-1.157,8.839,8.839,0,0,1-3.43-4.476,8.963,8.963,0,0,1,3.773-10.545,26.72,26.72,0,0,1-.3-3.538A8.913,8.913,0,0,1,98.67,36.234a8.94,8.94,0,0,1,3.58,9.7.841.841,0,0,0,.193.691,8.637,8.637,0,0,1,2.751,8.874,8.5,8.5,0,0,1-6.675,6.536,23.523,23.523,0,0,1-3.681.289v9.723H104.7v2.315H32.89V72.082h5.24ZM74.907,72.039V41.721a2.628,2.628,0,0,0,0-.579,1.52,1.52,0,0,0-.278-.749q-8.261-7.921-16.552-15.819c-.177-.174-.386-.336-.567-.517L39.9,40.864c.772-.085.567.359.567.633V72h9.221V52.262H65.763V72.039ZM99.295,47.169a7.049,7.049,0,0,0,.864-4.869A6.578,6.578,0,0,0,97.5,38.171a6.679,6.679,0,0,0-7.991.2,6.347,6.347,0,0,0-2.249,3.3,7.081,7.081,0,0,0,.988,6c-.586.278-1.111.509-1.624.772A6.648,6.648,0,0,0,91.5,60.727c1.007-.286,1.007-.286,1.007-1.35a7.577,7.577,0,0,1,0-.837,1.227,1.227,0,0,0-.432-1.073c-1.157-1.157-2.269-2.354-3.422-3.507-.575-.575-1.211-1.088-1.767-1.586L88.55,50.58l3.982,3.735V43.094h2.3v7.284l.15.085,1.663-1.786,1.7,1.663c-.463.436-.93.849-1.37,1.285-.714.714-1.69,1.327-2.045,2.2a8.86,8.86,0,0,0-.12,3.052v2.855a6.667,6.667,0,0,0,7.69-3.376A6.9,6.9,0,0,0,99.295,47.169ZM63.413,54.546H52.019V72.039H63.413V64.454H60.434V62.139h2.979Zm9.148-19.338V27.762H68.814V31.45a.432.432,0,0,0,.116.286C70.111,32.893,71.3,34.012,72.561,35.208Z" transform="translate(-20.2 -12.83)" fill="#d53e27"/>
      <path id="Trazado_488" data-name="Trazado 488" d="M140.83,11.484v1.13a.586.586,0,0,1-.583.586H133.1a2.944,2.944,0,0,0-2.936,2.936v1.057a.586.586,0,0,1-.586.586h-1.158a.563.563,0,0,1-.559-.552c-.027-1.624-.193-3.241.957-4.63a4.075,4.075,0,0,1,3.087-1.674c2.766-.058,5.537-.027,8.345-.023A.586.586,0,0,1,140.83,11.484Z" transform="translate(-78.514 -6.688)" fill="#d53e27"/>
      <rect id="Rectángulo_323" data-name="Rectángulo 323" width="15.198" height="2.211" rx="1.105" transform="translate(63.165 8.056)" fill="#d53e27"/>
      <path id="Trazado_489" data-name="Trazado 489" d="M167.62,13.219h0A2.215,2.215,0,0,1,169.839,11h3.827a2.215,2.215,0,0,1-2.219,2.219Z" transform="translate(-102.947 -6.756)" fill="#d53e27"/>
      <path id="Trazado_490" data-name="Trazado 490" d="M146.922,23.18H143.87V21h5.251a2.2,2.2,0,0,1-2.2,2.18Z" transform="translate(-88.36 -12.898)" fill="#d53e27"/>
      <path id="Trazado_491" data-name="Trazado 491" d="M83.6,59.062A5.016,5.016,0,0,1,88.6,54a5.089,5.089,0,0,1,5.085,5.081A5.045,5.045,0,0,1,83.6,59.062ZM88.615,56.3a5.186,5.186,0,1,1,.015.019Z" transform="translate(-51.344 -33.165)" fill="#d53e27"/>
      <path id="Trazado_492" data-name="Trazado 492" d="M218.009,15.23a6.59,6.59,0,1,1-6.559,6.559A6.59,6.59,0,0,1,218.009,15.23Zm-.1,10.954a4.387,4.387,0,1,0-4.248-4.522A4.387,4.387,0,0,0,217.909,26.184Z" transform="translate(-129.866 -9.354)" fill="#d53e27"/>
      <path id="Trazado_493" data-name="Trazado 493" d="M0,122.293a5.475,5.475,0,0,1,5.579-5.425,5.5,5.5,0,0,1-.147,11A5.5,5.5,0,0,1,0,122.293Zm8.743.12a3.218,3.218,0,0,0-3.26-3.314,3.256,3.256,0,0,0-3.287,3.222,3.291,3.291,0,0,0,3.283,3.33,3.245,3.245,0,0,0,3.264-3.237Z" transform="translate(0.001 -71.777)" fill="#d53e27"/>
      <path id="Trazado_494" data-name="Trazado 494" d="M195.848,0a1.64,1.64,0,0,1,1.609,1.678,1.582,1.582,0,0,1-1.651,1.609,1.651,1.651,0,0,1-1.636-1.651A1.717,1.717,0,0,1,195.848,0Z" transform="translate(-119.253)" fill="#d53e27"/>
      <path id="Trazado_495" data-name="Trazado 495" d="M17.927,78.682a1.6,1.6,0,0,1-1.678,1.586A1.651,1.651,0,0,1,14.64,78.59a1.7,1.7,0,0,1,1.7-1.59A1.644,1.644,0,0,1,17.927,78.682Z" transform="translate(-8.991 -47.291)" fill="#d53e27"/>
      <path id="Trazado_496" data-name="Trazado 496" d="M247.124,68.41a1.682,1.682,0,0,1,1.7,1.605,1.651,1.651,0,0,1-1.605,1.682,1.613,1.613,0,0,1-1.682-1.59A1.647,1.647,0,0,1,247.124,68.41Z" transform="translate(-150.802 -42.015)" fill="#d53e27"/>
      <path id="Trazado_497" data-name="Trazado 497" d="M60.816,22.57A1.624,1.624,0,0,1,62.467,24.2a1.593,1.593,0,0,1-1.605,1.659,1.675,1.675,0,0,1-1.682-1.613A1.705,1.705,0,0,1,60.816,22.57Z" transform="translate(-36.346 -13.861)" fill="#d53e27"/>
    </g>
  </g>
</svg>
