<svg xmlns="http://www.w3.org/2000/svg" width="67.267" height="67.817" viewBox="0 0 67.267 67.817">
  <g id="Layer_2" data-name="Layer 2" transform="translate(0.147)">
    <g id="Layer_1" data-name="Layer 1" transform="translate(-0.147)">
      <g id="Dlbf55">
        <path id="Trazado_410" data-name="Trazado 410" d="M70.868,61.405V66.64c0,1.057-.123,1.177-1.187,1.177H29.673c-1.026,0-1.193-.177-1.193-1.193V8.35c0-1.01.18-1.19,1.2-1.19h4.686V.91c.005-.728.192-.91.921-.91H69.9a1.316,1.316,0,0,1,.849.323q4.314,4.255,8.579,8.556a1.334,1.334,0,0,1,.318.867q.028,8.53.013,17.052c0,.928-.372,1.208-1.252.905a12.97,12.97,0,0,0-10.218.474A12.743,12.743,0,0,0,60.833,38.1,13.121,13.121,0,0,0,71.161,52.916a12.687,12.687,0,0,0,6.522-.315c.285-.092.567-.192.854-.272.726-.208,1.1.067,1.126.828v7.117c0,.9-.228,1.126-1.149,1.126H71.656ZM35.812,59.849h42.3V54.029A14.409,14.409,0,0,1,65.731,52.2a14.076,14.076,0,0,1-6.445-10.654,13.854,13.854,0,0,1,4.1-11.7c4.1-4.129,9.11-5.27,14.752-3.814V10.241H70.735c-1.149,0-1.323-.18-1.323-1.352V2.157c0-.226-.018-.451-.028-.669H35.812Zm33.579,1.557h-33.6c-1.349,0-1.429-.077-1.429-1.4V8.653h-4.36V66.311H69.391ZM76.731,8.72l-5.8-5.876V8.72Z" transform="translate(-21.138)" fill="#d53e27"/>
        <path id="Trazado_411" data-name="Trazado 411" d="M182.8,121.883A11.833,11.833,0,1,1,171.081,110,11.892,11.892,0,0,1,182.8,121.883Zm-4.07,6.794a10.564,10.564,0,0,0,2.565-6.112h-1.282c-.492,0-.872-.195-.9-.708-.023-.569.395-.757.9-.769H181.3a10.566,10.566,0,0,0-2.565-6.114c-.351.39-.641.769-.987,1.082a.654.654,0,0,1-1.026-.028.685.685,0,0,1,.046-1.026c.318-.313.651-.613,1.026-.964a10.214,10.214,0,0,0-6.117-2.534c0,.48-.015.885,0,1.282.021.513-.205.88-.708.877s-.741-.356-.731-.867v-1.311a10.228,10.228,0,0,0-6.109,2.565c.333.3.605.544.869.79.387.359.6.769.167,1.216s-.821.19-1.159-.156c-.28-.285-.533-.595-.831-.931a10.189,10.189,0,0,0-2.536,6.124h1.311c.467,0,.816.223.821.713s-.336.757-.849.757H160.6a10.259,10.259,0,0,0,2.608,6.155c.323-.387.587-.728.877-1.041a.726.726,0,1,1,1.028,1.005c-.323.305-.692.562-1.08.869a10.391,10.391,0,0,0,6.188,2.613V130.76a.718.718,0,0,1,.769-.769c.495,0,.667.326.667.769v1.413a10.625,10.625,0,0,0,6.155-2.606c-.374-.326-.71-.59-1.026-.887a.711.711,0,0,1-.072-1.077.7.7,0,0,1,1.077.044C178.129,127.977,178.408,128.323,178.726,128.677Z" transform="translate(-118.281 -81.785)" fill="#d53e27"/>
        <path id="Trazado_412" data-name="Trazado 412" d="M241.024,62.873a3.639,3.639,0,1,1-1.086-2.578A3.642,3.642,0,0,1,241.024,62.873Zm-5.817.044a2.162,2.162,0,1,0,.632-1.559,2.182,2.182,0,0,0-.632,1.559Z" transform="translate(-173.756 -44.054)" fill="#d53e27"/>
        <path id="Trazado_413" data-name="Trazado 413" d="M3.043,62.227a2.89,2.89,0,1,1,2.075-.844A2.908,2.908,0,0,1,3.043,62.227Zm1.444-2.893a1.447,1.447,0,0,0-2.893-.046,1.475,1.475,0,0,0,1.423,1.5,1.459,1.459,0,0,0,1.47-1.454Z" transform="translate(-0.074 -41.943)" fill="#d53e27"/>
        <path id="Trazado_414" data-name="Trazado 414" d="M2.083,202.846a1.085,1.085,0,0,1-1.116,1.064,1.1,1.1,0,1,1,.056-2.188,1.085,1.085,0,0,1,1.059,1.123Z" transform="translate(0.145 -149.986)" fill="#d53e27"/>
        <path id="Trazado_415" data-name="Trazado 415" d="M1.088,16.476A1.1,1.1,0,0,1,.9,18.654a1.1,1.1,0,1,1,.192-2.18Z" transform="translate(0.147 -12.242)" fill="#d53e27"/>
        <path id="Trazado_416" data-name="Trazado 416" d="M238.755,103.087a1.08,1.08,0,1,1-.314-.769A1.082,1.082,0,0,1,238.755,103.087Z" transform="translate(-175.868 -75.841)" fill="#d53e27"/>
        <path id="Trazado_417" data-name="Trazado 417" d="M231.99,16.5a1.093,1.093,0,1,1-1.111,1.075A1.093,1.093,0,0,1,231.99,16.5Z" transform="translate(-171.629 -12.268)" fill="#d53e27"/>
        <path id="Trazado_418" data-name="Trazado 418" d="M241.665,200.007a1.126,1.126,0,0,1-1.1,1.1,1.1,1.1,0,0,1-1.085-1.1,1.069,1.069,0,0,1,1.087-1.085,1.1,1.1,0,0,1,1.1,1.087Z" transform="translate(-178.024 -147.904)" fill="#d53e27"/>
        <path id="Trazado_419" data-name="Trazado 419" d="M217.736,252.327a1.1,1.1,0,0,1-1.126-1.062,1.144,1.144,0,0,1,1.077-1.126,1.092,1.092,0,0,1,1.108,1.077,1.057,1.057,0,0,1-1.059,1.11Z" transform="translate(-161.02 -185.988)" fill="#d53e27"/>
        <path id="Trazado_420" data-name="Trazado 420" d="M15.381,99.11a1.136,1.136,0,0,1,1.123,1.077A1.09,1.09,0,0,1,15.43,101.3a1.059,1.059,0,0,1-1.11-1.059A1.1,1.1,0,0,1,15.381,99.11Z" transform="translate(-10.609 -73.692)" fill="#d53e27"/>
        <path id="Trazado_421" data-name="Trazado 421" d="M62.73,159.375v-2.367c0-.68.256-.939.916-.944q2.37-.018,4.734,0c.657,0,.926.277.931.941q.015,2.365,0,4.734c0,.633-.256.9-.9.9q-2.4.015-4.8,0c-.657,0-.875-.233-.885-.9C62.722,160.955,62.73,160.167,62.73,159.375Zm1.5-1.8v3.549h3.539V157.58Z" transform="translate(-46.602 -116.032)" fill="#d53e27"/>
        <path id="Trazado_422" data-name="Trazado 422" d="M62.73,91.015V88.648c0-.672.223-.905.875-.91q2.4-.015,4.8,0c.636,0,.9.256.905.893q.023,2.4,0,4.8c0,.616-.29.885-.918.887q-2.365.015-4.734,0c-.669,0-.916-.256-.926-.934C62.722,92.593,62.73,91.805,62.73,91.015ZM67.777,92.8v-3.57H64.241V92.8Z" transform="translate(-46.602 -65.23)" fill="#d53e27"/>
        <path id="Trazado_423" data-name="Trazado 423" d="M66.014,190.381h2.431a.739.739,0,0,1,.839.821q.018,2.462,0,4.924a.759.759,0,0,1-.859.818H63.552a.764.764,0,0,1-.862-.869V191.2c0-.577.287-.849.877-.834C64.393,190.394,65.2,190.381,66.014,190.381ZM64.193,195.4H67.75v-3.555H64.193Z" transform="translate(-46.575 -141.545)" fill="#d53e27"/>
        <path id="Trazado_424" data-name="Trazado 424" d="M66.02,60.063H63.584c-.564,0-.831-.256-.834-.813V54.377a.768.768,0,0,1,.859-.877h4.809c.631,0,.91.272.916.9v4.809a.76.76,0,0,1-.875.857C67.646,60.055,66.833,60.063,66.02,60.063ZM67.782,58.6V55.036H64.248V58.6Z" transform="translate(-46.619 -39.779)" fill="#d53e27"/>
        <path id="Trazado_425" data-name="Trazado 425" d="M62.736,125.218v-2.431a.764.764,0,0,1,.864-.867h4.873a.778.778,0,0,1,.859.885v4.8c0,.628-.272.887-.91.892q-2.4.021-4.8,0c-.649,0-.862-.238-.872-.913C62.729,126.8,62.736,126.008,62.736,125.218Zm5.05,1.8v-3.591H64.234v3.591Z" transform="translate(-46.608 -90.652)" fill="#d53e27"/>
        <path id="Trazado_426" data-name="Trazado 426" d="M103.556,72.036h-8.4c-.669,0-1.069-.282-1.064-.754s.413-.769,1.075-.754h16.85c.444,0,.875.049,1.026.567s-.256.931-.972.931h-8.525Z" transform="translate(-69.921 -52.44)" fill="#d53e27"/>
        <path id="Trazado_427" data-name="Trazado 427" d="M102.906,106.27H95.4c-.192,0-.439.064-.564-.028-.256-.187-.587-.462-.59-.7s.346-.513.6-.682c.151-.1.415-.036.628-.036h15c.905,0,1.282.213,1.264.728s-.369.721-1.282.721Z" transform="translate(-70.041 -77.923)" fill="#d53e27"/>
        <path id="Trazado_428" data-name="Trazado 428" d="M101.11,208.843h-5.7c-.192,0-.439.062-.564-.033-.256-.182-.595-.457-.592-.69s.351-.513.6-.7c.108-.085.331-.028.513-.028h11.985c.444.036.739.256.733.723a.672.672,0,0,1-.736.71c-.6.013-1.2,0-1.8,0Z" transform="translate(-70.041 -154.193)" fill="#d53e27"/>
        <path id="Trazado_429" data-name="Trazado 429" d="M100.46,62h5.183c.682,0,1.1.377.972.88s-.539.605-1,.605h-10.3a1.372,1.372,0,0,1-.826-.226c-.162-.136-.28-.582-.182-.708a1.334,1.334,0,0,1,.841-.513c1.321-.051,2.644-.018,3.967-.015h1.344Z" transform="translate(-70.057 -46.099)" fill="#d53e27"/>
        <path id="Trazado_430" data-name="Trazado 430" d="M100.35,174.7H95.221a.977.977,0,0,1-.554-.079c-.213-.174-.5-.451-.48-.657a1.154,1.154,0,0,1,.539-.672,1.362,1.362,0,0,1,.687-.067h10.112c.7.018,1.087.295,1.026.769-.074.6-.513.716-1.026.713H100.34Z" transform="translate(-69.994 -128.79)" fill="#d53e27"/>
        <path id="Trazado_431" data-name="Trazado 431" d="M100.358,97.728H95.3a1.254,1.254,0,0,1-.674-.11c-.2-.141-.433-.433-.41-.631a1.075,1.075,0,0,1,.495-.649,1.393,1.393,0,0,1,.687-.067h9.984c.192,0,.433-.056.564.038.256.177.6.441.6.675s-.328.513-.569.708c-.123.1-.372.041-.564.041Q102.879,97.728,100.358,97.728Z" transform="translate(-70.014 -71.569)" fill="#d53e27"/>
        <path id="Trazado_432" data-name="Trazado 432" d="M100.285,138.982h5.129c.19,0,.439-.036.557.064.221.187.513.469.5.7s-.321.492-.559.649c-.154.1-.415.051-.628.051H95.1c-.513,0-.957-.123-1-.731-.026-.457.359-.733,1-.733Z" transform="translate(-69.926 -103.333)" fill="#d53e27"/>
        <path id="Trazado_433" data-name="Trazado 433" d="M98.794,200.349H95.075c-.649,0-1.026-.282-.977-.746.062-.564.454-.705.964-.7h7.563c.513,0,.931.141.934.718s-.405.736-.918.733C101.358,200.344,100.076,200.349,98.794,200.349Z" transform="translate(-69.924 -147.889)" fill="#d53e27"/>
        <path id="Trazado_434" data-name="Trazado 434" d="M98.372,166.117h-3.26c-.513,0-.946-.151-1-.741-.046-.451.356-.746.99-.746h6.648c.513,0,.949.136,1,.736.038.457-.354.744-.987.749C100.631,166.123,99.5,166.117,98.372,166.117Z" transform="translate(-69.933 -122.408)" fill="#d53e27"/>
        <path id="Trazado_435" data-name="Trazado 435" d="M98.618,130.49h3.39c.651,0,1.026.274,1,.733-.051.608-.487.723-1.01.721H95.087c-.667,0-1.044-.256-1-.726.059-.595.48-.733,1.01-.728C96.271,130.5,97.446,130.49,98.618,130.49Z" transform="translate(-69.918 -97.024)" fill="#d53e27"/>
        <path id="Trazado_436" data-name="Trazado 436" d="M190.19,147.835c.836-.562,1.667-1.121,2.5-1.677.159-.108.339-.3.487-.277a1.44,1.44,0,0,1,.91.323.9.9,0,0,1-.185.859c-1.077.8-2.193,1.539-3.334,2.249a1.039,1.039,0,0,1-.934-.09c-1.459-1.026-2.883-2.124-4.311-3.206a.681.681,0,0,1-.169-1.059.761.761,0,0,1,1.134-.062c1.108.831,2.211,1.67,3.319,2.506C189.79,147.535,189.98,147.673,190.19,147.835Z" transform="translate(-137.495 -107.57)" fill="#d53e27"/>
      </g>
    </g>
  </g>
</svg>
