<svg id="Editar" xmlns="http://www.w3.org/2000/svg" width="62.678" height="19" viewBox="0 0 62.678 19">
  <text id="Editar-2" data-name="Editar" transform="translate(13.678)" fill="#d53e27" font-size="14" font-family="SegoeUI, Segoe UI" letter-spacing="0.05em"><tspan x="0" y="15">Editar</tspan></text>
  <g id="Layer_2" data-name="Layer 2" transform="translate(0 1.442)">
    <g id="Layer_1" data-name="Layer 1" transform="translate(0 -0.012)">
      <path id="Trazado_135" data-name="Trazado 135" d="M3.089,11.358h7.09c.289,0,.461.161.45.417a.383.383,0,0,1-.35.361H.833A.767.767,0,0,1,0,11.38a5.24,5.24,0,0,1,.122-.928c.094-.439.206-.872.317-1.311a3.89,3.89,0,0,1,.856-1.617C3.278,5.213,5.24,2.873,7.224.551A1.667,1.667,0,0,1,8.618-.005a2.328,2.328,0,0,1,2.039,2.223A1.867,1.867,0,0,1,10.2,3.457c-1.956,2.339-3.929,4.662-5.89,7a2.645,2.645,0,0,1-.978.739l-.261.133Zm.928-1.784,5-5.957L7.04,1.951,2.023,7.9Zm-.511.6-2-1.667a12,12,0,0,0-.745,2.862H.822a11.48,11.48,0,0,0,2.423-.984c.089-.072.167-.144.261-.211ZM7.579,1.362,9.546,3.029A1.278,1.278,0,0,0,9.852,2.4a1.284,1.284,0,0,0-.4-1.111A1.334,1.334,0,0,0,8.618.817a1.078,1.078,0,0,0-1.039.545Z" transform="translate(0 0.012)" fill="#d53e27"/>
    </g>
  </g>
</svg>
