<svg id="Layer_2" data-name="Layer 2" xmlns="http://www.w3.org/2000/svg" width="60.788" height="62.148" viewBox="0 0 60.788 62.148">
  <g id="Layer_1" data-name="Layer 1" transform="translate(0 0)">
    <g id="jznIRr">
      <path id="Trazado_454" data-name="Trazado 454" d="M10.387,45.29h47c1.2,0,1.328.126,1.328,1.3V91c0,1.185-.085,1.27-1.272,1.27H5.283A5.169,5.169,0,0,1,.032,87.378C.015,87.157,0,86.934,0,86.714Q0,66.026,0,45.336a5.19,5.19,0,1,1,10.361-.616C10.368,44.888,10.375,45.048,10.387,45.29ZM57.325,90.853V67.429H50.757c-.642,0-1-.271-1-.727s.371-.688,1.02-.7h6.532v-.683H50.548c-.446,0-.771-.2-.776-.659a.679.679,0,0,1,.79-.713H56.68c.216,0,.429-.019.676-.029,0-.242-.017-.41-.029-.652H50.706c-.485,0-.94-.126-.933-.7s.441-.7.94-.7h6.6v-.662H50.541c-.429,0-.771-.208-.771-.679s.337-.7.8-.708h6.8c-.019-.286-.032-.485-.046-.7H50.682c-.6,0-.969-.286-.919-.727.061-.538.439-.647.919-.645h6.641V51.555H10.407V53.61H37.514c.809,0,1.146.187,1.171.65s-.354.705-1.166.705H10.375V69.821c0,5.676-.012,11.352,0,17.026a5.375,5.375,0,0,1-1.263,3.635c-.085.1-.162.206-.3.376ZM9.011,83.483V45.355a6.522,6.522,0,0,0-.1-1.083,3.8,3.8,0,0,0-7.513.994V82.942c0,.15.015.3.024.485A5.448,5.448,0,0,1,9.011,83.483ZM57.329,46.749H10.4v3.335H57.329ZM5.182,90.877A3.783,3.783,0,1,0,1.4,87.094a3.783,3.783,0,0,0,3.783,3.783Z" transform="translate(0 -30.123)" fill="#d53e27"/>
      <path id="Trazado_455" data-name="Trazado 455" d="M80.534,28.486H95.616a3.453,3.453,0,1,1,.274,6.9c-.182.012-.364,0-.545,0q-15.05,0-30.1-.017a2.584,2.584,0,0,1-1.282-.388c-1.183-.727-2.329-1.522-3.485-2.3-.742-.485-.754-1-.027-1.5,1.212-.829,2.424-1.663,3.677-2.45a2.021,2.021,0,0,1,1.023-.242Q72.849,28.474,80.534,28.486ZM68.949,29.875v4.084H88.9V29.875Zm24.168.044v4.064c.969,0,1.907.036,2.831,0A2.038,2.038,0,0,0,97.9,32.044a1.939,1.939,0,0,0-1.7-2.087A22.942,22.942,0,0,0,93.117,29.919ZM61.872,31.93c1.726,1.134,3.245,2.729,5.6,1.939V29.844c-.7,0-1.364-.015-2.026,0a1.406,1.406,0,0,0-.683.158C63.794,30.624,62.842,31.274,61.872,31.93Zm28.46-2.067v4.076h1.3V29.863Z" transform="translate(-45.392 -21.579)" fill="#d53e27"/>
      <path id="Trazado_456" data-name="Trazado 456" d="M25.769,3.759a3.766,3.766,0,1,1,1.093,2.7,3.788,3.788,0,0,1-1.093-2.7ZM29.475,6.2a2.409,2.409,0,0,0,2.489-2.346A2.443,2.443,0,0,0,29.6,1.36a2.494,2.494,0,0,0-2.477,2.392A2.448,2.448,0,0,0,29.474,6.2Z" transform="translate(-19.523 0)" fill="#d53e27"/>
      <path id="Trazado_457" data-name="Trazado 457" d="M233.561,17.017a2.734,2.734,0,1,1-.8-1.963A2.76,2.76,0,0,1,233.561,17.017Zm-2.739-1.374a1.367,1.367,0,1,0,1.335,1.4A1.367,1.367,0,0,0,230.822,15.643Z" transform="translate(-172.773 -10.796)" fill="#d53e27"/>
      <path id="Trazado_458" data-name="Trazado 458" d="M3.913,2.847A1,1,0,0,1,4.955,3.853a1.035,1.035,0,0,1-1,1.062A1.081,1.081,0,0,1,2.89,3.892,1.04,1.04,0,0,1,3.913,2.847Z" transform="translate(-2.19 -2.156)" fill="#d53e27"/>
      <path id="Trazado_459" data-name="Trazado 459" d="M120.765,16.282a1.028,1.028,0,1,1,.729-.3,1.032,1.032,0,0,1-.729.3Z" transform="translate(-90.713 -10.774)" fill="#d53e27"/>
      <path id="Trazado_460" data-name="Trazado 460" d="M174.9,4.924a1.078,1.078,0,0,1-1.018-1.062,1.04,1.04,0,0,1,1.064-1,1,1,0,0,1,1,1.049A1.037,1.037,0,0,1,174.9,4.924Z" transform="translate(-131.739 -2.166)" fill="#d53e27"/>
      <path id="Trazado_461" data-name="Trazado 461" d="M47.775,43.742a1.045,1.045,0,0,1-1.025,1.023,1.011,1.011,0,0,1-1.04-1.023A1.028,1.028,0,0,1,46.732,42.7,1.064,1.064,0,0,1,47.775,43.742Z" transform="translate(-34.632 -32.351)" fill="#d53e27"/>
      <path id="Trazado_462" data-name="Trazado 462" d="M240.493,50.539a1.064,1.064,0,0,1-1.064-1.013,1.03,1.03,0,0,1,1.013-1.052,1,1,0,0,1,1.064.991,1.04,1.04,0,0,1-1.013,1.074Z" transform="translate(-181.402 -36.725)" fill="#d53e27"/>
      <path id="Trazado_463" data-name="Trazado 463" d="M91.6,145v-1.333H66.788V145h4.568c.7,0,.938.242.94.955v5.029c0,.674-.242.919-.914.921h-10.6c-.7,0-.94-.242-.945-.969q-.015-2.484,0-4.968c0-.742.242-.969.991-.969H65.39v-1.7c0-.911.15-1.064,1.045-1.066H78.458v-1.369h-4.53c-.7,0-.969-.242-.969-.948V134.83c0-.56.257-.87.841-.87H84.592a.724.724,0,0,1,.819.822v5.211c0,.64-.262.87-.969.875H79.924v1.369H90.99c2.062,0,2.041-.225,2.014,1.987V145h4.212c1.212,0,1.321.114,1.321,1.311v4.544c0,.841-.213,1.052-1.032,1.054H87.083c-.761,0-.986-.213-.989-.969v-4.968c0-.754.225-.969.969-.969C88.557,144.995,90.047,145,91.6,145Zm-17.207-9.643V139.4h9.58v-4.047Zm22.692,15.13V146.4H87.51v4.086Zm-35.811-.015h9.583V146.4H61.279Z" transform="translate(-45.33 -101.494)" fill="#d53e27"/>
      <path id="Trazado_464" data-name="Trazado 464" d="M77.088,239.37H96.353c.47,0,.8.211.788.713-.015.465-.342.652-.783.657H58.308c-.858,0-1.19-.189-1.188-.683s.317-.686,1.183-.686Z" transform="translate(-43.277 -181.357)" fill="#d53e27"/>
      <path id="Trazado_465" data-name="Trazado 465" d="M68.648,217.855H58.539a1.411,1.411,0,0,1-.654-.044c-.242-.131-.553-.39-.545-.587a1.138,1.138,0,0,1,.485-.7c.148-.109.427-.051.65-.051H78.832c.848,0,1.2.191,1.212.671s-.327.715-1.226.727Z" transform="translate(-43.443 -163.997)" fill="#d53e27"/>
      <path id="Trazado_466" data-name="Trazado 466" d="M68.681,227.932H78.86c.2,0,.46-.065.591.032a1.172,1.172,0,0,1,.533.683c.012.2-.3.465-.528.616-.143.095-.393.036-.594.036H58.385c-.182,0-.414.058-.533-.029-.242-.172-.528-.414-.555-.654-.019-.2.276-.485.485-.64.136-.1.39-.044.591-.044Z" transform="translate(-43.41 -172.675)" fill="#d53e27"/>
    </g>
  </g>
</svg>
