<svg xmlns="http://www.w3.org/2000/svg" width="69.989" height="67.605" viewBox="0 0 69.989 67.605">
  <g id="Layer_2" data-name="Layer 2" transform="translate(0.267 0.253)">
    <g id="Layer_1" data-name="Layer 1" transform="translate(-0.014 -0.003)">
      <g id="NaMGLp" transform="translate(0)">
        <path id="Trazado_394" data-name="Trazado 394" d="M9.905,39.977a4.987,4.987,0,0,1,3.238-.964,6.158,6.158,0,0,1,3.463,1.7L33.1,53.467c.531.4,1.051.82,1.622,1.27l3.717-2.886L53.55,40.179a4.758,4.758,0,0,1,6.055-.19V37.368q0-3.66-.04-7.325c0-2.309-.058-4.664-.04-7a4.939,4.939,0,0,1,6.783-4.785A4.7,4.7,0,0,1,69.418,22.3a7.693,7.693,0,0,1,.046,1.033V50.113a1.8,1.8,0,0,1-.577,1.472c-3.279,3.036-6.529,6.1-9.813,9.149q-4.127,3.867-8.283,7.723a1.6,1.6,0,0,0-.577,1.351c.035,1.293,0,2.592,0,3.891,0,.7-.214.935-.912.958H20.486c-1.1,0-1.247-.15-1.247-1.218V69.485a1.206,1.206,0,0,0-.306-.785c-4.1-3.844-8.208-7.666-12.307-11.5-2.015-1.893-4.064-3.8-6.1-5.7a1.57,1.57,0,0,1-.531-1.23q0-13.62,0-27.188a4.831,4.831,0,0,1,2.921-4.716A4.71,4.71,0,0,1,8.2,19.1a4.814,4.814,0,0,1,1.732,3.879q0,8.081-.04,16.2ZM48.765,69.416H42.311c-.485,0-.872-.162-.889-.716s.369-.727.849-.762H48.69a1.593,1.593,0,0,0,.958-.381c1.53-1.391,3.025-2.828,4.537-4.243Q60.9,57.04,67.617,50.76a1.27,1.27,0,0,0,.358-.825q.035-13.49,0-26.968a3.463,3.463,0,0,0-2.442-3.377,3.549,3.549,0,0,0-4.572,3.683c.081,5.074.063,10.154.11,15.227,0,1.53.1,3.059.2,4.583A4.514,4.514,0,0,1,59.94,46.91c-.693.646-1.38,1.3-2.078,1.945l-9.051,8.266c-.381.352-.756.525-1.154.127s-.329-.791.167-1.206l6.35-5.813c1.622-1.489,3.256-2.961,4.837-4.491a3.082,3.082,0,0,0-.45-4.618,3.186,3.186,0,0,0-4.15.277L38.669,53.577c-.877.675-1.732,1.374-2.678,2.107.635.485,1.154.906,1.732,1.31a1.674,1.674,0,0,1,.762,1.518c-.035,4.618,0,9.236,0,13.854v.768H48.817ZM33.52,55.672l-5.38-4.179q-5.94-4.618-11.891-9.2a13.028,13.028,0,0,0-2.211-1.547,3.082,3.082,0,0,0-3.844,1.085,3.129,3.129,0,0,0,.577,4.208c3.152,2.886,6.35,5.807,9.49,8.7.508.468,1.027.924,1.512,1.414a.687.687,0,0,1,.069,1.079.664.664,0,0,1-1.027,0c-.167-.162-.375-.294-.548-.45-3.533-3.244-7.094-6.482-10.621-9.755A4.526,4.526,0,0,1,8.231,42.8a7.787,7.787,0,0,0,.15-1.022q.035-3.654.046-7.319c0-3.735.075-7.5.046-11.21a4.878,4.878,0,0,0-.52-2.159,3.377,3.377,0,0,0-3.891-1.582A3.394,3.394,0,0,0,1.5,22.9V49.871a1.351,1.351,0,0,0,.4.872C4.4,53.1,6.921,55.464,9.42,57.773c3.325,3.111,6.667,6.2,9.957,9.345a2.661,2.661,0,0,0,2.113.8c1.876-.046,3.758,0,5.64,0,.508,0,.935.167.935.745s-.381.768-.918.75-1.212,0-1.818,0H20.711v3.74H31.038V58.674a1.8,1.8,0,0,1,.854-1.732C32.429,56.578,32.925,56.128,33.52,55.672ZM36.9,73.157a1.887,1.887,0,0,0,.046-.254V58.708a.745.745,0,0,0-.173-.52c-.664-.543-1.357-1.045-2.049-1.564-.577.462-1.154.924-1.732,1.322a1.062,1.062,0,0,0-.5,1.027V73.157Z" transform="translate(0.014 -7.552)" fill="#d53e27" stroke="#d53e27" stroke-width="0.5"/>
        <path id="Trazado_395" data-name="Trazado 395" d="M52.03,18.759a8.624,8.624,0,1,1,6.133-2.526,8.589,8.589,0,0,1-6.133,2.526ZM45,10.21a7.106,7.106,0,1,0,6.759-7.135A7.106,7.106,0,0,0,45,10.21Z" transform="translate(-18.387 -0.667)" fill="#d53e27" stroke="#d53e27" stroke-width="0.5"/>
        <path id="Trazado_396" data-name="Trazado 396" d="M54.384,39.2a8.612,8.612,0,1,1-11.239-8.185c.462-.144.906-.237,1.154.323s0,.82-.687,1.074a6.982,6.982,0,0,0-4.93,6.251,7.094,7.094,0,1,0,14.16.133c0-.364-.1-.727-.121-1.091a.727.727,0,1,1,1.443-.167C54.257,38.091,54.3,38.651,54.384,39.2Z" transform="translate(-15.701 -13.066)" fill="#d53e27" stroke="#d53e27" stroke-width="0.5"/>
        <path id="Trazado_397" data-name="Trazado 397" d="M73.081,32.451a8.814,8.814,0,0,1-8.583-5.49c-.2-.5-.167-.929.346-1.154s.86.11,1.045.577a6.99,6.99,0,0,0,3.9,4A7.083,7.083,0,0,0,77.607,18.9a6.927,6.927,0,0,0-6.049-2.032,1.975,1.975,0,0,0-.45.035.658.658,0,0,1-.75-.635.67.67,0,0,1,.629-.82,8.278,8.278,0,0,1,7.8,2.621,8.09,8.09,0,0,1,1.628,9.126A8.139,8.139,0,0,1,73.081,32.451Z" transform="translate(-27.212 -6.474)" fill="#d53e27" stroke="#d53e27" stroke-width="0.5"/>
        <path id="Trazado_398" data-name="Trazado 398" d="M21.174,12.673a4.422,4.422,0,0,1-.156-8.843,4.491,4.491,0,0,1,4.5,4.323,4.439,4.439,0,0,1-4.347,4.52ZM24.06,8.321A2.95,2.95,0,1,0,21.069,11.1,2.95,2.95,0,0,0,24.06,8.321Z" transform="translate(-7.041 -1.618)" fill="#d53e27" stroke="#d53e27" stroke-width="0.5"/>
        <path id="Trazado_399" data-name="Trazado 399" d="M73.468,57.07a2.886,2.886,0,0,1-3.013-2.742,2.95,2.95,0,1,1,3.013,2.742Zm1.4-2.967a1.535,1.535,0,0,0-1.524-1.449,1.489,1.489,0,0,0-1.42,1.483A1.443,1.443,0,0,0,73.4,55.6a1.472,1.472,0,0,0,1.466-1.5Z" transform="translate(-29.775 -21.632)" fill="#d53e27" stroke="#d53e27" stroke-width="0.5"/>
        <path id="Trazado_400" data-name="Trazado 400" d="M22.908,43.121a1.045,1.045,0,0,1-1.1-1.154A1.1,1.1,0,0,1,24,42.024a1.056,1.056,0,0,1-1.091,1.1Z" transform="translate(-9.208 -17.294)" fill="#d53e27" stroke="#d53e27" stroke-width="0.5"/>
        <path id="Trazado_401" data-name="Trazado 401" d="M116.163,1.073a1.114,1.114,0,0,1-1.079,1.154,1.154,1.154,0,0,1-1.154-1.091A1.091,1.091,0,0,1,115.038,0a1.068,1.068,0,0,1,1.126,1.074Z" transform="translate(-48.157 0.003)" fill="#d53e27" stroke="#d53e27" stroke-width="0.5"/>
        <path id="Trazado_402" data-name="Trazado 402" d="M8.629,6.226A1.079,1.079,0,0,1,7.584,7.38,1.154,1.154,0,0,1,6.43,6.324,1.154,1.154,0,0,1,7.5,5.169,1.091,1.091,0,0,1,8.629,6.226Z" transform="translate(-2.71 -2.184)" fill="#d53e27" stroke="#d53e27" stroke-width="0.5"/>
        <path id="Trazado_403" data-name="Trazado 403" d="M62.383,63.813a1.1,1.1,0,0,1-1.051,1.1A1.045,1.045,0,0,1,60.178,63.8,1.114,1.114,0,0,1,61.24,62.71,1.154,1.154,0,0,1,62.383,63.813Z" transform="translate(-25.432 -26.51)" fill="#d53e27" stroke="#d53e27" stroke-width="0.5"/>
        <path id="Trazado_404" data-name="Trazado 404" d="M80.325,6.263a1.1,1.1,0,1,1-1.117-1.088A1.1,1.1,0,0,1,80.325,6.263Z" transform="translate(-33.019 -2.186)" fill="#d53e27" stroke="#d53e27" stroke-width="0.5"/>
        <path id="Trazado_405" data-name="Trazado 405" d="M35.669,20.48a1.1,1.1,0,1,1-1.079,1.126A1.1,1.1,0,0,1,35.669,20.48Z" transform="translate(-14.615 -8.656)" fill="#d53e27" stroke="#d53e27" stroke-width="0.5"/>
        <path id="Trazado_406" data-name="Trazado 406" d="M98.259,40.79A1.091,1.091,0,0,1,97.1,41.9,1.154,1.154,0,0,1,96.06,40.79,1.1,1.1,0,0,1,97.214,39.7,1.068,1.068,0,0,1,98.259,40.79Z" transform="translate(-40.603 -16.781)" fill="#d53e27" stroke="#d53e27" stroke-width="0.5"/>
        <path id="Trazado_407" data-name="Trazado 407" d="M58.809,13.115l-1.253.2a1.2,1.2,0,0,0-.167-.341.8.8,0,0,0-.254-.19v.976a3.538,3.538,0,0,1,1.368.577,1.322,1.322,0,0,1,.444,1.045,1.42,1.42,0,0,1-.162.675,1.663,1.663,0,0,1-.421.514,1.639,1.639,0,0,1-.537.294,2.615,2.615,0,0,1-.7.11v.618h-.485v-.618a3.232,3.232,0,0,1-.8-.156,1.639,1.639,0,0,1-.531-.323,1.547,1.547,0,0,1-.346-.444,2.02,2.02,0,0,1-.179-.577l1.356-.162a1.258,1.258,0,0,0,.167.485.808.808,0,0,0,.335.26V14.876a6.534,6.534,0,0,1-.964-.329,1.31,1.31,0,0,1-.7-1.154,1.345,1.345,0,0,1,.421-1,1.859,1.859,0,0,1,1.247-.473V11.58h.491v.335a2.026,2.026,0,0,1,1.154.358A1.408,1.408,0,0,1,58.809,13.115Zm-2.17-.335a.635.635,0,0,0-.3.179.4.4,0,0,0-.081.248.416.416,0,0,0,.081.254.623.623,0,0,0,.3.185Zm.491,3.319a.768.768,0,0,0,.421-.214.491.491,0,0,0,.133-.329.433.433,0,0,0-.11-.289,1,1,0,0,0-.444-.248Z" transform="translate(-23.151 -4.894)" fill="#d53e27"/>
        <path id="Trazado_408" data-name="Trazado 408" d="M78.629,27.049l-1.206.2a1.333,1.333,0,0,0-.167-.323.762.762,0,0,0-.237-.179v.935a3.608,3.608,0,0,1,1.316.577,1.276,1.276,0,0,1,.433.993,1.357,1.357,0,0,1-.156.606,1.547,1.547,0,0,1-.4.5,1.634,1.634,0,0,1-.52.283,2.349,2.349,0,0,1-.67.11v.612h-.473v-.589a2.978,2.978,0,0,1-.773-.156,1.593,1.593,0,0,1-.514-.312,1.351,1.351,0,0,1-.329-.427,1.91,1.91,0,0,1-.179-.577l1.3-.127a1.362,1.362,0,0,0,.156.468.848.848,0,0,0,.329.248V28.729a6.442,6.442,0,0,1-.929-.312,1.229,1.229,0,0,1-.473-.427,1.2,1.2,0,0,1-.2-.716,1.27,1.27,0,0,1,.4-.964,1.807,1.807,0,0,1,1.2-.433V25.56h.473v.317a2,2,0,0,1,1.108.346A1.409,1.409,0,0,1,78.629,27.049Zm-2.084-.323a.577.577,0,0,0-.289.173.34.34,0,0,0-.081.237.375.375,0,0,0,.081.248.635.635,0,0,0,.289.179Zm.473,3.192a.785.785,0,0,0,.4-.2.479.479,0,0,0,.127-.317.444.444,0,0,0-.11-.283,1.091,1.091,0,0,0-.421-.237Z" transform="translate(-31.594 -10.804)" fill="#d53e27"/>
        <path id="Trazado_409" data-name="Trazado 409" d="M52.519,40.7l-1.391.219a1.4,1.4,0,0,0-.19-.369.883.883,0,0,0-.277-.208v1.085a3.966,3.966,0,0,1,1.518.635,1.489,1.489,0,0,1,.5,1.154,1.582,1.582,0,0,1-.179.75,1.859,1.859,0,0,1-.462.577,1.888,1.888,0,0,1-.577.335,3.158,3.158,0,0,1-.779.121v.7h-.543V44.98a3.532,3.532,0,0,1-.895-.179,1.83,1.83,0,0,1-.577-.358,1.789,1.789,0,0,1-.387-.491,2.419,2.419,0,0,1-.2-.635l1.512-.179a1.472,1.472,0,0,0,.179.537.987.987,0,0,0,.381.289V42.642a7.262,7.262,0,0,1-1.074-.358,1.483,1.483,0,0,1-.577-.5,1.4,1.4,0,0,1-.231-.82,1.472,1.472,0,0,1,.468-1.114,2.078,2.078,0,0,1,1.385-.5V39h.543v.369a2.309,2.309,0,0,1,1.281.4A1.593,1.593,0,0,1,52.519,40.7Zm-2.4-.375a.675.675,0,0,0-.335.2.41.41,0,0,0-.092.271.456.456,0,0,0,.092.289.681.681,0,0,0,.335.2ZM50.66,44a.9.9,0,0,0,.468-.237.531.531,0,0,0,.144-.364.491.491,0,0,0-.121-.323,1.2,1.2,0,0,0-.491-.277Z" transform="translate(-20.319 -16.486)" fill="#d53e27"/>
      </g>
    </g>
  </g>
</svg>
