<svg xmlns="http://www.w3.org/2000/svg" width="90.628" height="95.806" viewBox="0 0 90.628 95.806">
  <g id="Grupo_445" data-name="Grupo 445" transform="translate(2185.083 -30.57)">
    <path id="Trazado_498" data-name="Trazado 498" d="M-2133.084,73.394q16.974,0,33.947,0a6.432,6.432,0,0,1,6.629,4.977,8.094,8.094,0,0,1,.22,2.116q.016,33.143.007,66.286c0,4.318-2.75,7.058-7.1,7.062q-18.805.016-37.61.006c-5.86,0-11.721.044-17.581.047-4.018,0-8.036-.037-12.054-.048-4.355-.011-7.127-2.745-7.14-7.12-.02-6.611-.005-13.222-.005-19.832q0-23.138-.006-46.275a7.148,7.148,0,0,1,1.748-5.088,6.62,6.62,0,0,1,5.177-2.141Q-2149.968,73.412-2133.084,73.394Zm30.611,65.162v-.969q0-17.377.018-34.753c0-.808-.25-.981-1.016-.98q-29.571.031-59.142.016h-.911v41.7h10.313c-2.262-1.639-4.367-3.173-6.481-4.693-.5-.363-.987-.719-.734-1.445.247-.708.847-.73,1.464-.729,2.531.006,5.063-.022,7.593.018a1.107,1.107,0,0,0,1.314-.928c.723-2.45,1.549-4.87,2.339-7.3.188-.58.4-1.147,1.175-1.121.732.025.891.606,1.069,1.137.666,1.994,1.31,3.995,1.969,5.991.729,2.208.732,2.206,3.024,2.206q3.171,0,6.343,0c.579,0,1.151.029,1.387.711s-.184,1.051-.667,1.392q-.619.437-1.231.885c-1.734,1.264-3.467,2.531-5.349,3.9h37.461v-3.017h-23.626c-1.2,0-1.761-.328-1.756-1.024,0-.715.513-1.007,1.764-1.007h23.68Zm-37.433,7.095c.589,1.8,1.2,3.427,1.643,5.1.234.888.663,1.043,1.487,1.042q18.583-.038,37.166-.018c.3,0,.6.005.893-.018a4.45,4.45,0,0,0,4.377-4.75q0-29.17,0-58.341v-.992h-77.371v34.056q0,12.642,0,25.284a4.411,4.411,0,0,0,4.3,4.73c3.869.091,7.742.033,11.614.014a.773.773,0,0,0,.6-.351c.645-1.876,1.247-3.766,1.9-5.76h-10.648c-1.471,0-1.671-.2-1.671-1.625q0-24.257,0-48.513c0-1.578.169-1.748,1.723-1.748h61.736c1.538,0,1.738.2,1.738,1.761q0,24.167,0,48.334c0,1.6-.187,1.79-1.789,1.79h-37.705Zm15.055-60.132h30.489c0-2.074,0-4.092,0-6.11a2.021,2.021,0,0,0-.106-.516c-.645-2.344-2.25-3.495-4.927-3.5q-12.361-.009-24.723,0h-.728Zm-38.727,10.292c0,1.048.05,2.054-.016,3.054-.052.795.218.994,1,.993q29.554-.033,59.109-.019c.314,0,.628-.026.938-.039V95.811Zm-8.1-10.283h44.732V81.569h-44.732Zm44.72-6.048V75.393h-.777q-19.473,0-38.946,0a8.389,8.389,0,0,0-.981.044,4.365,4.365,0,0,0-3.947,4.04Zm-10.2,59.525-.073-.2c-1.872,0-3.745,0-5.617,0-1.255,0-1.529-.253-1.9-1.429-.569-1.832-1.185-3.649-1.852-5.69-.57,1.764-1.07,3.306-1.566,4.85-.768,2.391-.585,2.284-3.152,2.271-1.556-.007-3.113,0-4.892,0,.344.293.487.431.646.548,1.458,1.065,2.906,2.146,4.387,3.179a1.269,1.269,0,0,1,.537,1.616c-.235.705-.476,1.408-.7,2.116-.4,1.244-.789,2.49-1.252,3.957,1.7-1.232,3.187-2.309,4.673-3.39,1.3-.943,1.334-.941,2.62-.011,1.506,1.088,3.017,2.169,4.7,3.378-.145-.485-.221-.761-.308-1.032-.512-1.607-.97-3.235-1.561-4.813a1.5,1.5,0,0,1,.717-2.014C-2140.2,141.253-2138.69,140.117-2137.162,139Zm-13.957,12.673h9.035c-1.479-1.085-2.778-2.054-4.1-2.989a.773.773,0,0,0-.7-.061C-2148.259,149.583-2149.607,150.581-2151.119,151.677Z" transform="translate(-7.266 -27.513)" fill="#d53e27"/>
    <path id="Trazado_499" data-name="Trazado 499" d="M-1985.849,36.065a5.63,5.63,0,0,1-5.333,5.708,5.638,5.638,0,0,1-5.829-5.3,5.666,5.666,0,0,1,5.426-5.9A5.62,5.62,0,0,1-1985.849,36.065Zm-2.04.193a3.527,3.527,0,0,0-3.484-3.624A3.612,3.612,0,0,0-1995,36.152a3.648,3.648,0,0,0,3.477,3.577A3.505,3.505,0,0,0-1987.888,36.258Z" transform="translate(-120.853 0)" fill="#d53e27"/>
    <path id="Trazado_500" data-name="Trazado 500" d="M-2142.808,46.237a4.032,4.032,0,0,1-4.238,3.895,4.048,4.048,0,0,1-3.871-4.266,4.111,4.111,0,0,1,4.211-3.85A4.045,4.045,0,0,1-2142.808,46.237Zm-4.076,1.867a1.97,1.97,0,0,0,2.032-2,2,2,0,0,0-1.922-2.032,2.014,2.014,0,0,0-2.093,1.963A2.013,2.013,0,0,0-2146.884,48.1Z" transform="translate(-21.949 -7.352)" fill="#d53e27"/>
    <path id="Trazado_501" data-name="Trazado 501" d="M-1938.522,73.539A1.5,1.5,0,0,1-1940,71.992a1.517,1.517,0,0,1,1.55-1.492,1.521,1.521,0,0,1,1.489,1.559A1.506,1.506,0,0,1-1938.522,73.539Z" transform="translate(-157.492 -25.659)" fill="#d53e27"/>
    <path id="Trazado_502" data-name="Trazado 502" d="M-2183.644,70.5a1.521,1.521,0,0,1,1.6,1.445,1.5,1.5,0,0,1-1.531,1.593,1.513,1.513,0,0,1-1.506-1.442A1.509,1.509,0,0,1-2183.644,70.5Z" transform="translate(0 -25.66)" fill="#d53e27"/>
    <path id="Trazado_503" data-name="Trazado 503" d="M-2073.8,60.663a1.459,1.459,0,0,1-1.549,1.465,1.5,1.5,0,0,1-1.483-1.457,1.566,1.566,0,0,1,1.562-1.579A1.53,1.53,0,0,1-2073.8,60.663Z" transform="translate(-69.562 -18.328)" fill="#d53e27"/>
    <path id="Trazado_504" data-name="Trazado 504" d="M-2025.505,49.183a1.486,1.486,0,0,1,1.67-1.441,1.524,1.524,0,0,1,1.368,1.573,1.56,1.56,0,0,1-1.677,1.452A1.556,1.556,0,0,1-2025.505,49.183Z" transform="translate(-102.546 -11.031)" fill="#d53e27"/>
    <path id="Trazado_505" data-name="Trazado 505" d="M-2102.291,43.579a1.544,1.544,0,0,1-1.5,1.457,1.513,1.513,0,0,1-1.569-1.564A1.561,1.561,0,0,1-2103.769,42,1.581,1.581,0,0,1-2102.291,43.579Z" transform="translate(-51.234 -7.343)" fill="#d53e27"/>
    <path id="Trazado_506" data-name="Trazado 506" d="M-2020.326,174.68q-3.3,0-6.6,0c-1.179,0-1.5-.307-1.5-1.452q-.007-3.614,0-7.229c0-1.154.335-1.5,1.468-1.5q6.693-.011,13.387,0c1.1,0,1.451.328,1.462,1.437.024,2.469.019,4.938,0,7.407-.007,1.042-.347,1.338-1.436,1.34Q-2016.934,174.685-2020.326,174.68Zm6.13-8.047H-2026.3v5.987h12.109Z" transform="translate(-100.667 -86.058)" fill="#d53e27"/>
    <path id="Trazado_507" data-name="Trazado 507" d="M-2128.486,174.68c-2.23,0-4.46,0-6.691,0-1.12,0-1.416-.3-1.417-1.417,0-2.468-.007-4.936,0-7.4,0-1.088.279-1.363,1.378-1.364q6.735-.009,13.47,0c1.087,0,1.413.351,1.415,1.463q.005,3.568,0,7.136c0,1.309-.274,1.585-1.555,1.586Q-2125.185,174.683-2128.486,174.68Zm-6.074-2.049h12.143V166.62h-12.143Z" transform="translate(-31.158 -86.058)" fill="#d53e27"/>
    <path id="Trazado_508" data-name="Trazado 508" d="M-2074.406,174.681c-2.23,0-4.46.006-6.69,0-1.12,0-1.409-.3-1.411-1.437q-.007-3.658,0-7.315c0-1.111.32-1.431,1.44-1.432q6.69-.009,13.38,0c1.132,0,1.438.3,1.441,1.408q.008,3.7,0,7.4c0,1.052-.32,1.37-1.381,1.373C-2069.887,174.686-2072.146,174.681-2074.406,174.681Zm-6.019-8.079v6.017h12.119V166.6Z" transform="translate(-65.914 -86.059)" fill="#d53e27"/>
    <path id="Trazado_509" data-name="Trazado 509" d="M-2020.267,210.048q3.215,0,6.43,0a1.844,1.844,0,0,1,.875.067c.336.2.808.566.8.855a1.694,1.694,0,0,1-.7,1.045c-.215.169-.626.117-.949.118q-6.386.009-12.771,0c-1.223,0-1.774-.327-1.758-1.029.017-.752.518-1.06,1.73-1.06Z" transform="translate(-100.726 -115.325)" fill="#d53e27"/>
    <path id="Trazado_510" data-name="Trazado 510" d="M-2074.315,200.756c-2.172,0-4.345,0-6.518,0-.3,0-.668.058-.868-.093a1.488,1.488,0,0,1-.65-.927c0-.313.358-.7.656-.916.2-.149.574-.09.87-.09q6.606-.006,13.213,0c.119,0,.239,0,.357,0,.644.039,1.106.308,1.1,1.016s-.475,1-1.11,1c-1.815.019-3.63.007-5.446.008Z" transform="translate(-66.017 -108.052)" fill="#d53e27"/>
    <path id="Trazado_511" data-name="Trazado 511" d="M-2074.363,210.07c2.231,0,4.462.006,6.693,0,.723,0,1.328.161,1.428.994.078.65-.491,1.093-1.414,1.1q-6.694.014-13.387,0c-.96,0-1.515-.426-1.435-1.08.107-.886.769-1.01,1.511-1.007C-2078.766,210.076-2076.565,210.07-2074.363,210.07Z" transform="translate(-65.93 -115.347)" fill="#d53e27"/>
    <path id="Trazado_512" data-name="Trazado 512" d="M-2128.423,200.739q-3.215,0-6.429,0a7.886,7.886,0,0,1-.8-.034c-.6-.063-1-.439-.862-1a1.925,1.925,0,0,1,.855-.927c.215-.14.578-.065.875-.066q6.384,0,12.768,0c.238,0,.477,0,.714.015a.937.937,0,0,1,.986,1.032.968.968,0,0,1-1.052.979c-1.161.014-2.321.005-3.482.005Z" transform="translate(-31.193 -108.035)" fill="#d53e27"/>
    <path id="Trazado_513" data-name="Trazado 513" d="M-2020.151,198.727c2.231,0,4.462-.026,6.692.023a1.772,1.772,0,0,1,1.224.512c.53.667-.061,1.481-1.058,1.49-2.112.019-4.224.006-6.335.006-2.439,0-4.878,0-7.317,0-.878,0-1.427-.4-1.384-1.016.061-.864.677-1.016,1.4-1.015Q-2023.542,198.731-2020.151,198.727Z" transform="translate(-100.731 -108.055)" fill="#d53e27"/>
    <path id="Trazado_514" data-name="Trazado 514" d="M-2128.41,210.073c2.141,0,4.282-.006,6.423.006a2.043,2.043,0,0,1,1.033.164,1.287,1.287,0,0,1,.587.88,1.343,1.343,0,0,1-.592.88,1.756,1.756,0,0,1-.942.154q-6.467.013-12.935.006h-.089c-1.15-.018-1.665-.347-1.646-1.053.019-.744.482-1.036,1.649-1.037Z" transform="translate(-31.174 -115.35)" fill="#d53e27"/>
    <path id="Trazado_515" data-name="Trazado 515" d="M-2074.255,221.474c2.232,0,4.465-.027,6.7.025a1.816,1.816,0,0,1,1.206.546.909.909,0,0,1-.577,1.4,4.5,4.5,0,0,1-1.063.09q-6.428.009-12.857,0c-.178,0-.358,0-.535-.009-.606-.047-1.045-.332-1.075-.969-.033-.7.437-1.025,1.064-1.068.711-.049,1.428-.014,2.142-.014Z" transform="translate(-65.945 -122.669)" fill="#d53e27"/>
    <path id="Trazado_516" data-name="Trazado 516" d="M-2020.341,223.55c-2.2,0-4.4.005-6.6,0-.936,0-1.513-.42-1.431-1.079.1-.827.719-.983,1.439-.982q6.688.01,13.377,0c.7,0,1.346.1,1.417.983.056.692-.44,1.069-1.425,1.074C-2015.823,223.557-2018.082,223.55-2020.341,223.55Z" transform="translate(-100.7 -122.685)" fill="#d53e27"/>
    <path id="Trazado_517" data-name="Trazado 517" d="M-2007.22,89.694a2.022,2.022,0,0,1-2.1,1.957,2.035,2.035,0,0,1-1.934-2.215,2.033,2.033,0,0,1,2.1-1.86A2.019,2.019,0,0,1-2007.22,89.694Z" transform="translate(-111.702 -36.631)" fill="#d53e27"/>
    <path id="Trazado_518" data-name="Trazado 518" d="M-1973.015,89.656a2,2,0,0,1-2.046,2,2.042,2.042,0,0,1-2-2.07A2.059,2.059,0,0,1-1975,87.581,2.02,2.02,0,0,1-1973.015,89.656Z" transform="translate(-133.68 -36.636)" fill="#d53e27"/>
    <path id="Trazado_519" data-name="Trazado 519" d="M-1990.095,89.638a2,2,0,0,1-2.016,2.019,1.984,1.984,0,0,1-1.979-2.061,2.037,2.037,0,0,1,1.941-2.019A1.974,1.974,0,0,1-1990.095,89.638Z" transform="translate(-122.735 -36.634)" fill="#d53e27"/>
  </g>
</svg>
