<svg xmlns="http://www.w3.org/2000/svg" width="60.536" height="61.205" viewBox="0 0 60.536 61.205">
  <g id="Layer_2" data-name="Layer 2" transform="translate(0.001)">
    <g id="Layer_1" data-name="Layer 1" transform="translate(-0.001)">
      <g id="Cnt94V">
        <path id="Trazado_437" data-name="Trazado 437" d="M18.02,57.758H4.453A4.141,4.141,0,0,1,0,53.341V17.754a4.121,4.121,0,0,1,4.385-4.4h6.359v-6.3A4.163,4.163,0,0,1,15.192,2.57c3.148-.015,6.293,0,9.441,0h20.6a4.421,4.421,0,0,1,3.685,1.622,4.283,4.283,0,0,1,.879,2.752c.018,2.1,0,4.207,0,6.412h6.316a4.128,4.128,0,0,1,4.425,4.428V53.313a4.149,4.149,0,0,1-4.471,4.451H42.43c.1.21.172.365.253.507a3.328,3.328,0,0,1-2.714,4.816c-.236.02-.471.033-.707.033H21.267a3.511,3.511,0,0,1-3.1-1.371,3.186,3.186,0,0,1-.357-3.394c.073-.162.157-.319.231-.479A1.04,1.04,0,0,1,18.02,57.758ZM49.8,18.781V32.376a4.156,4.156,0,0,1-4.473,4.506h-30.1a5.6,5.6,0,0,1-1.288-.119,4.085,4.085,0,0,1-3.193-4.195V18.788H5.424V44.954H55.115V18.781ZM10.716,14.69H4.453a2.837,2.837,0,0,0-3.13,3.163V53.209a2.84,2.84,0,0,0,3.158,3.183H56.068a2.806,2.806,0,0,0,3.13-3.14V17.838a2.822,2.822,0,0,0-3.133-3.15h-6.22v2.687h5.576c.91,0,1.1.19,1.1,1.115V48.548c0,.95-.182,1.13-1.143,1.13H5.2c-1.062,0-1.2-.139-1.2-1.179V18.509c0-.945.172-1.125,1.077-1.125h5.644Zm1.422-4c0,.19-.03.345-.03.507V32.5a2.8,2.8,0,0,0,3.087,3.069c10.014,0,20.022-.018,30.041.018a3.006,3.006,0,0,0,3.206-3.219c-.056-7-.02-14.006-.02-21.008v-.672ZM5.376,46.341v1.954H55.12V46.353ZM30.282,57.758H20.9a1.944,1.944,0,0,0-1.881,1.181,1.9,1.9,0,0,0,.319,2.144,2.24,2.24,0,0,0,1.858.7H39.31a4.56,4.56,0,0,0,.588-.023,2.01,2.01,0,0,0-.3-4Q34.944,57.752,30.282,57.758ZM28.893,3.926H14.984A2.551,2.551,0,0,0,12.277,5.85a28.755,28.755,0,0,0-.231,3.409H28.893ZM30.3,5.9H48.254a2.591,2.591,0,0,0-2.681-1.959h-14.8a4.433,4.433,0,0,0-.466.043Zm18.1,1.447H30.338V9.241H48.421V7.72A3.373,3.373,0,0,1,48.409,7.348Z" transform="translate(0 -1.914)" fill="#d53e27"/>
        <path id="Trazado_438" data-name="Trazado 438" d="M0,13.964A3.325,3.325,0,0,1,3.36,10.669a3.348,3.348,0,0,1,3.358,3.378,3.411,3.411,0,0,1-3.4,3.346A3.386,3.386,0,0,1,0,13.964Zm3.335,2.05a2,2,0,0,0,2.028-2,2.028,2.028,0,0,0-2.028-2.028,2.066,2.066,0,0,0-2.01,1.987,2.028,2.028,0,0,0,2.01,2.04Z" transform="translate(0.001 -7.965)" fill="#d53e27"/>
        <path id="Trazado_439" data-name="Trazado 439" d="M212.369,15.976a2.656,2.656,0,0,1,2.694-2.687,2.687,2.687,0,1,1-2.692,2.687Zm2.694,1.323a1.331,1.331,0,1,0-1.331-1.331A1.331,1.331,0,0,0,215.064,17.3Z" transform="translate(-158.544 -9.921)" fill="#d53e27"/>
        <path id="Trazado_440" data-name="Trazado 440" d="M192.545,226.956h-3.12c-.393,0-.76-.068-.877-.522-.129-.492.2-.839.836-.844,1.158-.015,2.314,0,3.472,0h2.768c.474,0,.879.114.938.664.046.436-.332.7-.958.7Z" transform="translate(-140.74 -168.41)" fill="#d53e27"/>
        <path id="Trazado_441" data-name="Trazado 441" d="M22.662,225.579h3.122c.4,0,.76.1.874.535s-.238.839-.809.839q-3.209.015-6.417,0c-.433,0-.791-.18-.793-.679s.352-.677.783-.682C20.505,225.571,21.582,225.582,22.662,225.579Z" transform="translate(-13.915 -168.406)" fill="#d53e27"/>
        <path id="Trazado_442" data-name="Trazado 442" d="M209.028,1.014A1.014,1.014,0,1,1,208.014,0,1.014,1.014,0,0,1,209.028,1.014Z" transform="translate(-154.536 0)" fill="#d53e27"/>
        <path id="Trazado_443" data-name="Trazado 443" d="M35.291.33a1.014,1.014,0,0,1,1.026.983,1.044,1.044,0,0,1-1,1.029,1.014,1.014,0,0,1-1.014-1A.976.976,0,0,1,35.291.33Z" transform="translate(-25.612 -0.246)" fill="#d53e27"/>
        <path id="Trazado_444" data-name="Trazado 444" d="M115.462,196.469a1.336,1.336,0,1,1-1.313,1.358A1.336,1.336,0,0,1,115.462,196.469Z" transform="translate(-85.218 -146.674)" fill="#d53e27"/>
        <path id="Trazado_445" data-name="Trazado 445" d="M63.36,48.061A5.57,5.57,0,0,1,66.376,51.9,10.23,10.23,0,0,1,66.5,53.9a.707.707,0,0,1-.806.745h-9.2c-.591,0-.814-.271-.844-.9a5.686,5.686,0,0,1,3.181-5.692,3.369,3.369,0,0,1-.879-2.93,3.12,3.12,0,0,1,1.12-1.883,3.254,3.254,0,0,1,4.169.119C64.523,44.525,64.582,46.274,63.36,48.061Zm1.787,5.178a4.022,4.022,0,0,0-2.281-3.88,3.86,3.86,0,0,0-4.131.329,4.037,4.037,0,0,0-1.713,3.528h1.148c.023-.537-.041-1.13.649-1.168.829-.048.646.712.788,1.179h2.968c.1-.507-.033-1.176.717-1.179s.664.667.715,1.191Zm-2.225-7.5a1.845,1.845,0,1,0-.916,1.646A1.845,1.845,0,0,0,62.922,45.74Z" transform="translate(-41.538 -31.757)" fill="#d53e27"/>
        <path id="Trazado_446" data-name="Trazado 446" d="M120.528,52.492h-8.022c-.907,0-1.108-.2-1.11-1.11s0-1.774,0-2.654c0-.717.253-.958.963-.958h16.276c.738,0,.935.215.94.961v2.712c0,.9-.175,1.047-1.032,1.049Zm7.669-1.386V49.174H112.816v1.931Z" transform="translate(-83.162 -35.663)" fill="#d53e27"/>
        <path id="Trazado_447" data-name="Trazado 447" d="M120.5,71.666h8.022c.859,0,1.014.17,1.014,1.042v2.773c0,.654-.238.9-.885.9h-16.4c-.639,0-.885-.253-.892-.91-.015-.943,0-1.886,0-2.831,0-.76.228-.976.991-.978Q116.432,71.664,120.5,71.666Zm7.677,1.381H112.784v1.921h15.4Z" transform="translate(-83.131 -53.502)" fill="#d53e27"/>
        <path id="Trazado_448" data-name="Trazado 448" d="M74.263,119.34H89.069c.459,0,.89.1.945.661.046.454-.3.715-.935.73H60.409c-.413,0-.826.025-1.239,0s-.738-.231-.74-.682.319-.654.732-.689c.291-.023.588,0,.882,0H74.263Z" transform="translate(-43.621 -89.093)" fill="#d53e27"/>
        <path id="Trazado_449" data-name="Trazado 449" d="M74.116,98.17H88.742a5.07,5.07,0,0,1,.588,0,.616.616,0,0,1,.608.664.623.623,0,0,1-.634.646c-.175.015-.352,0-.53,0H59.512c-.834,0-1.168-.185-1.184-.649s.332-.682,1.209-.682Z" transform="translate(-43.545 -73.274)" fill="#d53e27"/>
        <path id="Trazado_450" data-name="Trazado 450" d="M74.21,110.174h-15.1a.659.659,0,0,1-.684-.669.631.631,0,0,1,.679-.661H88.831c.215,0,.476-.056.636.043.223.134.507.385.507.6s-.253.492-.454.644c-.15.106-.416.056-.631.056Z" transform="translate(-43.618 -81.246)" fill="#d53e27"/>
        <path id="Trazado_451" data-name="Trazado 451" d="M72.673,13.24a1.034,1.034,0,0,1,1.034.991,1.014,1.014,0,0,1-.994,1.014.986.986,0,0,1-1.014-.986A1,1,0,0,1,72.673,13.24Z" transform="translate(-53.527 -9.884)" fill="#d53e27"/>
        <path id="Trazado_452" data-name="Trazado 452" d="M86.915,14.274a.973.973,0,0,1-1.014.978,1.014,1.014,0,0,1-.991-1.026,1.042,1.042,0,0,1,1.037-.986,1,1,0,0,1,.968,1.034Z" transform="translate(-63.389 -9.884)" fill="#d53e27"/>
        <path id="Trazado_453" data-name="Trazado 453" d="M59.384,15.267a1.014,1.014,0,0,1-1.014-.994,1.039,1.039,0,0,1,1.014-1.014A1,1,0,0,1,60.4,14.273a.976.976,0,0,1-1.014.994Z" transform="translate(-43.576 -9.899)" fill="#d53e27"/>
      </g>
    </g>
  </g>
</svg>
