<svg xmlns="http://www.w3.org/2000/svg" width="48.153" height="39.366" viewBox="0 0 48.153 39.366">
  <g id="Layer_2" data-name="Layer 2" transform="translate(0.003 0.003)">
    <g id="Layer_1" data-name="Layer 1" transform="translate(-0.003 -0.003)">
      <path id="Trazado_122" data-name="Trazado 122" d="M24.1,0H43.982a3.967,3.967,0,0,1,3.394,1.57,4.073,4.073,0,0,1,.764,2.673V35.241a4.1,4.1,0,0,1-.382,1.994,3.9,3.9,0,0,1-3.585,2.121H4.246A3.988,3.988,0,0,1,.873,37.808,4.052,4.052,0,0,1,0,35.284V4.077A3.776,3.776,0,0,1,2.231.407,4.816,4.816,0,0,1,4.246,0Zm0,3.034H4.246c-1,0-1.23.233-1.23,1.252V35.114c0,1.04.233,1.273,1.273,1.273H43.876c1,0,1.252-.233,1.252-1.23V4.246a3.141,3.141,0,0,0,0-.446.785.785,0,0,0-.785-.764,3.119,3.119,0,0,0-.446,0Z" transform="translate(0.003 0.003)" fill="#d6d6d6"/>
      <path id="Trazado_123" data-name="Trazado 123" d="M25.563,20.955c.636-.573,1.209-1.146,1.8-1.7l2.312-2.121a1.273,1.273,0,0,1,2.121.149c1.337,1.782,2.673,3.585,3.988,5.389a1.294,1.294,0,0,1,.17,1.443,1.23,1.23,0,0,1-1.273.679H4.879A1.273,1.273,0,0,1,3.8,23.013c0-.17.212-.339.318-.509,3.161-4.858,6.364-9.7,9.483-14.553a1.358,1.358,0,0,1,2.376,0c3.076,4.243,6.195,8.486,9.313,12.729Z" transform="translate(4.144 8.137)" fill="#d6d6d6"/>
      <path id="Trazado_124" data-name="Trazado 124" d="M13.62,7.735a4.476,4.476,0,1,1,1.3,3.179,4.476,4.476,0,0,1-1.3-3.179Z" transform="translate(15.281 3.685)" fill="#d6d6d6"/>
    </g>
  </g>
</svg>
