<svg xmlns="http://www.w3.org/2000/svg" width="74.078" height="73.147" viewBox="0 0 74.078 73.147">
  <g id="Layer_2" data-name="Layer 2" transform="translate(0.252 0.25)">
    <g id="Layer_1" data-name="Layer 1" transform="translate(-0.002 0)">
      <g id="RmBqfx">
        <path id="Trazado_467" data-name="Trazado 467" d="M56.114,11.157a4.974,4.974,0,0,1,9.947,0c1.159,0,2.345-.032,3.519,0a19.749,19.749,0,0,1,2.867.275,3.226,3.226,0,0,1,1.409.69,2.38,2.38,0,0,0,1.655.53c2.125-.014,4.255-.055,6.376.058A5.469,5.469,0,0,1,87,17.638a6.629,6.629,0,0,1,.043.794V71.249a5.6,5.6,0,0,1-4.127,5.626,6.846,6.846,0,0,1-1.791.194H40.048a5.55,5.55,0,0,1-5.869-5.861q-.017-26.375,0-52.751A5.516,5.516,0,0,1,38.436,12.8a7.408,7.408,0,0,1,1.794-.177c2.269-.02,4.539,0,6.808-.02a1.551,1.551,0,0,0,.922-.29,5.507,5.507,0,0,1,3.632-1.2C53.082,11.154,54.578,11.157,56.114,11.157Zm-9.565,3.168H40.1a3.93,3.93,0,0,0-4.284,4.281V71.125A5.067,5.067,0,0,0,36,72.62a3.848,3.848,0,0,0,4.13,2.832h41A4.031,4.031,0,0,0,84.66,73.8a4.592,4.592,0,0,0,.716-2.823V18.751a6.238,6.238,0,0,0-.041-.87A3.614,3.614,0,0,0,82.048,14.4c-2.11-.139-4.235-.032-6.376-.032.032.139.052.255.084.368a4.921,4.921,0,0,1-4.669,6.35c-6.666.064-13.333.043-20,0a4.708,4.708,0,0,1-4.24-2.588,4.907,4.907,0,0,1-.31-4.177Zm14.492,5.09h9.686a3.306,3.306,0,0,0,2.724-1.084,3.209,3.209,0,0,0,.513-3.585,3.072,3.072,0,0,0-2.93-1.884c-1.762-.032-3.524,0-5.287-.014-1.11,0-1.313-.209-1.345-1.29a6.088,6.088,0,0,0-.122-1.159,3.269,3.269,0,0,0-2.716-2.475c-2.2-.261-3.768,1.232-3.794,3.6,0,1.1-.217,1.31-1.307,1.313H51.178a3.087,3.087,0,0,0-2.82,1.594,3.236,3.236,0,0,0,2.82,4.948c3.281.075,6.565.038,9.846.038Z" transform="translate(-24.266 -4.424)" fill="#d53e27" stroke="#d53e27" stroke-width="0.5"/>
        <path id="Trazado_468" data-name="Trazado 468" d="M224.377,0a4.95,4.95,0,1,1-4.927,4.927A4.95,4.95,0,0,1,224.377,0ZM224.3,8.228a3.293,3.293,0,1,0-3.213-3.368A3.261,3.261,0,0,0,224.3,8.228Z" transform="translate(-155.844 0)" fill="#d53e27" stroke="#d53e27" stroke-width="0.5"/>
        <path id="Trazado_469" data-name="Trazado 469" d="M0,180.756a4.13,4.13,0,1,1,1.166,2.95A4.11,4.11,0,0,1,0,180.756Zm6.568.09a2.417,2.417,0,0,0-2.449-2.49,2.458,2.458,0,1,0,2.449,2.487Z" transform="translate(0.002 -125.484)" fill="#d53e27" stroke="#d53e27" stroke-width="0.5"/>
        <path id="Trazado_470" data-name="Trazado 470" d="M16.652,226.348a1.235,1.235,0,0,1-1.229,1.241,1.269,1.269,0,0,1-1.243-1.241,1.243,1.243,0,0,1,1.246-1.229,1.206,1.206,0,0,1,1.226,1.229Z" transform="translate(-10.069 -159.871)" fill="#d53e27" stroke="#d53e27" stroke-width="0.5"/>
        <path id="Trazado_471" data-name="Trazado 471" d="M186.431,2.77a1.238,1.238,0,0,1,1.209,1.261A1.191,1.191,0,0,1,186.4,5.242,1.243,1.243,0,0,1,185.17,4,1.29,1.29,0,0,1,186.431,2.77Z" transform="translate(-131.5 -1.967)" fill="#d53e27" stroke="#d53e27" stroke-width="0.5"/>
        <path id="Trazado_472" data-name="Trazado 472" d="M8.109,81a1.2,1.2,0,0,1-1.261,1.191A1.241,1.241,0,0,1,5.64,80.929,1.275,1.275,0,0,1,6.918,79.72,1.238,1.238,0,0,1,8.109,81Z" transform="translate(-4.004 -56.614)" fill="#d53e27" stroke="#d53e27" stroke-width="0.5"/>
        <path id="Trazado_473" data-name="Trazado 473" d="M230.469,189.305a1.275,1.275,0,0,1-1.243,1.243A1.235,1.235,0,0,1,228,189.308a1.2,1.2,0,0,1,1.226-1.229A1.24,1.24,0,0,1,230.469,189.305Z" transform="translate(-161.915 -133.566)" fill="#d53e27" stroke="#d53e27" stroke-width="0.5"/>
        <path id="Trazado_474" data-name="Trazado 474" d="M237.73,71.18a1.267,1.267,0,0,1,1.278,1.206,1.238,1.238,0,0,1-1.206,1.264,1.212,1.212,0,0,1-1.264-1.194A1.238,1.238,0,0,1,237.73,71.18Z" transform="translate(-167.98 -50.549)" fill="#d53e27" stroke="#d53e27" stroke-width="0.5"/>
        <path id="Trazado_475" data-name="Trazado 475" d="M15.409,11.34a1.226,1.226,0,0,1,1.241,1.223,1.2,1.2,0,0,1-1.206,1.249A1.258,1.258,0,0,1,14.18,12.6a1.281,1.281,0,0,1,1.229-1.258Z" transform="translate(-10.069 -8.053)" fill="#d53e27" stroke="#d53e27" stroke-width="0.5"/>
        <path id="Trazado_476" data-name="Trazado 476" d="M58.646,121.881H94.995V81.24c0-1.049.212-1.42.812-1.42s.809.362.809,1.432v40.937c0,1.243-.142,1.388-1.359,1.388H58.38c-1.212,0-1.38-.168-1.38-1.38V89.512c0-1.043.22-1.429.809-1.449s.838.388.838,1.412Z" transform="translate(-40.479 -56.685)" fill="#d53e27" stroke="#d53e27" stroke-width="0.5"/>
        <path id="Trazado_477" data-name="Trazado 477" d="M107.682,74.253h-3.658a6.16,6.16,0,0,1-.87-.029c-.461-.07-.838-.362-.716-.817a1.267,1.267,0,0,1,.759-.78,7.891,7.891,0,0,1,1.739-.043h4.927c.956,0,1.209.226,1.22,1.2.023,2.125.014,4.249.017,6.376,0,.58-.209,1.012-.835,1.072-.5.049-.849-.423-.855-1.116V75.325a3.249,3.249,0,0,0-.412.232c-1.838,1.527-3.687,3.04-5.507,4.594a3.917,3.917,0,0,0-1.351,4.721,6.7,6.7,0,0,0,1.664,2.133c1.545,1.417,3.188,2.733,4.774,4.107a5.783,5.783,0,0,1-.591,9.307c-3.02,1.948-6.055,3.878-9.078,5.826-.5.325-.985.394-1.316-.145s-.038-.956.449-1.267c2.982-1.922,5.971-3.835,8.944-5.768a3.949,3.949,0,0,0,1.771-4.814,4.8,4.8,0,0,0-1.241-1.817c-1.672-1.533-3.423-2.98-5.142-4.458a5.693,5.693,0,0,1-1.959-6.113,5.777,5.777,0,0,1,2.029-3.011c1.768-1.449,3.522-2.936,5.281-4.406Z" transform="translate(-69.208 -51.527)" fill="#d53e27" stroke="#d53e27" stroke-width="0.5"/>
        <path id="Trazado_478" data-name="Trazado 478" d="M87.04,137.915H83.779c-.968-.014-1.31-.58-.829-1.432q1.661-2.922,3.362-5.826c.47-.8,1.142-.794,1.617,0q1.739,2.93,3.4,5.89c.429.754.07,1.336-.814,1.351C89.359,137.93,88.2,137.915,87.04,137.915Zm.075-5.353L85.032,136.2h4.182C88.5,134.953,87.831,133.811,87.115,132.562Z" transform="translate(-58.754 -92.364)" fill="#d53e27" stroke="#d53e27" stroke-width="0.5"/>
        <path id="Trazado_479" data-name="Trazado 479" d="M77.96,86.35A3.31,3.31,0,1,1,81.241,83,3.356,3.356,0,0,1,77.96,86.35Zm-.041-1.69a1.626,1.626,0,1,0-1.64-1.635,1.6,1.6,0,0,0,1.64,1.635Z" transform="translate(-52.992 -56.621)" fill="#d53e27" stroke="#d53e27" stroke-width="0.5"/>
        <path id="Trazado_480" data-name="Trazado 480" d="M152.053,177.529a3.3,3.3,0,1,1,2.331-1A3.3,3.3,0,0,1,152.053,177.529Zm1.6-3.264a1.652,1.652,0,1,0-1.69,1.617A1.669,1.669,0,0,0,153.656,174.265Z" transform="translate(-105.608 -121.381)" fill="#d53e27" stroke="#d53e27" stroke-width="0.5"/>
        <path id="Trazado_481" data-name="Trazado 481" d="M117.82,198.114c-.527.551-.988,1.046-1.449,1.525-.728.739-1.159.838-1.574.391s-.29-.87.394-1.527c.481-.472.977-.93,1.588-1.513-.629-.6-1.209-1.127-1.765-1.681s-.58-1.02-.191-1.377c.528-.478.977-.2,1.374.212.53.556,1.049,1.122,1.693,1.814.632-.687,1.159-1.272,1.7-1.855.391-.429.849-.632,1.307-.162s.29.919-.142,1.322c-.58.548-1.133,1.1-1.783,1.739.62.58,1.177,1.122,1.739,1.652.426.409.646.87.209,1.391-.354.42-.82.345-1.368-.194S118.455,198.754,117.82,198.114Z" transform="translate(-81.355 -137.538)" fill="#d53e27" stroke="#d53e27" stroke-width="0.5"/>
        <path id="Trazado_482" data-name="Trazado 482" d="M155.2,136.7h2.968c.713,0,1.159.33,1.127.841-.055.684-.545.835-1.133.835h-6.008c-.548,0-1.029-.145-1.081-.8-.043-.548.357-.87,1.087-.87h3.04Z" transform="translate(-107.283 -97.079)" fill="#d53e27" stroke="#d53e27" stroke-width="0.5"/>
        <path id="Trazado_483" data-name="Trazado 483" d="M155.175,102.58h3.188c.58,0,.98.252.974.823s-.412.817-.983.814h-6.223c-.551,0-.988-.183-1-.788s.426-.852,1.012-.849C153.149,102.583,154.161,102.58,155.175,102.58Z" transform="translate(-107.325 -72.848)" fill="#d53e27" stroke="#d53e27" stroke-width="0.5"/>
        <path id="Trazado_484" data-name="Trazado 484" d="M155.233,112.738h-3.11c-.58,0-1.032-.2-1.014-.849,0-.6.449-.791,1-.788h6.223c.58,0,.98.246.985.817s-.4.826-.974.823C157.308,112.735,156.271,112.738,155.233,112.738Z" transform="translate(-107.311 -78.899)" fill="#d53e27" stroke="#d53e27" stroke-width="0.5"/>
        <path id="Trazado_485" data-name="Trazado 485" d="M155.234,121.276h-3.11c-.58,0-1.029-.206-1.014-.849s.446-.8,1-.8h6.22c.58,0,.98.243.991.817s-.412.826-.974.826Z" transform="translate(-107.311 -84.957)" fill="#d53e27" stroke="#d53e27" stroke-width="0.5"/>
        <path id="Trazado_486" data-name="Trazado 486" d="M155.2,129.828h-3.038c-.742,0-1.142-.319-1.1-.855.058-.643.513-.8,1.078-.8h6.087c.58,0,1.046.209,1.058.829s-.47.832-1.041.832Z" transform="translate(-107.282 -91.021)" fill="#d53e27" stroke="#d53e27" stroke-width="0.5"/>
      </g>
    </g>
  </g>
</svg>
