<svg xmlns="http://www.w3.org/2000/svg" width="253.332" height="235.765" viewBox="0 0 253.332 235.765">
  <g id="Layer_2" data-name="Layer 2" transform="translate(0.039 0.001)">
    <g id="Layer_1" data-name="Layer 1" transform="translate(-0.039 -0.001)">
      <path id="Trazado_208" data-name="Trazado 208" d="M178.242,117.813C172,87.612,138.431,76.184,116.47,59.706a4.976,4.976,0,0,0-1.1-4.47h-.075a1.49,1.49,0,0,0,.179-.238,4.649,4.649,0,0,0-.73-5.96c4.306-7.45,12.962-11.562,20.471-15.331a7.45,7.45,0,0,0,.968-.492l.149-.074a1.49,1.49,0,0,0,.328-.238,10.086,10.086,0,0,0,2.682-3.084,1.162,1.162,0,0,0,.179-.328,8.656,8.656,0,0,0-5.96-11.621c-3.978-1-7.45,2.205-11.443,0-1.967-1.043-2.98-3.129-5.423-3.323-2.7-.223-3.1,1.4-5.125,2.384-5.259,2.548-5.528-2.533-8.6-4.47-4.693-2.98-7.271,2.4-11.055,4.082-3.114.521-6.138-1.624-9.163-2.131a6.794,6.794,0,0,0-7.286,3.308,5.855,5.855,0,0,0,2.22,8.7,1.49,1.49,0,0,0,.581.477C87.655,30.95,93.659,38.3,98.1,47.205a5.1,5.1,0,0,0-2.086,6.9c.1.194.238.358.358.536a5.84,5.84,0,0,0-1.728,6.347C75.438,74.694,51.435,81.98,38.637,103.3s-2.5,45.487,18.579,56.617c24.017,12.664,56.1,10.906,81.543,3.993,11.353-3.084,23.556-7.286,31.854-16.061C178.227,139.744,180.492,128.57,178.242,117.813Zm-80.1-61.325a13.2,13.2,0,0,0,6.973,1.788c2.652,0,5.96.089,8.284-1.326a2.488,2.488,0,0,1,.73,2.28,1.49,1.49,0,0,0-.372.745c-1.639,2.116-7.271,2.98-8.791,3.2a9.133,9.133,0,0,1-5.96-.834C96.848,61.032,96,58.246,98.144,56.487Zm.819-6.824a13.961,13.961,0,0,0,13.2,1,1.579,1.579,0,0,0,.983.149c2,1.669-1.49,4.306-3.308,4.693a21.321,21.321,0,0,1-5.066.164,10.116,10.116,0,0,1-4.261-.834c-1.862-.909-3.725-3.71-1.55-5.17ZM82.157,16.841c3.546.477,6.585,2.846,10.31,2.145a1.073,1.073,0,0,0,.328-.119,21.678,21.678,0,0,0,4.246-2.98c3.755-2.607,4.842-.819,7.092,1.8,1.639,1.907,3.248,3.665,5.96,3.069,1.341-.283,1.952-1.266,3.069-1.847,4.321-2.22,5.081.209,8.567,1.877a7.137,7.137,0,0,0,3.918.656c1.028-.074,1.982-.641,2.98-.73,4.246-.432,10.653,1.266,8.4,7.7-4.47,7.226-11.562-.79-16.866-2.98-4.47-1.8-7.226-.536-10.429,2.667-2.16,2.131-3.74,4.961-7.479,1.713a14.676,14.676,0,0,1-2.22-3.665,10.921,10.921,0,0,0-3.948-4.619c-4.812-2.548-8.731,2.5-13.081,3.591a8.627,8.627,0,0,1-3.546-.477l-.283-.194h0A3.65,3.65,0,0,1,77,22.07C76.2,18.986,79.46,16.483,82.157,16.841ZM84.526,27.36c3.188-1.162,5.468-3.591,9.029-2.98,4.231.67,4.2,4.216,6.66,7.152,2.667,3.188,6.094,2.98,9.118.67a15.629,15.629,0,0,0-1.49,9.416c.089.626,1.058.447.954-.179a14.586,14.586,0,0,1,5.408-13.633c2.518-1.132,4.738-.209,7.062,1.043s4.47,2.98,7,4.082a14.815,14.815,0,0,0,1.49.581c-6.809,3.546-13.543,7.718-17.372,14.408a1.117,1.117,0,0,0-.626.134,11.264,11.264,0,0,1-10.683-.149,1.162,1.162,0,0,0-.119-.685c-3.9-8.195-9.029-15.138-16.389-19.861ZM172.4,141.234c-6.407,10.429-18.788,15.5-30.007,18.922-23.973,7.33-52.713,9.535-76.612.73s-39.438-34.1-24.092-57.645C54.638,83.381,77.449,76.274,95.954,63.207a9.774,9.774,0,0,0,7.316,2.712c3.531,0,8.939-.8,11.621-3.442.134-.149.253-.313.387-.477,18.4,13.767,42.492,22.542,54.978,42.835C176.841,115.578,179.255,130.015,172.4,141.234Z" transform="translate(16.236 5.673)" fill="#313131"/>
      <path id="Trazado_209" data-name="Trazado 209" d="M111.447,97.723C106.978,95,101.018,94.4,95.058,93.7q-1.684-14.214-3.427-28.4a23.972,23.972,0,0,1,3.427.283,10.891,10.891,0,0,1,4.768,2.727c-7.792,2.5-4.112,15.242,4.2,11.919,4.023-1.609,4.917-6.809,3.2-10.429-1.952-4.112-6.571-5.96-10.906-6.675a18.416,18.416,0,0,0-5.066-.864c-.268-2.131-.521-4.261-.79-6.392-.194-1.669-2.756-1.192-2.548.477.238,1.982.477,3.978.73,5.96a25.329,25.329,0,0,0-4.47.79c0-1.49-.1-3.084-.149-4.619s-2.637-1.892-2.592-.223l.179,5.647c-11.785,4.306-20.948,16.151-8.94,26.386a23.928,23.928,0,0,0,9.878,4.231l.983,31.691a30.722,30.722,0,0,1-12.426-5.572,7.343,7.343,0,0,0,1.266,0,5.319,5.319,0,0,0,6.064-3.114,8.314,8.314,0,0,0,0-10.057c-3.9-5.3-11.308-3.606-14.512,1.49-4.187,6.734.521,14.676,6.69,18.147A32.5,32.5,0,0,0,83.66,130.74c0,2.563.149,5.11.238,7.673,0,1.654,2.637,1.892,2.578.209-.075-2.563-.149-5.14-.238-7.7A64.84,64.84,0,0,0,97,130.4q.566,4.47,1.1,9.074c.209,1.669,2.771,1.192,2.563-.477-.372-2.98-.73-5.96-1.1-8.94,7.658-1.49,14.9-5.408,18.088-12.843a15.048,15.048,0,0,0-6.2-19.488Zm-29.8-30.081.715,23.273A14.229,14.229,0,0,1,74.914,84c-3.263-6.571.968-13.111,6.749-16.359ZM92.421,93.358a48.123,48.123,0,0,1-7.45-1.49L84.2,66.45a14.035,14.035,0,0,1,2.1-.626,20.959,20.959,0,0,1,2.712-.432q1.713,13.99,3.427,27.966ZM104.34,73.75a1.4,1.4,0,0,0,.73-1.713c-.194-.551-.417-1.073-.641-1.579l.387.447c1.043,3.337.894,4.291-.417,2.846ZM70.072,82.973c-1.877-4.47-.089-8.15,2.98-10.951a13.052,13.052,0,0,0-1.237,11.219,14.9,14.9,0,0,0,3.1,5.557,14.318,14.318,0,0,1-4.753-5.826Zm14.9,12.113c2.518.521,5.14.983,7.733,1.49q1.788,14.735,3.591,29.486a28.8,28.8,0,0,1-4.961.745,30.961,30.961,0,0,1-5.394-.164q-.358-15.778-.849-31.556ZM95.4,97.127c8.746,1.922,16.389,4.976,16.389,14.005,0,7.286-6.228,11.919-12.873,14.2ZM71.324,109.047h-.03a1.49,1.49,0,0,0-.372,0h.164s.3.045.343.045Zm5.155,1.49a5.2,5.2,0,0,0-3.263-1.49.79.79,0,0,0,.179-.209,1.222,1.222,0,0,0,0-1.371,5.96,5.96,0,0,1,3.188,3.114Zm-8-2.518a2.5,2.5,0,0,0-.223.447,2.756,2.756,0,0,0-.119.685,4.1,4.1,0,0,0-1.341.238,6.392,6.392,0,0,1,1.788-1.326ZM66.988,120.5a34.834,34.834,0,0,0,10.027,6.377h0a17.209,17.209,0,0,1-9.968-6.332Zm38.261,5.155a28.889,28.889,0,0,1-2.89,1.073c7.658-3.635,14.586-11.308,11.249-20.129a15.51,15.51,0,0,0-7.45-8.463,19.026,19.026,0,0,1,4.47,2.131c10.936,7.345,4.559,21.053-5.319,25.433Z" transform="translate(30.601 26.865)" fill="#313131"/>
      <path id="Trazado_210" data-name="Trazado 210" d="M122.089,70.811,95.419,51.919a.482.482,0,1,0-.551.79L121.537,71.6a.482.482,0,1,0,.551-.79Z" transform="translate(46.435 25.394)" fill="#313131"/>
      <path id="Trazado_211" data-name="Trazado 211" d="M116.445,67c-.417-.477-1.162.149-.745.626l7.167,8.344a.492.492,0,0,0,.745-.626Z" transform="translate(56.682 32.74)" fill="#313131"/>
      <path id="Trazado_212" data-name="Trazado 212" d="M123.482,76.626l2.592,4.574c.3.536,1.192.119.879-.417l-2.592-4.574C124.048,75.657,123.169,76.03,123.482,76.626Z" transform="translate(60.522 37.205)" fill="#313131"/>
      <path id="Trazado_213" data-name="Trazado 213" d="M64.1,114.473A38.529,38.529,0,0,1,38.775,88.221c-.179-.6-1.132-.417-.968.179A39.542,39.542,0,0,0,63.79,115.382C64.357,115.576,64.7,114.667,64.1,114.473Z" transform="translate(18.571 43.042)" fill="#313131"/>
      <path id="Trazado_214" data-name="Trazado 214" d="M65.176,109.96l-6.153-2.071a.483.483,0,0,0-.328.909l6.138,2.071C65.429,111.048,65.772,110.154,65.176,109.96Z" transform="translate(28.658 52.844)" fill="#313131"/>
      <path id="Trazado_215" data-name="Trazado 215" d="M68.529,109.924l-1.937-.164a.492.492,0,0,0-.089.968l1.937.164a.492.492,0,0,0,.089-.968Z" transform="translate(32.456 53.774)" fill="#313131"/>
      <path id="Trazado_216" data-name="Trazado 216" d="M48.45,82.574a8.94,8.94,0,0,1-2.056-8.94c.179-.6-.73-.939-.924-.343a10.012,10.012,0,0,0,2.235,9.953C48.138,83.662,48.883,83.036,48.45,82.574Z" transform="translate(22.096 35.756)" fill="#313131"/>
      <path id="Trazado_217" data-name="Trazado 217" d="M50.179,81.88c.179.581,1.132.417.954-.179-.715-2.369-1.49-4.723-2.16-7.092-.179-.581-1.147-.417-.954.179C48.734,77.157,49.493,79.511,50.179,81.88Z" transform="translate(23.571 36.376)" fill="#313131"/>
      <path id="Trazado_218" data-name="Trazado 218" d="M52.764,76.158a.492.492,0,1,0-.406-.484A.492.492,0,0,0,52.764,76.158Z" transform="translate(25.71 36.838)" fill="#313131"/>
      <path id="Trazado_219" data-name="Trazado 219" d="M163.114,128.767c-5.557-7.837-20.859-8.269-29.381-8.716-11.472-.6-24.4-.194-35.222,4.142-2.98,1.177-6.883,3.069-7.658,6.422a1.371,1.371,0,0,0-.209.656c0,5.453.209,10.876,0,16.389a1.132,1.132,0,0,0,.089.656v.1a1.283,1.283,0,0,0,.1.149,1.487,1.487,0,0,0,.209.223c10.862,10.161,27.832,11.547,41.956,10.429,8.94-.685,26.416-2.205,31.065-11.592v-.179a2.171,2.171,0,0,0,.074-.3v-.179c.134-4.351.134-8.642,0-12.977A5.96,5.96,0,0,0,163.114,128.767Zm-66.778-.67a8.627,8.627,0,0,1,2.548-1.252,55.127,55.127,0,0,1,14.9-3.531,105,105,0,0,1,33.657.983c4.336.894,10.847,2.011,13.543,5.96a4.575,4.575,0,0,1,.834,2.011v.834c-.536,4.47-10.266,6.943-13.558,7.777-15.2,3.859-30.3,4.887-45.174-.67-2.4-1.013-5.736-2.354-7.33-4.47a6.839,6.839,0,0,1,.581-7.643Zm61.8,11.919c.477-.238.939-.492,1.371-.76v9.893a11.148,11.148,0,0,1-1.356.968V140.031Zm-.924,10.653a26.625,26.625,0,0,1-3.74,1.639q.492-5.14.954-10.3a.4.4,0,0,0-.1-.328c.939-.358,1.907-.76,2.846-1.192v9.982a.417.417,0,0,0,.045.179ZM93.282,137.26a17.878,17.878,0,0,0,2.443,2v9.878a30.244,30.244,0,0,1-2.443-1.982c.089-3.323.045-6.615,0-9.908Zm3.427,2.622c.641.4,1.3.775,1.952,1.117v.1l.536,10.251c-.849-.462-1.669-.968-2.473-1.49Zm2.98,1.609c.834.4,1.654.775,2.369,1.073h.119l.194.089c.879.328,1.773.641,2.652.924q0,5.17.149,10.325a36.172,36.172,0,0,1-4.947-2.086Zm13.648,14.5a.432.432,0,0,0,.372-.462c0-1.028-.1-2.041-.164-3.069,0-.626-1.013-.626-.983,0l.179,3.069a.477.477,0,0,0,.238.387,50.194,50.194,0,0,1-6.9-1.564l-.134-10.429a61.184,61.184,0,0,0,6.764,1.639.626.626,0,0,0,0,.238v1.8a.492.492,0,0,0,.968,0v-1.862a70.55,70.55,0,0,0,15.748.79.506.506,0,0,0-.179.343l-.581,9.953a78.416,78.416,0,0,1-15.376-.849Zm18.46.685-2.145.119.581-9.923a.4.4,0,0,0-.194-.387,96.846,96.846,0,0,0,13.871-1.952c0,3.516,0,7.047-.1,10.564a83.871,83.871,0,0,1-12.053,1.564Zm12.977-1.788q0-5.3.1-10.564c1.356-.3,2.712-.611,4.053-.954s2.831-.76,4.574-1.371h0l-.983,10.668-1.594.536c-2.056.656-4.112,1.147-6.2,1.669Zm15.763-6.615v-9.64a13.414,13.414,0,0,0,1.326-1.013v8.94a7.821,7.821,0,0,1-1.371,1.7Z" transform="translate(44.46 58.71)" fill="#313131"/>
      <path id="Trazado_220" data-name="Trazado 220" d="M99.841,128.326l4.306.73c-1.877,1.207-2.578,2.4-.343,3.2,2.905,1.028,7.673-.283,11.159-1.371l17.641,2.98c-2.339.894-4.812,1.579-6.064,1.937a.447.447,0,0,0,.238.849,78.07,78.07,0,0,0,8-2.414l4.589.775c.566.1.8-.745.238-.849l-3.323-.566a11.741,11.741,0,0,0,2.98-1.8c1.207.224,2.429.417,3.635.656.551.1.79-.745.238-.849-1.058-.209-2.131-.387-3.188-.581a2.161,2.161,0,0,0,.4-1.266c-.209-4.47-10.981-3.457-13.409-3.069a42.313,42.313,0,0,0-5.557,1.3c-3.278-.477-6.556-.909-9.833-1.326,1.341-.492,2.682-.968,4.038-1.49.536-.179.313-1.028-.223-.849s-3.069.983-5.706,2.041l-3.9-.477c-.551,0-.551.819,0,.879l2.25.268c-.924.4-1.818.834-2.607,1.252l-5.245-.879C99.529,127.3,99.29,128.147,99.841,128.326Zm6.377,3.129c-3.62,0-2.533-1.073-.67-2.16l7.241,1.222a29.382,29.382,0,0,1-6.6.864Zm27.936,1.788-17.343-2.98.328-.1c1.252-.387,2.667-.864,4.157-1.341q7.971,1.162,15.942,2.578a12.2,12.2,0,0,1-3.084,1.773Zm.775-5.706c2.8,1.028,3.457,2.1,2.98,3.114-4.857-.864-9.714-1.669-14.586-2.384,3.918-1.237,8.195-2.071,11.606-.8Zm-25.716,0,.492-.194q4.827.581,9.61,1.252c-1.49.477-2.98.954-4.47,1.386l-8.016-1.356a17.741,17.741,0,0,1,2.339-1.177Z" transform="translate(48.822 60.895)" fill="#313131"/>
      <path id="Trazado_221" data-name="Trazado 221" d="M130.927,125.675a11.1,11.1,0,0,1,4.842,1.594c1.609,1.162,2.5,3.427.864,4.991-.417.387.209,1.013.626.626a3.844,3.844,0,0,0,.283-5.125c-1.49-2.026-4.053-2.548-6.392-2.98C130.6,124.721,130.361,125.571,130.927,125.675Z" transform="translate(64.043 61.132)" fill="#313131"/>
      <path id="Trazado_222" data-name="Trazado 222" d="M101.888,133.978c.566.119.8-.73.238-.849a11.144,11.144,0,0,1-3.77-1.49c-1.043-.641-3.755-2.473-2.518-4.023.343-.447-.268-1.073-.626-.626C92.487,130.447,99.5,133.516,101.888,133.978Z" transform="translate(46.402 62.141)" fill="#313131"/>
      <path id="Trazado_223" data-name="Trazado 223" d="M180.655,97.045c-12.992-11.368-33.359-9.431-42.731,3.948a1.491,1.491,0,0,0-.328.387l-.328.611a26.815,26.815,0,0,0-1.684,3.1c-2.727,5.155-5.155,10.653-5.185,16.479a26.1,26.1,0,0,0,13.23,22.721c16.121,9.014,38.291.76,43.938-17.074v-.179C191.814,117.1,188.268,104.54,180.655,97.045Zm-12.992,44.7a28.31,28.31,0,0,0,9.327-3.233,29.456,29.456,0,0,1-11.532,5.96l2.1-2.429a.4.4,0,0,0,.1-.328ZM151.408,93.559a27.936,27.936,0,0,1,27.415,5.319c10.206,10.057,11.308,28.055-1.654,36.324-13.23,8.463-33.493,4.9-39.691-10.534a23.675,23.675,0,0,1,.834-19.16l1.147-2.116A23.183,23.183,0,0,1,151.408,93.559ZM134.14,128.84l1.326-1.862a23.836,23.836,0,0,0,1.49,2.473l-1.8,1.818A21.145,21.145,0,0,1,134.14,128.84Zm-.983-9.64a22.35,22.35,0,0,0,1.877,6.883l-1.207,1.669a22.662,22.662,0,0,1-.67-8.552Zm10.28,21.947a23.094,23.094,0,0,1-7.941-9.029l1.937-1.922c4.961,6.839,13.5,11.115,22.349,11.919-1.013,1.1-2.011,2.22-2.98,3.323a28.579,28.579,0,0,1-3.382-.343l2.265-2.637c.372-.432-.253-1.058-.626-.626l-2.637,3.084a26.029,26.029,0,0,1-8.984-3.77Zm14.542,4.246c.894-1.013,1.8-2.011,2.712-2.98a.447.447,0,0,0,.1-.283,31.425,31.425,0,0,0,5.677-.209l-2.4,2.831a29.189,29.189,0,0,1-6.094.641Z" transform="translate(63.944 43.902)" fill="#313131"/>
      <path id="Trazado_224" data-name="Trazado 224" d="M151.2,110.3c.79,4.887,1.49,9.8,2.071,14.72a18.237,18.237,0,0,1-7.2-5.691c-.358-.432-.983.194-.626.626a18.609,18.609,0,0,0,7.926,6.034c.134,1.058.268,2.1.387,3.174,0,.551.939.566.879,0-.1-.983-.238-1.937-.343-2.98a10.281,10.281,0,0,0,3.591.253,9.908,9.908,0,0,0,4.47-1.624l.954,3.5a.447.447,0,0,0,.849-.238l-1.043-3.814a7.45,7.45,0,0,0,2.637-4.112c.924-4.053-1.773-7.971-5.349-9.625a7.448,7.448,0,0,0-1.162-.447l-2.637-9.7a41.082,41.082,0,0,1,4.187,1.773c.521.223.968-.536.447-.775a42.268,42.268,0,0,0-4.887-1.952l-1.49-5.379a.447.447,0,0,0-.849.238c.447,1.624.894,3.248,1.326,4.872a10.906,10.906,0,0,0-5.274-.134c-.328-1.669-.641-3.337-.983-5.006-.119-.566-.968-.328-.849.223.343,1.684.67,3.367,1,5.051a7.9,7.9,0,0,0-1.341.641,5.96,5.96,0,0,0-2.667,7.2C146.328,109.735,148.727,110.227,151.2,110.3Zm5.96,15.391a9.684,9.684,0,0,1-2.98-.358c-.6-5.021-1.281-10.042-2.086-15.018h3.367a13.021,13.021,0,0,1,3.084.626c1.177,4.306,2.339,8.612,3.516,12.9a7.986,7.986,0,0,1-4.857,1.847Zm7.822-7.2a8.79,8.79,0,0,1-2.235,4.663c-1.073-3.948-2.146-7.882-3.233-11.83,3.144,1.266,6.064,3.68,5.513,7.167ZM150.336,100.23a8.329,8.329,0,0,1,5.215-.1c.879,3.248,1.773,6.5,2.652,9.744a26.193,26.193,0,0,0-4.47-.432,15.95,15.95,0,0,1-1.892,0q-.76-4.649-1.639-9.252Zm-.954.149c.581,2.98,1.132,6.049,1.624,9.074a17.535,17.535,0,0,1-1.937-.223q-4.514-7.755.358-8.85Z" transform="translate(71.035 45.902)" fill="#313131"/>
      <path id="Trazado_225" data-name="Trazado 225" d="M147.882,128.189c.492.283.939-.492.447-.76a18.8,18.8,0,0,1-7.2-27.146c.313-.477-.462-.924-.76-.432a19.682,19.682,0,0,0,7.509,28.338Z" transform="translate(67.247 48.815)" fill="#313131"/>
      <path id="Trazado_226" data-name="Trazado 226" d="M152.155,120.437l-3.635-.447a.44.44,0,0,0,0,.879l3.635.447C152.706,121.391,152.706,120.511,152.155,120.437Z" transform="translate(72.613 58.786)" fill="#313131"/>
      <path id="Trazado_227" data-name="Trazado 227" d="M159.582,97.62a17.4,17.4,0,0,1,8.478,11.919c.119.566.968.328.864-.223a18.326,18.326,0,0,0-8.94-12.5.45.45,0,0,0-.4.8Z" transform="translate(78.119 47.409)" fill="#313131"/>
      <path id="Trazado_228" data-name="Trazado 228" d="M165.452,112c-.089.551.76.79.849.238l.447-2.727c.1-.566-.745-.8-.849-.238Z" transform="translate(81.114 53.379)" fill="#313131"/>
      <path id="Trazado_229" data-name="Trazado 229" d="M62.185,27.215c-12.992-11.368-33.374-9.431-42.746,3.948a1.371,1.371,0,0,0-.313.387l-.343.611a26.819,26.819,0,0,0-1.669,3.1C14.388,40.416,11.96,45.914,11.93,51.74A26.074,26.074,0,0,0,25.146,74.476c16.136,8.94,38.306.745,43.938-17.089v-.179C73.344,47.27,69.8,34.71,62.185,27.215Zm-12.992,44.7a28.86,28.86,0,0,0,9.327-3.248,29.56,29.56,0,0,1-11.532,5.96l2.1-2.429a.343.343,0,0,0,.1-.3Zm-16.3-48.184a27.936,27.936,0,0,1,27.444,5.319C70.558,39.12,71.661,57.1,58.7,65.372c-13.245,8.463-33.508,4.9-39.691-10.519a23.839,23.839,0,0,1,.819-19.175l1.147-2.16a23.287,23.287,0,0,1,11.919-9.789ZM15.67,59.01c.432-.626.879-1.237,1.326-1.862a21.455,21.455,0,0,0,1.49,2.473l-1.818,1.818a24.138,24.138,0,0,1-1-2.429Zm-.983-9.64A22.826,22.826,0,0,0,16.5,56.254l-1.192,1.669a22.349,22.349,0,0,1-.626-8.552Zm10.28,21.947a23.153,23.153,0,0,1-7.941-8.94l1.922-2.041C23.924,67.175,32.461,71.451,41.3,72.181l-2.98,3.337a32.119,32.119,0,0,1-3.367-.283l2.265-2.682c.358-.432-.253-1.058-.626-.626l-2.637,3.084a25.91,25.91,0,0,1-8.984-3.7Zm14.527,4.246,2.712-2.98a.462.462,0,0,0,.119-.283A31.422,31.422,0,0,0,48,72.092c-.819.954-1.654,1.907-2.473,2.876a30.379,30.379,0,0,1-6.034.6Z" transform="translate(5.903 9.691)" fill="#313131"/>
      <path id="Trazado_230" data-name="Trazado 230" d="M32.741,40.491q1.192,7.33,2.056,14.735a18.356,18.356,0,0,1-7.181-5.706c-.358-.432-.983.194-.626.626a18.609,18.609,0,0,0,7.926,5.96c.119,1.058.268,2.116.387,3.174,0,.551.939.566.879,0-.1-.968-.238-1.937-.358-2.98a10.727,10.727,0,0,0,3.606.238,9.968,9.968,0,0,0,4.47-1.624c.313,1.177.626,2.339.954,3.5a.447.447,0,0,0,.849-.238c-.358-1.266-.7-2.548-1.043-3.814A7.584,7.584,0,0,0,47.3,50.25c.909-4.053-1.788-7.971-5.349-9.625a7.45,7.45,0,0,0-1.162-.447l-2.637-9.7a44.131,44.131,0,0,1,4.187,1.773c.507.223.954-.536.447-.76a39.1,39.1,0,0,0-4.9-1.967c-.492-1.788-.968-3.576-1.49-5.379a.447.447,0,0,0-.849.238c.432,1.624.879,3.248,1.326,4.872a10.727,10.727,0,0,0-5.274-.119c-.328-1.684-.641-3.352-1-5.021-.1-.566-.968-.328-.849.238.358,1.669.67,3.352,1,5.036a8.329,8.329,0,0,0-1.326.641,5.96,5.96,0,0,0-2.682,7.211C27.868,39.939,30.282,40.491,32.741,40.491ZM38.7,55.882a9.685,9.685,0,0,1-2.98-.358c-.6-5.021-1.281-10.027-2.1-15.018h3.367a12.5,12.5,0,0,1,3.1.641c1.162,4.291,2.339,8.6,3.516,12.888A7.986,7.986,0,0,1,38.745,55.9Zm7.822-7.2a8.939,8.939,0,0,1-2.235,4.663C43.244,49.43,42.2,45.482,41.1,41.534c3.1,1.281,6,3.71,5.468,7.167Zm-14.6-18.252a8.329,8.329,0,0,1,5.215-.1q1.311,4.872,2.652,9.744a24.882,24.882,0,0,0-4.47-.417H33.426q-.76-4.649-1.654-9.252Zm-.954.149q.879,4.47,1.624,9.074a12.034,12.034,0,0,1-1.937-.209q-4.589-7.777.313-8.865Z" transform="translate(12.984 11.657)" fill="#313131"/>
      <path id="Trazado_231" data-name="Trazado 231" d="M29.4,58.376c.507.268.954-.492.447-.775a18.8,18.8,0,0,1-7.181-27.131.447.447,0,0,0-.76-.447A19.682,19.682,0,0,0,29.4,58.376Z" transform="translate(9.203 14.631)" fill="#313131"/>
      <path id="Trazado_232" data-name="Trazado 232" d="M33.671,50.607l-3.635-.447c-.551,0-.551.8,0,.879l3.635.462C34.238,51.561,34.238,50.681,33.671,50.607Z" transform="translate(14.571 24.575)" fill="#313131"/>
      <path id="Trazado_233" data-name="Trazado 233" d="M41.077,27.8a17.343,17.343,0,0,1,8.478,11.919c.1.566.954.328.849-.223a18.266,18.266,0,0,0-8.94-12.5.447.447,0,0,0-.387.8Z" transform="translate(20.068 13.207)" fill="#313131"/>
      <path id="Trazado_234" data-name="Trazado 234" d="M47,42.183c-.089.551.76.79.864.238l.447-2.727c.089-.566-.76-.8-.849-.238C47.27,40.425,47.121,41.274,47,42.183Z" transform="translate(23.083 19.173)" fill="#313131"/>
      <path id="Trazado_235" data-name="Trazado 235" d="M61.584,3.74C55.058-1.981,44.778-1,40.114,5.722a.7.7,0,0,0-.164.194l-.164.313a14.124,14.124,0,0,0-.849,1.49A18.266,18.266,0,0,0,36.33,16,13.141,13.141,0,0,0,42.975,27.43c8.105,4.47,19.25.372,22.081-8.582v-.089C67.127,13.812,65.413,7.45,61.584,3.74ZM55.058,26.193a14.244,14.244,0,0,0,4.619-1.639,14.9,14.9,0,0,1-5.8,2.98L54.939,26.3a.134.134,0,0,0,.119-.1ZM46.879,1.982A14.065,14.065,0,0,1,60.66,4.664c5.125,5.051,5.691,14.095-.834,18.252S43,25.329,39.891,17.626a11.919,11.919,0,0,1,.417-9.64l.581-1.058a11.651,11.651,0,0,1,5.989-4.947Zm-8.671,17.73.67-.924a11.683,11.683,0,0,0,.73,1.237l-.909.909a9.507,9.507,0,0,1-.492-1.222ZM37.716,14.9a11.4,11.4,0,0,0,.939,3.457l-.6.849a11.353,11.353,0,0,1-.343-4.306Zm5.17,11.025a11.592,11.592,0,0,1-3.993-4.47l.968-.968a15.51,15.51,0,0,0,11.249,5.96L49.62,28.13a15.6,15.6,0,0,1-1.7-.179l1.132-1.326c.179-.223-.134-.536-.313-.313-.447.507-.894,1.028-1.326,1.49A12.962,12.962,0,0,1,42.886,25.9Zm7.3,2.131,1.356-1.49a.194.194,0,0,0,0-.149,15.317,15.317,0,0,0,2.861-.089l-1.252,1.49a14.78,14.78,0,0,1-2.965.209Z" transform="translate(17.857 0.001)" fill="#313131"/>
      <path id="Trazado_236" data-name="Trazado 236" d="M46.789,10.362c.4,2.458.73,4.932,1.028,7.45a9.223,9.223,0,0,1-3.62-2.905c-.179-.223-.492.089-.313.313a9.193,9.193,0,0,0,3.978,2.98,14.113,14.113,0,0,0,.194,1.594c0,.283.477.3.447,0l-.179-1.49a5.006,5.006,0,0,0,4.053-.685c.149.581.313,1.177.477,1.758a.223.223,0,0,0,.417-.119c-.164-.641-.343-1.281-.521-1.922a3.755,3.755,0,0,0,1.341-1.982,4.47,4.47,0,0,0-2.682-4.842l-.581-.223c-.447-1.624-.894-3.248-1.326-4.872a22.184,22.184,0,0,1,2.145.879c.253.119.477-.253.223-.372a17.254,17.254,0,0,0-2.5-1l-.7-2.7a.223.223,0,0,0-.417.119L48.92,4.8a5.528,5.528,0,0,0-2.652,0c-.164-.834-.328-1.684-.507-2.518,0-.283-.477-.164-.417.119l.447,2.518a4.634,4.634,0,0,0-.67.328A2.98,2.98,0,0,0,43.78,8.872a2.98,2.98,0,0,0,3.01,1.49Zm2.98,7.748a5.185,5.185,0,0,1-1.49-.194c-.3-2.518-.641-5.036-1.043-7.539H48.92a6.5,6.5,0,0,1,1.49.313c.6,2.16,1.192,4.321,1.773,6.481a4.053,4.053,0,0,1-2.384.939ZM53.7,14.489a4.47,4.47,0,0,1-1.088,2.354c-.551-1.982-1.088-3.963-1.624-5.96,1.55.641,3.01,1.862,2.741,3.606Zm-7.33-9.178a4.157,4.157,0,0,1,2.622,0c.447,1.639.894,3.263,1.326,4.9A11.785,11.785,0,0,0,48.115,10h-.954c-.253-1.49-.536-3.1-.834-4.649Zm-.477,0c.3,1.49.566,2.98.819,4.559a2.786,2.786,0,0,1-.983-.119C44.2,7.233,44.2,5.743,45.9,5.386Z" transform="translate(21.418 1.037)" fill="#313131"/>
      <path id="Trazado_237" data-name="Trazado 237" d="M45.114,19.387A.224.224,0,1,0,45.337,19,9.446,9.446,0,0,1,41.732,5.367c.149-.238-.238-.462-.387-.223a9.893,9.893,0,0,0,3.769,14.244Z" transform="translate(19.518 2.471)" fill="#313131"/>
      <path id="Trazado_238" data-name="Trazado 238" d="M47.261,15.493l-1.833-.223c-.283,0-.268.4,0,.432l1.833.238C47.544,15.97,47.544,15.523,47.261,15.493Z" transform="translate(22.213 7.482)" fill="#313131"/>
      <path id="Trazado_239" data-name="Trazado 239" d="M51.043,4.041A8.686,8.686,0,0,1,55.3,10c0,.283.492.164.432-.119a9.148,9.148,0,0,0-4.47-6.273.243.243,0,1,0-.223.432Z" transform="translate(25.001 1.756)" fill="#313131"/>
      <path id="Trazado_240" data-name="Trazado 240" d="M53.94,11.249c0,.283.387.4.432.119L54.6,10c0-.268-.372-.387-.432-.1Z" transform="translate(26.485 4.768)" fill="#313131"/>
      <path id="Trazado_241" data-name="Trazado 241" d="M111.435,150.568c-.656-2.548-1.222,1.818-.968-3.129,0-.939.656-1.386.447-2.443s-1.043-1.311-1.3-2.116c-.417-1.281.343-1.937.447-2.98a4.291,4.291,0,0,0-.149-2.294c-.283-1.028-2.369-1.8-1.833-3.1a.894.894,0,0,0,0-.611.909.909,0,0,0-.3-1.132h0a1.028,1.028,0,0,0-.358-.268c-8.046-6.287-17.879-9.908-25.895-16.136a1.758,1.758,0,0,0-.283-.164,1.147,1.147,0,0,0-.775-.194c-26.461,5.542-52.8,11.621-78.966,18.624a.715.715,0,0,0-.358.1l-.194.1a.894.894,0,0,0-.79.79,9.282,9.282,0,0,0,1.415,7.2c-.909,1.073-.462,2.294-.134,3.918a20.01,20.01,0,0,1-.3,4.112c0,.253-.179.432-.134.715C1.375,153.876,3,155.694,3,158.122a1.117,1.117,0,0,0,.223.611,1.341,1.341,0,0,0,.343.372c8.791,6.436,16.687,14.408,26.282,19.682h0a1.043,1.043,0,0,0,.834.1c26.521-7.226,53.771-12.62,79.83-21.38l.253-.119a1.1,1.1,0,0,0,.76-1.028,18.118,18.118,0,0,0-.089-5.8Zm-79.606,25.7a4.023,4.023,0,0,1-.179-2.354q38.649-11.323,78.012-19.89a10.6,10.6,0,0,1-.223,1.49C84.081,163.978,57.634,169.312,31.829,176.27Zm48.646-57.943c7.45,5.662,16.508,9.193,24.122,14.78-25.329,8.3-51.611,13.588-77.267,20.561C19,148.915,12.386,141.629,4.489,136.235,29.624,129.531,55.027,123.69,80.475,118.327Zm25.12,16.836c.089.8.715,1.266,1.252,1.982a358.835,358.835,0,0,1-39.721,12.277c-12.575,2.98-25.79,4.2-37.889,8.939-.521-.864-1.088-1.758-.6-2.429a1.207,1.207,0,0,0,.179-.372c25.567-6.779,51.73-12.113,76.835-20.4Zm1.49,7.986Q68.928,154.993,29.818,163.68a2.622,2.622,0,0,1-.268-1.207q39.17-9.476,77.744-21.142a7.45,7.45,0,0,0-.149,1.818ZM26.778,162.518A126.152,126.152,0,0,1,4.37,147.887c-.387-1.237-1.356-3.427-.67-3.829l.134-.1c7.613,6.109,15.48,11.919,23.094,18.013a2.98,2.98,0,0,0-.089.507Zm0,.968v.089c.253,1,.909,1.684,1.147,2.741a4.142,4.142,0,0,1,0,1.877A178.893,178.893,0,0,1,3.58,150.971c.1-.566.7-1.162.879-1.907a129.415,129.415,0,0,0,22.379,14.378Zm-22.006-9.4a9.848,9.848,0,0,0-.864-1.728,186.943,186.943,0,0,0,23.839,16.687,4.47,4.47,0,0,0,0,1c.1,1.192.849,1.624,1.147,2.652h0A205.271,205.271,0,0,1,4.862,154.412Zm26.1,11.487a2.116,2.116,0,0,0-.492-1.192q38.917-8.6,76.91-20.4c.4.864,1.043.283.924,2.846a1.892,1.892,0,0,1,0,.507,463.864,463.864,0,0,1-77.476,19.98,8.224,8.224,0,0,0,.134-1.743ZM107.4,137.979a4.47,4.47,0,0,1,0,2.354q-38.574,11.755-77.789,21.2a5.1,5.1,0,0,0,.328-1.639,2.265,2.265,0,0,0-.238-.745c12.039-4.708,25.165-5.96,37.68-8.94a352.671,352.671,0,0,0,39.915-12.337ZM26.287,155.664c-.372,1,.149,1.654.581,2.607C18.792,151.76,10.359,145.8,2.344,139.185a5.87,5.87,0,0,1-.1-1.7C10.672,142.955,17.511,150.7,26.287,155.664Zm1,4.038a5.245,5.245,0,0,1-.164,1.341c-7.554-6.049-15.331-11.785-22.885-17.879a1.356,1.356,0,0,0-.3-.924,7.048,7.048,0,0,1-1.073-1.579C10.881,147.171,19.284,153.25,27.285,159.7ZM5.13,155.813a211.02,211.02,0,0,0,24.047,18.058c.074.656.1,1.326.223,2.011-8.671-5.125-15.972-12.351-24.092-18.341C5.264,156.96,5.219,156.379,5.13,155.813Zm104.563-2.667q-39.274,8.537-77.833,19.831a1.162,1.162,0,0,0-.521-1.252c-.894-.67-.834-2.131-.67-3.531a463.876,463.876,0,0,0,77.3-19.876,3.516,3.516,0,0,0-.089.939c.119,1.371,1.654,2.414,1.818,3.889Z" transform="translate(0.039 56.829)" fill="#313131"/>
      <path id="Trazado_242" data-name="Trazado 242" d="M19.4,145.734c22.349-5.632,44.7-11.457,67.046-17.1a.432.432,0,0,0-.223-.819c-22.349,5.647-44.7,11.472-67.046,17.1a.432.432,0,0,0,.223.819Z" transform="translate(9.336 62.617)" fill="#313131"/>
      <path id="Trazado_243" data-name="Trazado 243" d="M10.544,134.59q30.618-7.852,61.534-14.408c.536-.1.313-.924-.223-.819q-30.931,6.556-61.534,14.408a.432.432,0,0,0,.223.819Z" transform="translate(4.995 58.475)" fill="#313131"/>
      <path id="Trazado_244" data-name="Trazado 244" d="M34.254,130.788c1.266.67,2.637,0,3.859-.313,1.311,1.639,2.563,3.337,3.769,5.066-2.265.209-4.47.3-6.809.283a.432.432,0,0,0,0,.864,57.912,57.912,0,0,0,13.1-.954l.164.179a.418.418,0,0,0,.7-.417c2.831-.879,4.738-2.369,4.038-4.887-1-3.546-6.079-2.89-8.716-2.518-.551.089-1.117.223-1.7.372l-2.25-2.458a27.542,27.542,0,0,1,3.129,0,.425.425,0,0,0,0-.849,30.2,30.2,0,0,0-3.948-.089l-.983-1.073c-.372-.4-.968.194-.6.6l.507.566a10.534,10.534,0,0,0-3.069.745l-.983-1.117c-.372-.4-.968.194-.6.6l.79.909a5.452,5.452,0,0,0-.968.76,2.16,2.16,0,0,0,.566,3.74Zm11.189,4.321c-.864.134-1.728.253-2.592.343-1.222-1.773-2.5-3.531-3.829-5.23,1.117-.3,2.22-.6,3.323-.849l5.036,5.5c-.819.119-1.654.179-1.937.238Zm.849-6.377q.983-.089,1.967-.089c.343,1.892.7,3.784,1.058,5.677a2.279,2.279,0,0,1-.954.372l-5.051-5.513a27.042,27.042,0,0,1,2.98-.447Zm-8.522-2.384a14.567,14.567,0,0,1,1.49-.253l2.429,2.637a15.3,15.3,0,0,1-3.2.7.476.476,0,0,1-.134,0c-.73-.909-1.49-1.818-2.25-2.7A11.621,11.621,0,0,1,37.77,126.348Zm-.313,3.308c-.954,0-1.758-.879-2.414-2.443l.268-.119c.745.849,1.445,1.7,2.145,2.563Z" transform="translate(16.149 60.682)" fill="#313131"/>
      <path id="Trazado_245" data-name="Trazado 245" d="M53.2,123.164a.343.343,0,0,0-.179,0l-.73.1-.894.164h-.149c-1.8.492-3.561,1.49-3.412,3.591.179,2.607,3.233,3.308,5.349,2.98s4.47-2.071,3.948-4.559C56.713,123.536,54.94,123.089,53.2,123.164Zm3.069,2.339c.566,1.847-1.222,3.278-2.816,3.635s-4.216.194-4.708-1.758c-.581-2.265,2.041-2.98,3.769-3.308h.432C54.3,123.849,55.8,124.013,56.266,125.5Z" transform="translate(23.489 60.335)" fill="#313131"/>
      <path id="Trazado_246" data-name="Trazado 246" d="M27.862,136.542c2.205-.343,4.47-2.086,3.948-4.574-.417-1.952-2.19-2.4-3.918-2.324a.418.418,0,0,0-.194,0l-.73.1-.894.164h-.149c-1.788.492-3.561,1.49-3.412,3.591C22.692,136.14,25.746,136.855,27.862,136.542Zm-4.47-2.682c-.581-2.25,2.041-2.98,3.769-3.308h.432c1.356-.164,2.861,0,3.323,1.49.566,1.848-1.222,3.278-2.816,3.635s-4.187.134-4.678-1.818Z" transform="translate(11.084 63.51)" fill="#313131"/>
    </g>
  </g>
</svg>
