<svg id="INFO" xmlns="http://www.w3.org/2000/svg" width="15" height="15" viewBox="0 0 15 15">
  <g id="Layer_1" data-name="Layer 1">
    <path id="Trazado_199" data-name="Trazado 199" d="M7.5,15A7.5,7.5,0,1,1,15,7.5,7.5,7.5,0,0,1,7.5,15ZM7.5.789A6.711,6.711,0,1,0,14.211,7.5,6.711,6.711,0,0,0,7.5.789Z" fill="#868686"/>
    <path id="Trazado_200" data-name="Trazado 200" d="M14.414,13.275H12.44V12.142h3.418v4.875H14.414Zm-.3-2.763a.961.961,0,0,1,1.922-.016.884.884,0,0,1-.963.884.88.88,0,0,1-.959-.884Z" transform="translate(-7.529 -5.807)" fill="#868686"/>
  </g>
</svg>
