<svg xmlns="http://www.w3.org/2000/svg" xmlns:xlink="http://www.w3.org/1999/xlink" width="66.167" height="83.757" viewBox="0 0 66.167 83.757">
  <defs>
    <linearGradient id="linear-gradient" x1="-0.001" y1="0.502" x2="0.999" y2="0.502" gradientUnits="objectBoundingBox">
      <stop offset="0" stop-color="#006293"/>
      <stop offset="1" stop-color="#1b3c6a"/>
    </linearGradient>
    <linearGradient id="linear-gradient-2" x1="0" y1="0.5" x2="1.009" y2="0.5" xlink:href="#linear-gradient"/>
    <linearGradient id="linear-gradient-3" x1="0.264" y1="0.046" x2="0.541" y2="0.778" xlink:href="#linear-gradient"/>
    <linearGradient id="linear-gradient-4" x1="0.165" y1="-2.151" x2="1.196" y2="-2.151" xlink:href="#linear-gradient"/>
    <linearGradient id="linear-gradient-5" x1="0.119" y1="-2.032" x2="1.118" y2="-2.032" xlink:href="#linear-gradient"/>
    <linearGradient id="linear-gradient-6" x1="0.097" y1="-2.116" x2="1.097" y2="-2.116" xlink:href="#linear-gradient"/>
    <linearGradient id="linear-gradient-7" x1="0.064" y1="-0.608" x2="1.075" y2="-0.608" xlink:href="#linear-gradient"/>
  </defs>
  <g id="Layer_2" data-name="Layer 2" transform="translate(0)">
    <g id="Layer_1" data-name="Layer 1" transform="translate(0)">
      <text id="LO_QUE" data-name="LO QUE" transform="translate(30.792 35.721)" fill="#1b3c6a" font-size="7" font-family="SegoeUI, Segoe UI"><tspan x="0" y="0" letter-spacing="-0.01em">L</tspan><tspan y="0" letter-spacing="0.03em">O</tspan><tspan y="0" xml:space="preserve"> QUE</tspan></text>
      <text id="HACER" transform="translate(18.673 61.066)" fill="#1b3c6a" font-size="14" font-family="SegoeUI, Segoe UI"><tspan x="0" y="0">H</tspan><tspan y="0" letter-spacing="-0.04em">A</tspan><tspan y="0">CER</tspan></text>
      <path id="Trazado_169" data-name="Trazado 169" d="M15.023,91.129a1.68,1.68,0,0,0,.8,0l.219-.048V91.3a2.6,2.6,0,0,0,4.495,1.8l.139-.151.131.159a1.64,1.64,0,0,0,.856.557,1.66,1.66,0,0,0,1.155-.115c.064-.223.119-.45.187-.677a1.8,1.8,0,0,1-1.27.131,1.776,1.776,0,0,1-.924-.6,2.711,2.711,0,0,1-4.682-1.867,1.82,1.82,0,0,1-.84,0,1.8,1.8,0,0,1-1.33-1.716,1.489,1.489,0,0,0-.1.255A1.68,1.68,0,0,0,15.023,91.129Z" transform="translate(-8.302 -53.457)" fill="url(#linear-gradient)"/>
      <path id="Trazado_170" data-name="Trazado 170" d="M8.714,83.536a3.225,3.225,0,0,0,.768.1H9.6v-.092a1.708,1.708,0,0,1,.187-.426,3.425,3.425,0,0,1-.8-.111,3.245,3.245,0,0,1-2.21-2.11c-.084.183-.163.366-.243.549v.032A3.185,3.185,0,0,0,8.714,83.536Z" transform="translate(-3.936 -48.691)" fill="url(#linear-gradient-2)"/>
      <path id="Trazado_171" data-name="Trazado 171" d="M54.876,154.619a30.9,30.9,0,0,0,23.008-1.246,36.661,36.661,0,0,0,4.276-3.583,36.186,36.186,0,0,0,4.356-5.128c-.378.4-.768.8-1.167,1.194A30.362,30.362,0,0,1,33.81,126.22a31.023,31.023,0,0,0,21.066,28.4Z" transform="translate(-20.349 -75.967)" fill="#d53e27"/>
      <path id="Trazado_172" data-name="Trazado 172" d="M34.24,131.593h0A31.907,31.907,0,0,1,13.6,93.265a2.64,2.64,0,0,1-1.254-.434A3.512,3.512,0,0,1,6.9,90.7a2.015,2.015,0,0,1-.4-.076A2.572,2.572,0,0,1,4.61,87.814H4.567A4.049,4.049,0,0,1,2.544,86.54c-.255.581-.482,1.155-.693,1.748a36.139,36.139,0,0,0,49.282,44.3A32.01,32.01,0,0,1,34.24,131.593Z" transform="translate(0 -52.085)" fill="url(#linear-gradient-3)"/>
      <path id="Trazado_173" data-name="Trazado 173" d="M10.506,40.865l-.326,7.987s3.185-1.533,4.595.076a53.941,53.941,0,0,1,1.656-7.7c.064-.2.123-.4.191-.617.267-.848.557-1.7.88-2.54Z" transform="translate(-6.127 -22.913)" fill="url(#linear-gradient-4)"/>
      <path id="Trazado_174" data-name="Trazado 174" d="M51.469,60.92q-.924.967-1.991,1.943c-.155.143-.319.287-.478.426a52.953,52.953,0,0,1-6.291,4.746c2.122.565,2.07,4.149,2.07,4.149l7.1-3.667Z" transform="translate(-25.705 -36.665)" fill="url(#linear-gradient-5)"/>
      <path id="Trazado_175" data-name="Trazado 175" d="M25.318,49.39A53.55,53.55,0,0,0,24,55.951,9.125,9.125,0,0,0,26.624,59.4a8,8,0,0,0,4.216.956,53.957,53.957,0,0,0,5.411-3.922A18.617,18.617,0,0,1,30.4,53.945a21.755,21.755,0,0,1-5.084-4.555Z" transform="translate(-14.445 -29.726)" fill="url(#linear-gradient-6)"/>
      <path id="Trazado_176" data-name="Trazado 176" d="M48.315,0a18.5,18.5,0,0,0-9.1,2.735c-4.937,3-8.572,8.182-10.794,15.4a19.016,19.016,0,0,0,11.717,7.517C53.308,13.891,49.49,2.644,48.315,0ZM44.576,11.017A3.253,3.253,0,1,1,44.2,8.55a3.253,3.253,0,0,1,.376,2.467Z" transform="translate(-17.105)" fill="url(#linear-gradient-7)"/>
      <text id="QUIERO" transform="translate(18.788 48.17)" fill="#d53e27" font-size="12" font-family="SegoeUI, Segoe UI"><tspan x="0" y="0">QUIERO</tspan></text>
    </g>
  </g>
</svg>
