<svg xmlns="http://www.w3.org/2000/svg" width="84.261" height="90.701" viewBox="0 0 84.261 90.701">
  <g id="Layer_2" data-name="Layer 2" transform="translate(0.006)">
    <g id="Layer_1" data-name="Layer 1" transform="translate(-0.006)">
      <path id="Trazado_76" data-name="Trazado 76" d="M214.13,209.44h2.319v4.955h3.259v1.987H214.13Z" transform="translate(-180.396 -176.446)" fill="#868686"/>
      <path id="Trazado_77" data-name="Trazado 77" d="M250.91,212.183v-.019a3.793,3.793,0,0,1,7.576-.014v.02a3.793,3.793,0,0,1-7.576.013Zm5.232,0v-.02a1.484,1.484,0,0,0-1.456-1.566,1.457,1.457,0,0,0-1.438,1.544v.021a1.484,1.484,0,0,0,1.456,1.566,1.453,1.453,0,0,0,1.438-1.539Z" transform="translate(-211.382 -175.696)" fill="#868686"/>
      <path id="Trazado_78" data-name="Trazado 78" d="M326.353,215.948l-.761-.685a3.946,3.946,0,0,1-2.161.63,3.633,3.633,0,0,1-3.771-3.6v-.02a3.671,3.671,0,0,1,3.8-3.612,3.633,3.633,0,0,1,3.771,3.6v.019a3.5,3.5,0,0,1-.616,1.991l.712.6Zm-2.424-2.124-.788-.674.972-1.089.744.674a2.084,2.084,0,0,0,.049-.416v-.02a1.519,1.519,0,0,0-1.475-1.6,1.485,1.485,0,0,0-1.438,1.583v.02a1.5,1.5,0,0,0,1.456,1.6A1.477,1.477,0,0,0,323.929,213.824Z" transform="translate(-269.301 -175.788)" fill="#868686"/>
      <path id="Trazado_79" data-name="Trazado 79" d="M371.36,213.395V209.57h2.363v3.8c0,.862.444,1.229,1.068,1.229s1.071-.336,1.071-1.178v-3.844h2.363v3.781c0,2.363-1.38,3.3-3.45,3.3S371.358,215.693,371.36,213.395Z" transform="translate(-312.856 -176.555)" fill="#868686"/>
      <path id="Trazado_80" data-name="Trazado 80" d="M419.552,209.61h5.915v1.9H421.83v.7h3.389v1.675H421.83v.753h3.686v1.9H419.55Z" transform="translate(-353.455 -176.589)" fill="#868686"/>
      <path id="Trazado_81" data-name="Trazado 81" d="M132.81,356h4.126v4.359h3.781V356h4.131v12.352h-4.131v-4.433h-3.781v4.428H132.81Z" transform="translate(-111.887 -299.917)" fill="#868686"/>
      <path id="Trazado_82" data-name="Trazado 82" d="M217.69,355.41h4.1l5.2,12.445h-4.477l-.654-1.659h-4.323l-.63,1.659H212.49Zm3.14,7.853-1.13-2.993-1.128,2.993Z" transform="translate(-179.014 -299.42)" fill="#868686"/>
      <path id="Trazado_83" data-name="Trazado 83" d="M300.94,360.766v-.035a6.384,6.384,0,0,1,6.565-6.442A6.056,6.056,0,0,1,313.1,357.5l-3.406,1.994a2.4,2.4,0,0,0-2.242-1.5,2.457,2.457,0,0,0-2.311,2.7v.035c0,1.605.945,2.735,2.311,2.735a2.523,2.523,0,0,0,2.33-1.553l3.406,1.924a6.544,6.544,0,0,1-12.247-3.07Z" transform="translate(-253.53 -298.477)" fill="#868686"/>
      <path id="Trazado_84" data-name="Trazado 84" d="M383.72,356h10.534v3.389h-6.476v1.252h6.035v2.982h-6.035v1.342h6.565v3.387H383.72Z" transform="translate(-323.269 -299.917)" fill="#868686"/>
      <path id="Trazado_85" data-name="Trazado 85" d="M458.2,356h6.035c2.188,0,3.582.548,4.447,1.418a3.886,3.886,0,0,1,1.13,2.93v.035a4.005,4.005,0,0,1-2.436,3.781l2.877,4.2h-4.712l-2.332-3.541h-.882v3.529H458.2Zm5.912,5.876c.988,0,1.588-.441,1.588-1.2v-.036c0-.788-.618-1.181-1.575-1.181h-1.794v2.417Z" transform="translate(-386.016 -299.917)" fill="#868686"/>
      <path id="Trazado_86" data-name="Trazado 86" d="M39.012,245.508a1.781,1.781,0,0,0,.846.014l.238-.05v.243a2.82,2.82,0,0,0,4.871,1.944l.158-.158.142.172a1.78,1.78,0,0,0,2.177.473c.068-.244.129-.49.2-.734a1.93,1.93,0,0,1-2.376-.507,2.935,2.935,0,0,1-5.077-2.023,1.932,1.932,0,0,1-.914-.016A1.953,1.953,0,0,1,37.84,243a1.589,1.589,0,0,0-.109.279,1.818,1.818,0,0,0,1.281,2.229Z" transform="translate(-31.733 -204.719)" fill="#868686"/>
      <path id="Trazado_87" data-name="Trazado 87" d="M20.259,224.215a3.44,3.44,0,0,0,.83.113h.131a.212.212,0,0,1,.016-.1,2,2,0,0,1,.2-.463,3.562,3.562,0,0,1-.854-.118,3.519,3.519,0,0,1-2.428-2.289c-.09.2-.176.4-.265.6l.011.031a3.422,3.422,0,0,0,2.358,2.228Z" transform="translate(-15.071 -186.488)" fill="#868686"/>
      <path id="Trazado_88" data-name="Trazado 88" d="M115.326,376.136a33.435,33.435,0,0,0,24.914-1.348,39.279,39.279,0,0,0,9.343-9.433q-.614.671-1.26,1.3a32.875,32.875,0,0,1-55.8-21.269,33.587,33.587,0,0,0,22.806,30.746Z" transform="translate(-77.944 -290.979)" fill="#868686"/>
      <path id="Trazado_89" data-name="Trazado 89" d="M37.063,285.5h0a34.544,34.544,0,0,1-22.351-41.5,2.779,2.779,0,0,1-1.358-.473,3.8,3.8,0,0,1-5.89-2.3,2.681,2.681,0,0,1-.444-.08,2.8,2.8,0,0,1-2.048-3.051l-.046-.011A4.394,4.394,0,0,1,2.734,236.7c-.262.63-.507,1.26-.739,1.906a39.134,39.134,0,0,0,53.364,47.965A34.658,34.658,0,0,1,37.063,285.5Z" transform="translate(0.006 -199.411)" fill="#868686"/>
      <path id="Trazado_90" data-name="Trazado 90" d="M28.211,107.122l-.351,8.646s3.431-1.66,4.973.082a57.5,57.5,0,0,1,1.8-8.349q.1-.336.2-.671c.288-.918.6-1.838.956-2.749Z" transform="translate(-23.47 -87.684)" fill="#868686"/>
      <path id="Trazado_91" data-name="Trazado 91" d="M126.361,166.7q-1,1.049-2.158,2.1c-.17.158-.343.315-.517.463a57.722,57.722,0,0,1-6.806,5.139c2.3.608,2.239,4.488,2.239,4.488l7.688-3.971Z" transform="translate(-98.466 -140.439)" fill="#868686"/>
      <path id="Trazado_92" data-name="Trazado 92" d="M67.062,135.14a58.128,58.128,0,0,0-1.432,7.106,9.849,9.849,0,0,0,2.836,3.737,8.664,8.664,0,0,0,4.569,1.035,58.76,58.76,0,0,0,5.862-4.253,20.213,20.213,0,0,1-6.336-2.7A23.613,23.613,0,0,1,67.062,135.14Z" transform="translate(-55.29 -113.851)" fill="#868686"/>
      <path id="Trazado_93" data-name="Trazado 93" d="M99.3,0a20.062,20.062,0,0,0-9.857,2.962C84.1,6.21,80.172,11.815,77.76,19.632a20.583,20.583,0,0,0,12.688,8.14C104.707,15.038,100.571,2.862,99.3,0ZM95.239,11.929a3.524,3.524,0,1,1-2.577-4.266A3.524,3.524,0,0,1,95.239,11.929Z" transform="translate(-65.509)" fill="#868686"/>
      <path id="Trazado_94" data-name="Trazado 94" d="M142.158,281.793l-1.211-1.087a6.274,6.274,0,0,1-3.434.992,5.785,5.785,0,0,1-6-5.717v-.032a6.024,6.024,0,0,1,12.034-.031v.031a5.586,5.586,0,0,1-.975,3.165l1.133.961Zm-3.858-3.371-1.245-1.071,1.544-1.733,1.182,1.071a3.16,3.16,0,0,0,.079-.662V276a2.416,2.416,0,0,0-2.347-2.536,2.381,2.381,0,0,0-2.284,2.521v.031a2.326,2.326,0,0,0,3.072,2.409Z" transform="translate(-110.791 -227.634)" fill="#868686"/>
      <path id="Trazado_95" data-name="Trazado 95" d="M213.7,277.781V271.7h3.749v6.034c0,1.369.709,1.952,1.7,1.952s1.7-.536,1.7-1.873V271.7H224.6v6c0,3.764-2.19,5.244-5.482,5.244S213.7,281.434,213.7,277.781Z" transform="translate(-180.034 -228.897)" fill="#868686"/>
      <path id="Trazado_96" data-name="Trazado 96" d="M290.49,271.7h3.686v11.028H290.49Z" transform="translate(-244.726 -228.897)" fill="#868686"/>
      <path id="Trazado_97" data-name="Trazado 97" d="M322.09,271.7h9.4v3.025h-5.78v1.118H331.1V278.5h-5.386v1.2h5.859v3.025H322.09Z" transform="translate(-271.348 -228.897)" fill="#868686"/>
      <path id="Trazado_98" data-name="Trazado 98" d="M388.58,271.7h5.388a5.364,5.364,0,0,1,3.968,1.26,3.464,3.464,0,0,1,1.008,2.615v.032a3.563,3.563,0,0,1-2.174,3.37l2.568,3.749h-4.2l-2.079-3.151h-.788v3.151H388.58Zm5.277,5.246c.882,0,1.418-.394,1.418-1.071v-.031c0-.709-.551-1.055-1.4-1.055h-1.6v2.158Z" transform="translate(-327.364 -228.897)" fill="#868686"/>
      <path id="Trazado_99" data-name="Trazado 99" d="M458.47,275.982v-.032a6.024,6.024,0,0,1,12.034-.031v.031a6.024,6.024,0,0,1-12.034.032Zm8.318,0v-.032a2.359,2.359,0,0,0-2.316-2.489,2.316,2.316,0,0,0-2.284,2.458v.031a2.358,2.358,0,0,0,2.316,2.487A2.316,2.316,0,0,0,466.788,275.982Z" transform="translate(-386.243 -227.634)" fill="#868686"/>
    </g>
  </g>
</svg>
