<svg xmlns="http://www.w3.org/2000/svg" width="15.017" height="16" viewBox="0 0 15.017 16">
  <g id="Layer_2" data-name="Layer 2" transform="translate(0)">
    <g id="Layer_1" data-name="Layer 1" transform="translate(0)">
      <path id="Trazado_136" data-name="Trazado 136" d="M7.555,0A3.931,3.931,0,0,1,8.5.081,1.671,1.671,0,0,1,9.92,1.671v.6a.274.274,0,0,0,.17.274c.281.155.569.318.843.488a.288.288,0,0,0,.333,0l.458-.259a1.7,1.7,0,0,1,2.218.466,7.126,7.126,0,0,1,.917,1.574,1.7,1.7,0,0,1-.739,2.218l-.488.274c-.074.037-.1.081-.089.177V8.6c0,.089,0,.133.1.17l.48.281a1.7,1.7,0,0,1,.739,2.218,7.939,7.939,0,0,1-.88,1.478,1.722,1.722,0,0,1-2.218.488l-.429-.251a.31.31,0,0,0-.347,0c-.274.17-.554.333-.835.48a.288.288,0,0,0-.17.281,6.091,6.091,0,0,1-.052.9,1.663,1.663,0,0,1-1.434,1.294,7.3,7.3,0,0,1-1.8,0,1.708,1.708,0,0,1-1.582-1.781V13.7a.266.266,0,0,0-.155-.244c-.281-.148-.562-.31-.835-.48a.31.31,0,0,0-.362,0l-.5.333a1.715,1.715,0,0,1-2.218-.51,7.939,7.939,0,0,1-.887-1.538A1.715,1.715,0,0,1,.894,9.04c.17-.1.34-.185.5-.288a.192.192,0,0,0,.074-.14c0-.392,0-.776,0-1.168A.2.2,0,0,0,1.39,7.3c-.163-.1-.34-.192-.5-.3a1.7,1.7,0,0,1-.7-2.218A7.939,7.939,0,0,1,1.065,3.3a1.715,1.715,0,0,1,2.218-.5l.414.229a.325.325,0,0,0,.377,0c.259-.17.532-.318.806-.466a.318.318,0,0,0,.192-.3,5.174,5.174,0,0,1,.052-.894A1.685,1.685,0,0,1,6.653.052ZM7.5,1.478H6.808c-.207,0-.281.1-.281.31v.525a1.641,1.641,0,0,1-.872,1.478c-.31.17-.614.347-.909.525a1.641,1.641,0,0,1-1.116.214,2.58,2.58,0,0,1-.968-.421.325.325,0,0,0-.5.111c-.222.37-.436.739-.643,1.116-.111.207-.059.325.133.436l.924.532a.739.739,0,0,1,.377.85,4.657,4.657,0,0,0,0,1.752.739.739,0,0,1-.4.857l-.939.532c-.163.1-.214.214-.126.377.214.407.451.813.695,1.2a.288.288,0,0,0,.429.081c.177-.1.347-.207.525-.288a1.641,1.641,0,0,1,1.663.1c.266.163.54.325.813.473a1.574,1.574,0,0,1,.872,1.2,7.392,7.392,0,0,1,.037.813c0,.17.074.274.244.274H8.2c.207,0,.274-.1.274-.318v-.54a1.634,1.634,0,0,1,.887-1.434c.3-.163.584-.333.872-.5a1.648,1.648,0,0,1,1.161-.229,2.957,2.957,0,0,1,.968.436.3.3,0,0,0,.451-.1c.237-.384.466-.739.68-1.168.1-.185.044-.3-.14-.407l-.909-.525a.739.739,0,0,1-.414-.85,4.938,4.938,0,0,0,0-1.774.739.739,0,0,1,.407-.835l.939-.54c.163-.1.214-.214.126-.377-.222-.407-.451-.806-.695-1.2a.3.3,0,0,0-.436-.089c-.148.1-.3.177-.458.259a1.656,1.656,0,0,1-1.663-.044c-.3-.177-.591-.355-.894-.517a1.6,1.6,0,0,1-.843-1.161,5.669,5.669,0,0,1,0-.791c0-.244-.067-.325-.3-.347Z" transform="translate(0)" fill="#868686"/>
      <path id="Trazado_137" data-name="Trazado 137" d="M11.891,9.76a3.005,3.005,0,1,1-.784-2.186A3.02,3.02,0,0,1,11.891,9.76ZM8.878,11.227a1.623,1.623,0,1,0-1.153-.488,1.623,1.623,0,0,0,1.153.488Z" transform="translate(-1.383 -1.575)" fill="#868686"/>
    </g>
  </g>
</svg>
