<svg xmlns="http://www.w3.org/2000/svg" width="20.726" height="24.615" viewBox="0 0 20.726 24.615">
  <g id="Layer_2" data-name="Layer 2" transform="translate(0.762 3.905)">
    <g id="Layer_1" data-name="Layer 1" transform="translate(-0.762 -3.905)">
      <g id="CVfTzo" transform="translate(0 0)">
        <path id="Trazado_129" data-name="Trazado 129" d="M10.343,24.615a1.115,1.115,0,0,1-.6-.191c-.526-.333-1.066-.665-1.589-.987-.963-.591-1.956-1.2-2.909-1.852A11.852,11.852,0,0,1,.43,14.727,12.062,12.062,0,0,1,0,11.4c0-.722,0-1.455,0-2.166V4.24A.965.965,0,0,1,.749,3.157l.887-.3C4.36,1.939,7.17.99,9.948.067a1.291,1.291,0,0,1,.4-.067,1.368,1.368,0,0,1,.431.067c2.688.9,5.414,1.816,8.061,2.706l1.114.375a.962.962,0,0,1,.76,1.083V6.5c.006,1.78.012,3.62-.014,5.431a11.84,11.84,0,0,1-1.813,6,12.265,12.265,0,0,1-4.137,4.117c-1.212.742-2.451,1.515-3.789,2.362A1.152,1.152,0,0,1,10.343,24.615ZM1.773,4.762V9.4c0,.778,0,1.582.007,2.372a8.469,8.469,0,0,0,.111,1.324,10.343,10.343,0,0,0,4.552,7.124c.989.662,2.027,1.29,3.032,1.9l.888.538h.013c1.145-.694,2.3-1.41,3.423-2.1l.1-.063a10.476,10.476,0,0,0,2.554-2.2A10.124,10.124,0,0,0,18.934,11.9c.041-1.575.032-3.181.024-4.735,0-.788-.008-1.6-.007-2.406L14.6,3.3,10.431,1.89a.251.251,0,0,0-.071-.011.167.167,0,0,0-.053.007L6.347,3.218q-2.286.772-4.572,1.54Z" transform="translate(0.005 0)" fill="#29aa79"/>
        <path id="Trazado_130" data-name="Trazado 130" d="M43.586,64.936a1.115,1.115,0,0,1-.775-.434q-1.137-1.2-2.268-2.406l-.821-.875a1.022,1.022,0,0,1-.289-1.137.848.848,0,0,1,.78-.544,1.018,1.018,0,0,1,.729.343q.513.541,1.02,1.083c.226.241.452.487.68.729.268.286.54.57.816.86l.131.137,5.87-6.211a2.586,2.586,0,0,1,.308-.294A.858.858,0,0,1,50.294,56a.825.825,0,0,1,.609.268.906.906,0,0,1,.142,1.1,1.466,1.466,0,0,1-.235.306L44.367,64.5A1.14,1.14,0,0,1,43.586,64.936Z" transform="translate(-34.62 -49.262)" fill="#29aa79"/>
      </g>
    </g>
  </g>
</svg>
