<svg xmlns="http://www.w3.org/2000/svg" width="33.946" height="28.892" viewBox="0 0 33.946 28.892">
  <g id="Grupo_678" data-name="Grupo 678" transform="translate(0 0)">
    <path id="Trazado_685" data-name="Trazado 685" d="M-18.5,532.257H-47.645a2.368,2.368,0,0,1-2.087-1.219,2.367,2.367,0,0,1,.037-2.417l14.572-24.1a2.378,2.378,0,0,1,2.051-1.156,2.378,2.378,0,0,1,2.051,1.156l14.572,24.1a2.367,2.367,0,0,1,.037,2.417A2.368,2.368,0,0,1-18.5,532.257ZM-33.073,504.72a1.02,1.02,0,0,0-.89.5l-14.572,24.1a1.028,1.028,0,0,0-.016,1.05,1.029,1.029,0,0,0,.907.529H-18.5a1.029,1.029,0,0,0,.907-.529,1.029,1.029,0,0,0-.016-1.05l-14.573-24.1A1.02,1.02,0,0,0-33.073,504.72Z" transform="translate(50.046 -503.365)" fill="#eba914"/>
    <path id="Trazado_686" data-name="Trazado 686" d="M-25.869,517.9h1.547v5.236q0,.411-.014.806t-.041.792c-.018.265-.041.537-.069.814s-.059.575-.1.892h-1.108c-.037-.318-.068-.615-.1-.892s-.05-.55-.068-.814-.032-.53-.041-.792-.014-.532-.014-.806Z" transform="translate(42.253 -508.05)" fill="#eba914"/>
    <path id="Trazado_687" data-name="Trazado 687" d="M-24.257,535.676a1.119,1.119,0,0,1-.243.362,1.116,1.116,0,0,1-.366.242,1.159,1.159,0,0,1-.449.087,1.161,1.161,0,0,1-.449-.087,1.061,1.061,0,0,1-.361-.242,1.149,1.149,0,0,1-.238-.362,1.148,1.148,0,0,1-.087-.453,1.156,1.156,0,0,1,.087-.448,1.143,1.143,0,0,1,.238-.367,1.117,1.117,0,0,1,.361-.247,1.117,1.117,0,0,1,.449-.091,1.114,1.114,0,0,1,.449.091,1.176,1.176,0,0,1,.366.247,1.114,1.114,0,0,1,.243.367,1.168,1.168,0,0,1,.087.448A1.159,1.159,0,0,1-24.257,535.676Z" transform="translate(42.44 -513.262)" fill="#eba914"/>
  </g>
</svg>
